<?xml version="1.0" standalone="no"?>
<!DOCTYPE svg PUBLIC "-//W3C//DTD SVG 1.1//EN" "http://www.w3.org/Graphics/SVG/1.1/DTD/svg11.dtd" >
<svg>
<metadata>
Created by FontForge 20090622 at Mon Nov 12 06:23:40 2018
 By deploy user
Copyright 2011 The Anton Project Authors
</metadata>
<defs>
<font id="Anton-Regular" horiz-adv-x="0" >
  <font-face 
    font-family="Anton"
    font-weight="400"
    font-stretch="normal"
    units-per-em="1000"
    panose-1="0 0 5 0 0 0 0 0 0 0"
    ascent="800"
    descent="-200"
    x-height="732"
    cap-height="859"
    bbox="-247 -326 1459 1404"
    underline-thickness="50"
    underline-position="-100"
    unicode-range="U+0002-U+FB02"
  />
<missing-glyph horiz-adv-x="263" 
 />
    <glyph glyph-name="f_f" unicode="ff" horiz-adv-x="560" 
d="M51 567h-31l1 133h30v50q0 118 118 118q56 0 90 -14v-108q-10 3 -16 3q-14 0 -18 -10t-4 -30v-9h38v-135h-34v-565h-174v567zM331 567h-31l1 133h30v50q0 118 118 118q56 0 90 -14v-108q-10 3 -16 3q-14 0 -18 -10t-4 -30v-9h38v-135h-34v-565h-174v567z" />
    <glyph glyph-name="f_f_i" unicode="ffi" horiz-adv-x="803" 
d="M51 567h-31l1 133h30v50q0 118 118 118q56 0 90 -14v-108q-10 3 -16 3q-14 0 -18 -10t-4 -30v-9h38v-135h-34v-565h-174v567zM331 567h-31l1 133h30v50q0 118 118 118q56 0 90 -14v-108q-10 3 -16 3q-14 0 -18 -10t-4 -30v-9h38v-135h-34v-565h-174v567zM594 781v122h175
v-122h-175zM594 0v732h175v-732h-175z" />
    <glyph glyph-name="f_f_l" unicode="ffl" horiz-adv-x="808" 
d="M51 567h-31l1 133h30v50q0 118 118 118q56 0 90 -14v-108q-10 3 -16 3q-14 0 -18 -10t-4 -30v-9h38v-135h-34v-565h-174v567zM331 567h-31l1 133h30v50q0 118 118 118q56 0 90 -14v-108q-10 3 -16 3q-14 0 -18 -10t-4 -30v-9h38v-135h-34v-565h-174v567zM595 0v864h178
v-864h-178z" />
    <glyph glyph-name="fi" unicode="fi" horiz-adv-x="523" 
d="M51 567h-31l1 133h30v50q0 118 118 118q56 0 90 -14v-108q-10 3 -16 3q-14 0 -18 -10t-4 -30v-9h38v-135h-34v-565h-174v567zM314 781v122h175v-122h-175zM314 0v732h175v-732h-175z" />
    <glyph glyph-name="fl" unicode="fl" horiz-adv-x="528" 
d="M51 567h-31l1 133h30v50q0 118 118 118q56 0 90 -14v-108q-10 3 -16 3q-14 0 -18 -10t-4 -30v-9h38v-135h-34v-565h-174v567zM315 0v864h178v-864h-178z" />
    <glyph glyph-name=".notdef" horiz-adv-x="263" 
 />
    <glyph glyph-name="NULL" 
 />
    <glyph glyph-name="NULL" 
 />
    <glyph glyph-name="nonmarkingreturn" unicode="&#xd;" horiz-adv-x="234" 
 />
    <glyph glyph-name="space" unicode=" " horiz-adv-x="234" 
 />
    <glyph glyph-name="A" unicode="A" horiz-adv-x="485" 
d="M15 0l83 859h291l82 -859h-163l-12 139h-104l-10 -139h-167zM205 276h78l-38 437h-8z" />
    <glyph glyph-name="Aacute" unicode="&#xc1;" horiz-adv-x="485" 
d="M15 0l83 859h291l82 -859h-163l-12 139h-104l-10 -139h-167zM205 276h78l-38 437h-8zM126 885v109l232 107v-170z" />
    <glyph glyph-name="Abreve" unicode="&#x102;" horiz-adv-x="485" 
d="M15 0l83 859h291l82 -859h-163l-12 139h-104l-10 -139h-167zM205 276h78l-38 437h-8zM103 941.5q-51 37.5 -51 114.5q0 7 2 21l125 -1q0 -28 14.5 -42t51.5 -14q36 0 51 14t15 42l125 1l1 -17q0 -79 -51 -117.5t-142 -38.5q-90 0 -141 37.5z" />
    <glyph glyph-name="uni1EAE" unicode="&#x1eae;" horiz-adv-x="485" 
d="M15 0l83 859h291l82 -859h-163l-12 139h-104l-10 -139h-167zM205 276h78l-38 437h-8zM161 1055v51l183 92v-112zM156.5 910.5q-36.5 16.5 -56.5 43.5t-20 56q0 14 1 21l93 -1q0 -31 15 -46t51 -15t50.5 15t14.5 46l98 1q1 -8 1 -17q0 -31 -20 -58.5t-57.5 -44.5
t-86.5 -17q-47 0 -83.5 16.5z" />
    <glyph glyph-name="uni1EB6" unicode="&#x1eb6;" horiz-adv-x="485" 
d="M15 0l83 859h291l82 -859h-163l-12 139h-104l-10 -139h-167zM205 276h78l-38 437h-8zM156 -194v146h175v-146h-175zM101 938q-51 34 -51 104q0 6 2 20h125q0 -31 14.5 -46t50.5 -15q37 0 51.5 15t14.5 46h125q1 -8 1 -17q0 -72 -50.5 -106.5t-141.5 -34.5q-90 0 -141 34z
" />
    <glyph glyph-name="uni1EB0" unicode="&#x1eb0;" horiz-adv-x="485" 
d="M15 0l83 859h291l82 -859h-163l-12 139h-104l-10 -139h-167zM205 276h78l-38 437h-8zM344 1055l-183 31v112l183 -92v-51zM156.5 910.5q-36.5 16.5 -56.5 43.5t-20 56q0 14 1 21l93 -1q0 -31 15 -46t51 -15t50.5 15t14.5 46l98 1q1 -8 1 -17q0 -31 -20 -58.5t-57.5 -44.5
t-86.5 -17q-47 0 -83.5 16.5z" />
    <glyph glyph-name="uni1EB2" unicode="&#x1eb2;" horiz-adv-x="485" 
d="M15 0l83 859h291l82 -859h-163l-12 139h-104l-10 -139h-167zM205 276h78l-38 437h-8zM249 1117q0 29 -30 29q-13 0 -28 -5v54q27 11 56 11q38 0 59 -19.5t21 -53.5q0 -69 -82 -93l-32 37q36 13 36 40zM156.5 910.5q-36.5 16.5 -56.5 43.5t-20 56q0 14 1 21l93 -1
q0 -31 15 -46t51 -15t50.5 15t14.5 46l98 1q1 -8 1 -17q0 -31 -20 -58.5t-57.5 -44.5t-86.5 -17q-47 0 -83.5 16.5z" />
    <glyph glyph-name="uni1EB4" unicode="&#x1eb4;" horiz-adv-x="485" 
d="M15 0l83 859h291l82 -859h-163l-12 139h-104l-10 -139h-167zM205 276h78l-38 437h-8zM281 1066q-13 4 -34 13q-18 8 -30 12t-24 4q-26 0 -41 -25l-55 28q17 39 34.5 58t50.5 19q15 0 27.5 -4t35.5 -13q19 -8 30 -12t24 -4t22 6t19 21l61 -19q-17 -44 -35.5 -66t-56.5 -22
q-15 0 -28 4zM156.5 910.5q-36.5 16.5 -56.5 43.5t-20 56q0 14 1 21l93 -1q0 -31 15 -46t51 -15t50.5 15t14.5 46l98 1q1 -8 1 -17q0 -31 -20 -58.5t-57.5 -44.5t-86.5 -17q-47 0 -83.5 16.5z" />
    <glyph glyph-name="Acircumflex" unicode="&#xc2;" horiz-adv-x="485" 
d="M15 0l83 859h291l82 -859h-163l-12 139h-104l-10 -139h-167zM205 276h78l-38 437h-8zM25 904l117 197h199l118 -197h-175l-42 139l-42 -139h-175z" />
    <glyph glyph-name="uni1EA4" unicode="&#x1ea4;" horiz-adv-x="485" 
d="M15 0l83 859h291l82 -859h-163l-12 139h-104l-10 -139h-167zM205 276h78l-38 437h-8zM383 977l56 99h150l-92 -99h-114zM54 897l116 125h144l116 -125l-140 1l-48 66l-48 -66z" />
    <glyph glyph-name="uni1EAC" unicode="&#x1eac;" horiz-adv-x="485" 
d="M15 0l83 859h291l82 -859h-163l-12 139h-104l-10 -139h-167zM205 276h78l-38 437h-8zM156 -194v146h175v-146h-175zM25 909l117 162h200l117 -162h-175l-42 105l-42 -105h-175z" />
    <glyph glyph-name="uni1EA6" unicode="&#x1ea6;" horiz-adv-x="485" 
d="M15 0l83 859h291l82 -859h-163l-12 139h-104l-10 -139h-167zM205 276h78l-38 437h-8zM530 977h-114l-92 99h150zM54 897l116 125h144l116 -125l-140 1l-48 66l-48 -66z" />
    <glyph glyph-name="uni1EA8" unicode="&#x1ea8;" horiz-adv-x="485" 
d="M15 0l83 859h291l82 -859h-163l-12 139h-104l-10 -139h-167zM205 276h78l-38 437h-8zM427 1034q0 29 -31 29q-14 0 -27 -5v54q27 11 56 11q38 0 59 -19.5t21 -53.5q0 -69 -82 -93l-33 37q37 13 37 40zM54 897l116 125h144l116 -125l-140 1l-48 66l-48 -66z" />
    <glyph glyph-name="uni1EAA" unicode="&#x1eaa;" horiz-adv-x="485" 
d="M15 0l83 859h291l82 -859h-163l-12 139h-104l-10 -139h-167zM205 276h78l-38 437h-8zM273.5 1050q-12.5 4 -35.5 13q-18 8 -30 12t-24 4q-25 0 -41 -25l-54 29q16 38 33.5 57.5t50.5 19.5q16 0 30.5 -4.5t32.5 -13.5q19 -8 30 -12t24 -4t22.5 6.5t18.5 21.5l61 -20
q-17 -44 -35.5 -66t-55.5 -22q-15 0 -27.5 4zM54 897l116 125h144l116 -125l-140 1l-48 66l-48 -66z" />
    <glyph glyph-name="uni0200" unicode="&#x200;" horiz-adv-x="485" 
d="M15 0l83 859h291l82 -859h-163l-12 139h-104l-10 -139h-167zM205 276h78l-38 437h-8zM136 901l-141 210l114 53l108 -234zM284 901l-122 210l113 53l90 -234z" />
    <glyph glyph-name="Adieresis" unicode="&#xc4;" horiz-adv-x="485" 
d="M15 0l83 859h291l82 -859h-163l-12 139h-104l-10 -139h-167zM205 276h78l-38 437h-8zM33 908v145h175v-145h-175zM270 908v145h174v-145h-174z" />
    <glyph glyph-name="uni1EA0" unicode="&#x1ea0;" horiz-adv-x="485" 
d="M15 0l83 859h291l82 -859h-163l-12 139h-104l-10 -139h-167zM205 276h78l-38 437h-8zM156 -194v146h175v-146h-175z" />
    <glyph glyph-name="Agrave" unicode="&#xc0;" horiz-adv-x="485" 
d="M15 0l83 859h291l82 -859h-163l-12 139h-104l-10 -139h-167zM205 276h78l-38 437h-8zM358 885l-232 46v170l232 -107v-109z" />
    <glyph glyph-name="uni1EA2" unicode="&#x1ea2;" horiz-adv-x="485" 
d="M15 0l83 859h291l82 -859h-163l-12 139h-104l-10 -139h-167zM205 276h78l-38 437h-8zM176 958q29 11 44 25.5t15 37.5q0 46 -50 46q-24 0 -44 -7v88q45 16 90 16q61 0 95.5 -31t34.5 -86q0 -109 -133 -150z" />
    <glyph glyph-name="uni0202" unicode="&#x202;" horiz-adv-x="485" 
d="M15 0l83 859h291l82 -859h-163l-12 139h-104l-10 -139h-167zM205 276h78l-38 437h-8zM59 932q0 78 47 115t135 37q90 0 136.5 -37.5t46.5 -117.5q0 -10 -1 -17h-115q0 32 -18 49t-48 17t-48 -17t-18 -49h-115q-2 14 -2 20z" />
    <glyph glyph-name="Amacron" unicode="&#x100;" horiz-adv-x="485" 
d="M15 0l83 859h291l82 -859h-163l-12 139h-104l-10 -139h-167zM205 276h78l-38 437h-8zM81 918v74h318v-74h-318z" />
    <glyph glyph-name="Aogonek" unicode="&#x104;" horiz-adv-x="485" 
d="M15 0l83 859h291l82 -859h-163l-12 139h-104l-10 -139h-167zM205 276h78l-38 437h-8zM293 -290q-39 18 -62 51t-23 78q0 89 129 161h103l-18 -21q-31 -37 -45.5 -61t-14.5 -54q0 -27 14.5 -41t41.5 -14q24 0 57 11v-109q-45 -19 -97 -19q-46 0 -85 18z" />
    <glyph glyph-name="Aring" unicode="&#xc5;" horiz-adv-x="485" 
d="M15 0l83 859h291l82 -859h-163l-12 139h-104l-10 -139h-167zM205 276h78l-38 437h-8zM116 942.5q-47 44.5 -47 121.5t47 121t126 44t126 -44t47 -121t-47 -121.5t-126 -44.5t-126 44.5zM293 1009q19 22 19 55t-19 54.5t-51 21.5q-31 0 -50 -22t-19 -54q0 -33 19 -55
t50 -22q32 0 51 22z" />
    <glyph glyph-name="Aringacute" unicode="&#x1fa;" horiz-adv-x="485" 
d="M15 0l83 859h291l82 -859h-163l-12 139h-104l-10 -139h-167zM205 276h78l-38 437h-8zM116.5 939.5q-46.5 41.5 -46.5 114.5q0 72 47 113.5t125 41.5q79 0 126 -42t47 -113q0 -72 -47 -114t-126 -42t-125.5 41.5zM293 1006q19 19 19 48t-19 48t-51 19q-31 0 -50 -19
t-19 -48t19 -48t50 -19q32 0 51 19zM126 1227v95l232 82v-140z" />
    <glyph glyph-name="Atilde" unicode="&#xc3;" horiz-adv-x="485" 
d="M15 0l83 859h291l82 -859h-163l-12 139h-104l-10 -139h-167zM205 276h78l-38 437h-8zM271.5 921q-23.5 7 -56.5 20q-16 7 -31 12t-26 5q-29 0 -45 -33l-73 38q22 54 47.5 81.5t73.5 27.5q26 0 47 -6t55 -19q36 -16 54 -16q28 0 46 36l81 -26q-15 -42 -28.5 -67.5
t-36 -42.5t-56.5 -17q-28 0 -51.5 7z" />
    <glyph glyph-name="AE" unicode="&#xc6;" horiz-adv-x="640" 
d="M-21 0l156 859h475v-151h-140v-196h133v-146h-133v-214h151v-152h-317v234h-101l-38 -234h-186zM226 375h76v338h-28z" />
    <glyph glyph-name="AEacute" unicode="&#x1fc;" horiz-adv-x="640" 
d="M-21 0l156 859h475v-151h-140v-196h133v-146h-133v-214h151v-152h-317v234h-101l-38 -234h-186zM226 375h76v338h-28zM272 885v109l232 107v-170z" />
    <glyph glyph-name="B" unicode="B" horiz-adv-x="479" 
d="M38 859h233q94 0 136.5 -46t42.5 -150v-38q0 -123 -88 -147q54 -14 76 -65t22 -135q0 -137 -41 -207.5t-148 -70.5h-233v859zM241 536q22 0 30 16.5t8 46.5v86q0 42 -37 42h-36v-191h35zM290 215v107q0 39 -11.5 59t-40.5 20h-32v-249l17 -1q67 0 67 64z" />
    <glyph glyph-name="C" unicode="C" horiz-adv-x="474" 
d="M87.5 51q-56.5 59 -56.5 162v396q0 128 51 193t160 65q95 0 153 -52t58 -150v-148h-171v127q0 37 -9 51t-31 14q-23 0 -31.5 -16t-8.5 -47v-431q0 -34 10 -49.5t30 -15.5q40 0 40 65v155h173v-162q0 -216 -217 -216q-94 0 -150.5 59z" />
    <glyph glyph-name="Cacute" unicode="&#x106;" horiz-adv-x="474" 
d="M87.5 51q-56.5 59 -56.5 162v396q0 128 51 193t160 65q95 0 153 -52t58 -150v-148h-171v127q0 37 -9 51t-31 14q-23 0 -31.5 -16t-8.5 -47v-431q0 -34 10 -49.5t30 -15.5q40 0 40 65v155h173v-162q0 -216 -217 -216q-94 0 -150.5 59zM125 885v109l232 107v-170z" />
    <glyph glyph-name="Ccaron" unicode="&#x10c;" horiz-adv-x="474" 
d="M87.5 51q-56.5 59 -56.5 162v396q0 128 51 193t160 65q95 0 153 -52t58 -150v-148h-171v127q0 37 -9 51t-31 14q-23 0 -31.5 -16t-8.5 -47v-431q0 -34 10 -49.5t30 -15.5q40 0 40 65v155h173v-162q0 -216 -217 -216q-94 0 -150.5 59zM142 904l-117 197h175l42 -140
l42 140h175l-118 -197h-199z" />
    <glyph glyph-name="Ccedilla" unicode="&#xc7;" horiz-adv-x="474" 
d="M455 370v-162q0 -195 -177 -214q45 -41 69.5 -89.5t24.5 -93.5q0 -53 -36.5 -86t-109.5 -33q-50 0 -97 19v109q31 -11 58 -11q57 0 57 58q0 26 -12.5 59.5t-35.5 68.5q-76 13 -120.5 70t-44.5 148v396q0 128 51 193t160 65q95 0 153 -52t58 -150v-148h-171v127
q0 37 -9 51t-31 14q-23 0 -31.5 -16t-8.5 -47v-431q0 -34 10 -49.5t30 -15.5q40 0 40 65v155h173z" />
    <glyph glyph-name="Ccircumflex" unicode="&#x108;" horiz-adv-x="474" 
d="M87.5 51q-56.5 59 -56.5 162v396q0 128 51 193t160 65q95 0 153 -52t58 -150v-148h-171v127q0 37 -9 51t-31 14q-23 0 -31.5 -16t-8.5 -47v-431q0 -34 10 -49.5t30 -15.5q40 0 40 65v155h173v-162q0 -216 -217 -216q-94 0 -150.5 59zM25 904l117 197h199l118 -197h-175
l-42 139l-42 -139h-175z" />
    <glyph glyph-name="Cdotaccent" unicode="&#x10a;" horiz-adv-x="474" 
d="M87.5 51q-56.5 59 -56.5 162v396q0 128 51 193t160 65q95 0 153 -52t58 -150v-148h-171v127q0 37 -9 51t-31 14q-23 0 -31.5 -16t-8.5 -47v-431q0 -34 10 -49.5t30 -15.5q40 0 40 65v155h173v-162q0 -216 -217 -216q-94 0 -150.5 59zM155 904v146h175v-146h-175z" />
    <glyph glyph-name="D" unicode="D" horiz-adv-x="493" 
d="M38 859h237q92 0 138 -51t47 -151l2 -402q1 -127 -44 -191t-149 -64h-231v859zM241 152q47 0 47 46v443q0 29 -4.5 43.5t-16.5 19.5t-37 5h-19v-557h30z" />
    <glyph glyph-name="uni01C4" unicode="&#x1c4;" horiz-adv-x="903" 
d="M38 859h237q92 0 138 -51t47 -151l2 -402q1 -127 -44 -191t-149 -64h-231v859zM241 152q47 0 47 46v443q0 29 -4.5 43.5t-16.5 19.5t-37 5h-19v-557h30zM509 0v156l196 545h-177v158h359v-150l-201 -551h192v-158h-369zM607 904l-117 197h175l42 -140l42 140h175
l-118 -197h-199z" />
    <glyph glyph-name="Eth" unicode="&#xd0;" horiz-adv-x="493" 
d="M418 64q-45 -64 -149 -64h-231v393h-37v113h37v353h237q92 0 138 -51t47 -151l2 -402q1 -127 -44 -191zM288 641q0 29 -4.5 43.5t-16.5 19.5t-37 5h-19v-203h42v-113h-42v-241h30q47 0 47 46v443z" />
    <glyph glyph-name="Dcaron" unicode="&#x10e;" horiz-adv-x="493" 
d="M38 859h237q92 0 138 -51t47 -151l2 -402q1 -127 -44 -191t-149 -64h-231v859zM241 152q47 0 47 46v443q0 29 -4.5 43.5t-16.5 19.5t-37 5h-19v-557h30zM146 904l-117 197h175l42 -140l42 140h175l-118 -197h-199z" />
    <glyph glyph-name="Dcroat" unicode="&#x110;" horiz-adv-x="493" 
d="M418 64q-45 -64 -149 -64h-231v393h-37v113h37v353h237q92 0 138 -51t47 -151l2 -402q1 -127 -44 -191zM288 641q0 29 -4.5 43.5t-16.5 19.5t-37 5h-19v-203h42v-113h-42v-241h30q47 0 47 46v443z" />
    <glyph glyph-name="uni01C5" unicode="&#x1c5;" horiz-adv-x="879" 
d="M38 859h237q92 0 138 -51t47 -151l2 -402q1 -127 -44 -191t-149 -64h-231v859zM241 152q47 0 47 46v443q0 29 -4.5 43.5t-16.5 19.5t-37 5h-19v-557h30zM507 0v107l182 487h-174v138h355v-119l-172 -482h174v-131h-365zM606 777l-117 197h175l42 -140l42 140h175
l-118 -197h-199z" />
    <glyph glyph-name="E" unicode="E" horiz-adv-x="412" 
d="M38 0v859h344v-166h-169v-167h162v-162h-162v-197h180v-167h-355z" />
    <glyph glyph-name="Eacute" unicode="&#xc9;" horiz-adv-x="412" 
d="M38 0v859h344v-166h-169v-167h162v-162h-162v-197h180v-167h-355zM100 885v109l232 107v-170z" />
    <glyph glyph-name="Ebreve" unicode="&#x114;" horiz-adv-x="412" 
d="M38 0v859h344v-166h-169v-167h162v-162h-162v-197h180v-167h-355zM78 941.5q-51 37.5 -51 114.5q0 7 2 21l125 -1q0 -28 14.5 -42t51.5 -14q36 0 51 14t15 42l125 1l1 -17q0 -79 -51 -117.5t-142 -38.5q-90 0 -141 37.5z" />
    <glyph glyph-name="Ecaron" unicode="&#x11a;" horiz-adv-x="412" 
d="M38 0v859h344v-166h-169v-167h162v-162h-162v-197h180v-167h-355zM117 904l-117 197h175l42 -140l42 140h175l-118 -197h-199z" />
    <glyph glyph-name="Ecircumflex" unicode="&#xca;" horiz-adv-x="412" 
d="M38 0v859h344v-166h-169v-167h162v-162h-162v-197h180v-167h-355zM0 904l117 197h199l118 -197h-175l-42 139l-42 -139h-175z" />
    <glyph glyph-name="uni1EBE" unicode="&#x1ebe;" horiz-adv-x="412" 
d="M38 0v859h344v-166h-169v-167h162v-162h-162v-197h180v-167h-355zM353 977l56 99h150l-92 -99h-114zM24 897l116 125h144l116 -125l-140 1l-48 66l-48 -66z" />
    <glyph glyph-name="uni1EC6" unicode="&#x1ec6;" horiz-adv-x="412" 
d="M38 0v859h344v-166h-169v-167h162v-162h-162v-197h180v-167h-355zM129 -204v146h175v-146h-175zM-5 909l117 162h200l117 -162h-175l-42 105l-42 -105h-175z" />
    <glyph glyph-name="uni1EC0" unicode="&#x1ec0;" horiz-adv-x="412" 
d="M38 0v859h344v-166h-169v-167h162v-162h-162v-197h180v-167h-355zM500 977h-114l-92 99h150zM24 897l116 125h144l116 -125l-140 1l-48 66l-48 -66z" />
    <glyph glyph-name="uni1EC2" unicode="&#x1ec2;" horiz-adv-x="412" 
d="M38 0v859h344v-166h-169v-167h162v-162h-162v-197h180v-167h-355zM397 1034q0 29 -31 29q-14 0 -27 -5v54q27 11 56 11q38 0 59 -19.5t21 -53.5q0 -69 -82 -93l-33 37q37 13 37 40zM24 897l116 125h144l116 -125l-140 1l-48 66l-48 -66z" />
    <glyph glyph-name="uni1EC4" unicode="&#x1ec4;" horiz-adv-x="412" 
d="M38 0v859h344v-166h-169v-167h162v-162h-162v-197h180v-167h-355zM243.5 1050q-12.5 4 -35.5 13q-18 8 -30 12t-24 4q-25 0 -41 -25l-54 29q16 38 33.5 57.5t50.5 19.5q16 0 30.5 -4.5t32.5 -13.5q19 -8 30 -12t24 -4t22.5 6.5t18.5 21.5l61 -20q-17 -44 -35.5 -66
t-55.5 -22q-15 0 -27.5 4zM24 897l116 125h144l116 -125l-140 1l-48 66l-48 -66z" />
    <glyph glyph-name="uni0204" unicode="&#x204;" horiz-adv-x="412" 
d="M38 0v859h344v-166h-169v-167h162v-162h-162v-197h180v-167h-355zM111 901l-141 210l114 53l108 -234zM259 901l-122 210l113 53l90 -234z" />
    <glyph glyph-name="Edieresis" unicode="&#xcb;" horiz-adv-x="412" 
d="M38 0v859h344v-166h-169v-167h162v-162h-162v-197h180v-167h-355zM8 908v145h175v-145h-175zM245 908v145h174v-145h-174z" />
    <glyph glyph-name="Edotaccent" unicode="&#x116;" horiz-adv-x="412" 
d="M38 0v859h344v-166h-169v-167h162v-162h-162v-197h180v-167h-355zM130 904v146h175v-146h-175z" />
    <glyph glyph-name="uni1EB8" unicode="&#x1eb8;" horiz-adv-x="412" 
d="M38 0v859h344v-166h-169v-167h162v-162h-162v-197h180v-167h-355zM129 -204v146h175v-146h-175z" />
    <glyph glyph-name="Egrave" unicode="&#xc8;" horiz-adv-x="412" 
d="M38 0v859h344v-166h-169v-167h162v-162h-162v-197h180v-167h-355zM333 885l-232 46v170l232 -107v-109z" />
    <glyph glyph-name="uni1EBA" unicode="&#x1eba;" horiz-adv-x="412" 
d="M38 0v859h344v-166h-169v-167h162v-162h-162v-197h180v-167h-355zM146 958q29 11 44 25.5t15 37.5q0 46 -50 46q-24 0 -44 -7v88q45 16 90 16q61 0 95.5 -31t34.5 -86q0 -109 -133 -150z" />
    <glyph glyph-name="uni0206" unicode="&#x206;" horiz-adv-x="412" 
d="M38 0v859h344v-166h-169v-167h162v-162h-162v-197h180v-167h-355zM34 932q0 78 47 115t135 37q90 0 136.5 -37.5t46.5 -117.5q0 -10 -1 -17h-115q0 32 -18 49t-48 17t-48 -17t-18 -49h-115q-2 14 -2 20z" />
    <glyph glyph-name="Emacron" unicode="&#x112;" horiz-adv-x="412" 
d="M38 0v859h344v-166h-169v-167h162v-162h-162v-197h180v-167h-355zM56 918v74h318v-74h-318z" />
    <glyph glyph-name="Eogonek" unicode="&#x118;" horiz-adv-x="412" 
d="M38 0v859h344v-166h-169v-167h162v-162h-162v-197h180v-167h-355zM140 -290q-39 18 -62 51t-23 78q0 89 129 161h103l-18 -21q-31 -37 -45.5 -61t-14.5 -54q0 -27 14.5 -41t41.5 -14q24 0 57 11v-109q-45 -19 -97 -19q-46 0 -85 18z" />
    <glyph glyph-name="uni1EBC" unicode="&#x1ebc;" horiz-adv-x="412" 
d="M38 0v859h344v-166h-169v-167h162v-162h-162v-197h180v-167h-355zM246.5 921q-23.5 7 -56.5 20q-16 7 -31 12t-26 5q-29 0 -45 -33l-73 38q22 54 47.5 81.5t73.5 27.5q26 0 47 -6t55 -19q36 -16 54 -16q28 0 46 36l81 -26q-15 -42 -28.5 -67.5t-36 -42.5t-56.5 -17
q-28 0 -51.5 7z" />
    <glyph glyph-name="F" unicode="F" horiz-adv-x="399" 
d="M38 0v859h344v-167h-171v-137h162v-165h-162v-390h-173z" />
    <glyph glyph-name="G" unicode="G" horiz-adv-x="485" 
d="M76.5 57.5q-45.5 65.5 -45.5 198.5v370q0 119 53 180t158 61q85 0 132 -34t65 -99t18 -167h-168v77q0 31 -8.5 48t-30.5 17q-49 0 -49 -64v-416q0 -39 10 -59t35 -20t35 20t10 59v123h-46v148h210v-500h-69l-29 72q-46 -80 -142 -80q-93 0 -138.5 65.5z" />
    <glyph glyph-name="Gbreve" unicode="&#x11e;" horiz-adv-x="485" 
d="M76.5 57.5q-45.5 65.5 -45.5 198.5v370q0 119 53 180t158 61q85 0 132 -34t65 -99t18 -167h-168v77q0 31 -8.5 48t-30.5 17q-49 0 -49 -64v-416q0 -39 10 -59t35 -20t35 20t10 59v123h-46v148h210v-500h-69l-29 72q-46 -80 -142 -80q-93 0 -138.5 65.5zM103 941.5
q-51 37.5 -51 114.5q0 7 2 21l125 -1q0 -28 14.5 -42t51.5 -14q36 0 51 14t15 42l125 1l1 -17q0 -79 -51 -117.5t-142 -38.5q-90 0 -141 37.5z" />
    <glyph glyph-name="Gcaron" unicode="&#x1e6;" horiz-adv-x="485" 
d="M76.5 57.5q-45.5 65.5 -45.5 198.5v370q0 119 53 180t158 61q85 0 132 -34t65 -99t18 -167h-168v77q0 31 -8.5 48t-30.5 17q-49 0 -49 -64v-416q0 -39 10 -59t35 -20t35 20t10 59v123h-46v148h210v-500h-69l-29 72q-46 -80 -142 -80q-93 0 -138.5 65.5zM142 904l-117 197
h175l42 -140l42 140h175l-118 -197h-199z" />
    <glyph glyph-name="Gcircumflex" unicode="&#x11c;" horiz-adv-x="485" 
d="M76.5 57.5q-45.5 65.5 -45.5 198.5v370q0 119 53 180t158 61q85 0 132 -34t65 -99t18 -167h-168v77q0 31 -8.5 48t-30.5 17q-49 0 -49 -64v-416q0 -39 10 -59t35 -20t35 20t10 59v123h-46v148h210v-500h-69l-29 72q-46 -80 -142 -80q-93 0 -138.5 65.5zM25 904l117 197
h199l118 -197h-175l-42 139l-42 -139h-175z" />
    <glyph glyph-name="Gcommaaccent" unicode="&#x122;" horiz-adv-x="485" 
d="M76.5 57.5q-45.5 65.5 -45.5 198.5v370q0 119 53 180t158 61q85 0 132 -34t65 -99t18 -167h-168v77q0 31 -8.5 48t-30.5 17q-49 0 -49 -64v-416q0 -39 10 -59t35 -20t35 20t10 59v123h-46v148h210v-500h-69l-29 72q-46 -80 -142 -80q-93 0 -138.5 65.5zM179 -314l32 115
h-62v146h182v-141l-49 -120h-103z" />
    <glyph glyph-name="Gdotaccent" unicode="&#x120;" horiz-adv-x="485" 
d="M76.5 57.5q-45.5 65.5 -45.5 198.5v370q0 119 53 180t158 61q85 0 132 -34t65 -99t18 -167h-168v77q0 31 -8.5 48t-30.5 17q-49 0 -49 -64v-416q0 -39 10 -59t35 -20t35 20t10 59v123h-46v148h210v-500h-69l-29 72q-46 -80 -142 -80q-93 0 -138.5 65.5zM155 904v146h175
v-146h-175z" />
    <glyph glyph-name="H" unicode="H" horiz-adv-x="499" 
d="M38 0v859h171v-307h81v307h171v-859h-171v390h-81v-390h-171z" />
    <glyph glyph-name="Hbar" unicode="&#x126;" horiz-adv-x="483" 
d="M504 732v-77h-43v-655h-171v390h-81v-390h-171v655h-52v77h52v127h171v-127h81v127h171v-127h43zM290 552v103h-81v-103h81z" />
    <glyph glyph-name="Hcircumflex" unicode="&#x124;" horiz-adv-x="499" 
d="M38 0v859h171v-307h81v307h171v-859h-171v390h-81v-390h-171zM33 904l117 197h199l118 -197h-175l-42 139l-42 -139h-175z" />
    <glyph glyph-name="I" unicode="I" horiz-adv-x="227" 
d="M30 0v859h166v-859h-166z" />
    <glyph glyph-name="IJ" unicode="&#x132;" horiz-adv-x="693" 
d="M30 0v859h166v-859h-166zM349 15q-48 23 -75.5 67.5t-27.5 107.5v215h169v-205q0 -23 9.5 -36.5t29.5 -13.5q19 0 28.5 12.5t9.5 35.5v661h173v-644q0 -67 -26.5 -117.5t-74 -78t-108.5 -27.5q-59 0 -107 23z" />
    <glyph glyph-name="Iacute" unicode="&#xcd;" horiz-adv-x="227" 
d="M30 0v859h166v-859h-166zM-3 885v109l232 107v-170z" />
    <glyph glyph-name="Ibreve" unicode="&#x12c;" horiz-adv-x="227" 
d="M30 0v859h166v-859h-166zM-26 941.5q-51 37.5 -51 114.5q0 7 2 21l125 -1q0 -28 14.5 -42t51.5 -14q36 0 51 14t15 42l125 1l1 -17q0 -79 -51 -117.5t-142 -38.5q-90 0 -141 37.5z" />
    <glyph glyph-name="Icircumflex" unicode="&#xce;" horiz-adv-x="227" 
d="M30 0v859h166v-859h-166zM-104 904l117 197h199l118 -197h-175l-42 139l-42 -139h-175z" />
    <glyph glyph-name="uni0208" unicode="&#x208;" horiz-adv-x="227" 
d="M30 0v859h166v-859h-166zM7 901l-141 210l114 53l108 -234zM155 901l-122 210l113 53l90 -234z" />
    <glyph glyph-name="Idieresis" unicode="&#xcf;" horiz-adv-x="227" 
d="M30 0v859h166v-859h-166zM-96 908v145h175v-145h-175zM141 908v145h174v-145h-174z" />
    <glyph glyph-name="Idotaccent" unicode="&#x130;" horiz-adv-x="227" 
d="M30 0v859h166v-859h-166zM26 904v146h175v-146h-175z" />
    <glyph glyph-name="uni1ECA" unicode="&#x1eca;" horiz-adv-x="227" 
d="M30 0v859h166v-859h-166zM26 -204v146h175v-146h-175z" />
    <glyph glyph-name="Igrave" unicode="&#xcc;" horiz-adv-x="227" 
d="M30 0v859h166v-859h-166zM229 885l-232 46v170l232 -107v-109z" />
    <glyph glyph-name="uni1EC8" unicode="&#x1ec8;" horiz-adv-x="227" 
d="M30 0v859h166v-859h-166zM47 958q29 11 44 25.5t15 37.5q0 46 -50 46q-24 0 -44 -7v88q45 16 90 16q61 0 95.5 -31t34.5 -86q0 -109 -133 -150z" />
    <glyph glyph-name="uni020A" unicode="&#x20a;" horiz-adv-x="227" 
d="M30 0v859h166v-859h-166zM-70 932q0 78 47 115t135 37q90 0 136.5 -37.5t46.5 -117.5q0 -10 -1 -17h-115q0 32 -18 49t-48 17t-48 -17t-18 -49h-115q-2 14 -2 20z" />
    <glyph glyph-name="Imacron" unicode="&#x12a;" horiz-adv-x="227" 
d="M30 0v859h166v-859h-166zM-48 918v74h318v-74h-318z" />
    <glyph glyph-name="Iogonek" unicode="&#x12e;" horiz-adv-x="227" 
d="M30 0v859h166v-859h-166zM49 -290q-39 18 -62 51t-23 78q0 89 129 161h103l-18 -21q-31 -37 -45.5 -61t-14.5 -54q0 -27 14.5 -41t41.5 -14q24 0 57 11v-109q-45 -19 -97 -19q-46 0 -85 18z" />
    <glyph glyph-name="Itilde" unicode="&#x128;" horiz-adv-x="227" 
d="M30 0v859h166v-859h-166zM142.5 921q-23.5 7 -56.5 20q-16 7 -31 12t-26 5q-29 0 -45 -33l-73 38q22 54 47.5 81.5t73.5 27.5q26 0 47 -6t55 -19q36 -16 54 -16q28 0 46 36l81 -26q-15 -42 -28.5 -67.5t-36 -42.5t-56.5 -17q-28 0 -51.5 7z" />
    <glyph glyph-name="J" unicode="J" horiz-adv-x="466" 
d="M122 15q-48 23 -75.5 67.5t-27.5 107.5v215h169v-205q0 -23 9.5 -36.5t29.5 -13.5q19 0 28.5 12.5t9.5 35.5v661h173v-644q0 -67 -26.5 -117.5t-74 -78t-108.5 -27.5q-59 0 -107 23z" />
    <glyph glyph-name="Jcircumflex" unicode="&#x134;" horiz-adv-x="466" 
d="M122 15q-48 23 -75.5 67.5t-27.5 107.5v215h169v-205q0 -23 9.5 -36.5t29.5 -13.5q19 0 28.5 12.5t9.5 35.5v661h173v-644q0 -67 -26.5 -117.5t-74 -78t-108.5 -27.5q-59 0 -107 23zM135 904l117 197h199l118 -197h-175l-42 139l-42 -139h-175z" />
    <glyph glyph-name="K" unicode="K" horiz-adv-x="472" 
d="M38 0v859h170v-344l80 344h173l-96 -393l116 -466h-178l-94 416v-416h-171z" />
    <glyph glyph-name="Kcommaaccent" unicode="&#x136;" horiz-adv-x="472" 
d="M38 0v859h170v-344l80 344h173l-96 -393l116 -466h-178l-94 416v-416h-171zM188 -314l32 115h-62v146h182v-141l-49 -120h-103z" />
    <glyph glyph-name="L" unicode="L" horiz-adv-x="397" 
d="M38 0v859h172v-713h177v-146h-349z" />
    <glyph glyph-name="uni01C7" unicode="&#x1c7;" horiz-adv-x="863" 
d="M38 0v859h172v-713h177v-146h-349zM519 15q-48 23 -75.5 67.5t-27.5 107.5v215h169v-205q0 -23 9.5 -36.5t29.5 -13.5q19 0 28.5 12.5t9.5 35.5v661h173v-644q0 -67 -26.5 -117.5t-74 -78t-108.5 -27.5q-59 0 -107 23z" />
    <glyph glyph-name="Lacute" unicode="&#x139;" horiz-adv-x="397" 
d="M38 0v859h172v-713h177v-146h-349zM7 885v109l232 107v-170z" />
    <glyph glyph-name="Lcaron" unicode="&#x13d;" horiz-adv-x="397" 
d="M38 0v859h172v-713h177v-146h-349zM281 606l32 116h-62v145h183v-141l-50 -120h-103z" />
    <glyph glyph-name="Lcommaaccent" unicode="&#x13b;" horiz-adv-x="397" 
d="M38 0v859h172v-713h177v-146h-349zM144 -314l32 115h-62v146h182v-141l-49 -120h-103z" />
    <glyph glyph-name="Ldot" unicode="&#x13f;" horiz-adv-x="451" 
d="M38 0v859h172v-713h177v-146h-349zM270 369v165h160v-165h-160z" />
    <glyph glyph-name="uni01C8" unicode="&#x1c8;" horiz-adv-x="660" 
d="M38 0v859h172v-713h177v-146h-349zM451 781v122h175v-122h-175zM414 -73v117q5 -2 16 -2q13 0 17 8.5t4 25.5v656h175v-651q0 -81 -33 -124t-105 -43q-57 0 -74 13z" />
    <glyph glyph-name="Lslash" unicode="&#x141;" horiz-adv-x="417" 
d="M210 146h177v-146h-349v346l-43 -19v167l43 19v346h172v-272l101 44v-167l-101 -44v-274z" />
    <glyph glyph-name="M" unicode="M" horiz-adv-x="746" 
d="M38 0v859h262l72 -524l72 524h264v-859h-157v619l-99 -619h-154l-105 619v-619h-155z" />
    <glyph glyph-name="N" unicode="N" horiz-adv-x="498" 
d="M38 0v859h177l79 -411v411h166v-859h-168l-86 430v-430h-168z" />
    <glyph glyph-name="uni01CA" unicode="&#x1ca;" horiz-adv-x="964" 
d="M38 0v859h177l79 -411v411h166v-859h-168l-86 430v-430h-168zM620 15q-48 23 -75.5 67.5t-27.5 107.5v215h169v-205q0 -23 9.5 -36.5t29.5 -13.5q19 0 28.5 12.5t9.5 35.5v661h173v-644q0 -67 -26.5 -117.5t-74 -78t-108.5 -27.5q-59 0 -107 23z" />
    <glyph glyph-name="Nacute" unicode="&#x143;" horiz-adv-x="498" 
d="M38 0v859h177l79 -411v411h166v-859h-168l-86 430v-430h-168zM142 885v109l232 107v-170z" />
    <glyph glyph-name="Ncaron" unicode="&#x147;" horiz-adv-x="498" 
d="M38 0v859h177l79 -411v411h166v-859h-168l-86 430v-430h-168zM159 904l-117 197h175l42 -140l42 140h175l-118 -197h-199z" />
    <glyph glyph-name="Ncommaaccent" unicode="&#x145;" horiz-adv-x="498" 
d="M38 0v859h177l79 -411v411h166v-859h-168l-86 430v-430h-168zM179 -314l32 115h-62v146h182v-141l-49 -120h-103z" />
    <glyph glyph-name="Eng" unicode="&#x14a;" horiz-adv-x="491" 
d="M460 859v-868q0 -116 -60.5 -172.5t-156.5 -56.5q-51 0 -106 15t-106 43l40 101q85 -36 133 -36q78 0 78 95v70l-76 380v-430h-168v859h177l79 -411v411h166z" />
    <glyph glyph-name="uni01CB" unicode="&#x1cb;" horiz-adv-x="761" 
d="M38 0v859h177l79 -411v411h166v-859h-168l-86 430v-430h-168zM552 781v122h175v-122h-175zM515 -73v117q5 -2 16 -2q13 0 17 8.5t4 25.5v656h175v-651q0 -81 -33 -124t-105 -43q-57 0 -74 13z" />
    <glyph glyph-name="Ntilde" unicode="&#xd1;" horiz-adv-x="498" 
d="M38 0v859h177l79 -411v411h166v-859h-168l-86 430v-430h-168zM288.5 921q-23.5 7 -56.5 20q-16 7 -31 12t-26 5q-29 0 -45 -33l-73 38q22 54 47.5 81.5t73.5 27.5q26 0 47 -6t55 -19q36 -16 54 -16q28 0 46 36l81 -26q-15 -42 -28.5 -67.5t-36 -42.5t-56.5 -17
q-28 0 -51.5 7z" />
    <glyph glyph-name="O" unicode="O" horiz-adv-x="486" 
d="M85 55.5q-54 63.5 -54 178.5v409q0 111 54 167.5t158 56.5t158 -56.5t54 -167.5v-409q0 -116 -54 -179t-158 -63t-158 63.5zM274 170q8 20 8 56v420q0 28 -7.5 45.5t-30.5 17.5q-43 0 -43 -65v-419q0 -37 9 -56t33 -19q23 0 31 20z" />
    <glyph glyph-name="Oacute" unicode="&#xd3;" horiz-adv-x="486" 
d="M85 55.5q-54 63.5 -54 178.5v409q0 111 54 167.5t158 56.5t158 -56.5t54 -167.5v-409q0 -116 -54 -179t-158 -63t-158 63.5zM274 170q8 20 8 56v420q0 28 -7.5 45.5t-30.5 17.5q-43 0 -43 -65v-419q0 -37 9 -56t33 -19q23 0 31 20zM127 885v109l232 107v-170z" />
    <glyph glyph-name="Obreve" unicode="&#x14e;" horiz-adv-x="486" 
d="M85 55.5q-54 63.5 -54 178.5v409q0 111 54 167.5t158 56.5t158 -56.5t54 -167.5v-409q0 -116 -54 -179t-158 -63t-158 63.5zM274 170q8 20 8 56v420q0 28 -7.5 45.5t-30.5 17.5q-43 0 -43 -65v-419q0 -37 9 -56t33 -19q23 0 31 20zM104 941.5q-51 37.5 -51 114.5
q0 7 2 21l125 -1q0 -28 14.5 -42t51.5 -14q36 0 51 14t15 42l125 1l1 -17q0 -79 -51 -117.5t-142 -38.5q-90 0 -141 37.5z" />
    <glyph glyph-name="Ocircumflex" unicode="&#xd4;" horiz-adv-x="486" 
d="M85 55.5q-54 63.5 -54 178.5v409q0 111 54 167.5t158 56.5t158 -56.5t54 -167.5v-409q0 -116 -54 -179t-158 -63t-158 63.5zM274 170q8 20 8 56v420q0 28 -7.5 45.5t-30.5 17.5q-43 0 -43 -65v-419q0 -37 9 -56t33 -19q23 0 31 20zM27 904l117 197h199l118 -197h-175
l-42 139l-42 -139h-175z" />
    <glyph glyph-name="uni1ED0" unicode="&#x1ed0;" horiz-adv-x="486" 
d="M85 55.5q-54 63.5 -54 178.5v409q0 111 54 167.5t158 56.5t158 -56.5t54 -167.5v-409q0 -116 -54 -179t-158 -63t-158 63.5zM274 170q8 20 8 56v420q0 28 -7.5 45.5t-30.5 17.5q-43 0 -43 -65v-419q0 -37 9 -56t33 -19q23 0 31 20zM384 977l56 99h150l-92 -99h-114z
M55 897l116 125h144l116 -125l-140 1l-48 66l-48 -66z" />
    <glyph glyph-name="uni1ED8" unicode="&#x1ed8;" horiz-adv-x="486" 
d="M85 55.5q-54 63.5 -54 178.5v409q0 111 54 167.5t158 56.5t158 -56.5t54 -167.5v-409q0 -116 -54 -179t-158 -63t-158 63.5zM274 170q8 20 8 56v420q0 28 -7.5 45.5t-30.5 17.5q-43 0 -43 -65v-419q0 -37 9 -56t33 -19q23 0 31 20zM156 -204v146h175v-146h-175zM26 909
l117 162h200l117 -162h-175l-42 105l-42 -105h-175z" />
    <glyph glyph-name="uni1ED2" unicode="&#x1ed2;" horiz-adv-x="486" 
d="M85 55.5q-54 63.5 -54 178.5v409q0 111 54 167.5t158 56.5t158 -56.5t54 -167.5v-409q0 -116 -54 -179t-158 -63t-158 63.5zM274 170q8 20 8 56v420q0 28 -7.5 45.5t-30.5 17.5q-43 0 -43 -65v-419q0 -37 9 -56t33 -19q23 0 31 20zM531 977h-114l-92 99h150zM55 897
l116 125h144l116 -125l-140 1l-48 66l-48 -66z" />
    <glyph glyph-name="uni1ED4" unicode="&#x1ed4;" horiz-adv-x="486" 
d="M85 55.5q-54 63.5 -54 178.5v409q0 111 54 167.5t158 56.5t158 -56.5t54 -167.5v-409q0 -116 -54 -179t-158 -63t-158 63.5zM274 170q8 20 8 56v420q0 28 -7.5 45.5t-30.5 17.5q-43 0 -43 -65v-419q0 -37 9 -56t33 -19q23 0 31 20zM428 1034q0 29 -31 29q-14 0 -27 -5v54
q27 11 56 11q38 0 59 -19.5t21 -53.5q0 -69 -82 -93l-33 37q37 13 37 40zM55 897l116 125h144l116 -125l-140 1l-48 66l-48 -66z" />
    <glyph glyph-name="uni1ED6" unicode="&#x1ed6;" horiz-adv-x="486" 
d="M85 55.5q-54 63.5 -54 178.5v409q0 111 54 167.5t158 56.5t158 -56.5t54 -167.5v-409q0 -116 -54 -179t-158 -63t-158 63.5zM274 170q8 20 8 56v420q0 28 -7.5 45.5t-30.5 17.5q-43 0 -43 -65v-419q0 -37 9 -56t33 -19q23 0 31 20zM274.5 1050q-12.5 4 -35.5 13
q-18 8 -30 12t-24 4q-25 0 -41 -25l-54 29q16 38 33.5 57.5t50.5 19.5q16 0 30.5 -4.5t32.5 -13.5q19 -8 30 -12t24 -4t22.5 6.5t18.5 21.5l61 -20q-17 -44 -35.5 -66t-55.5 -22q-15 0 -27.5 4zM55 897l116 125h144l116 -125l-140 1l-48 66l-48 -66z" />
    <glyph glyph-name="uni020C" unicode="&#x20c;" horiz-adv-x="486" 
d="M85 55.5q-54 63.5 -54 178.5v409q0 111 54 167.5t158 56.5t158 -56.5t54 -167.5v-409q0 -116 -54 -179t-158 -63t-158 63.5zM274 170q8 20 8 56v420q0 28 -7.5 45.5t-30.5 17.5q-43 0 -43 -65v-419q0 -37 9 -56t33 -19q23 0 31 20zM138 901l-141 210l114 53l108 -234z
M286 901l-122 210l113 53l90 -234z" />
    <glyph glyph-name="Odieresis" unicode="&#xd6;" horiz-adv-x="486" 
d="M85 55.5q-54 63.5 -54 178.5v409q0 111 54 167.5t158 56.5t158 -56.5t54 -167.5v-409q0 -116 -54 -179t-158 -63t-158 63.5zM274 170q8 20 8 56v420q0 28 -7.5 45.5t-30.5 17.5q-43 0 -43 -65v-419q0 -37 9 -56t33 -19q23 0 31 20zM34 908v145h175v-145h-175zM271 908
v145h174v-145h-174z" />
    <glyph glyph-name="uni022A" unicode="&#x22a;" horiz-adv-x="486" 
d="M85 55.5q-54 63.5 -54 178.5v409q0 111 54 167.5t158 56.5t158 -56.5t54 -167.5v-409q0 -116 -54 -179t-158 -63t-158 63.5zM274 170q8 20 8 56v420q0 28 -7.5 45.5t-30.5 17.5q-43 0 -43 -65v-419q0 -37 9 -56t33 -19q23 0 31 20zM37 908v121h175v-121h-175zM274 908
v121h175v-121h-175zM84 1082v74h318v-74h-318z" />
    <glyph glyph-name="uni0230" unicode="&#x230;" horiz-adv-x="486" 
d="M85 55.5q-54 63.5 -54 178.5v409q0 111 54 167.5t158 56.5t158 -56.5t54 -167.5v-409q0 -116 -54 -179t-158 -63t-158 63.5zM274 170q8 20 8 56v420q0 28 -7.5 45.5t-30.5 17.5q-43 0 -43 -65v-419q0 -37 9 -56t33 -19q23 0 31 20zM156 904v126h174v-126h-174zM84 1073
v74h318v-74h-318z" />
    <glyph glyph-name="uni1ECC" unicode="&#x1ecc;" horiz-adv-x="486" 
d="M85 55.5q-54 63.5 -54 178.5v409q0 111 54 167.5t158 56.5t158 -56.5t54 -167.5v-409q0 -116 -54 -179t-158 -63t-158 63.5zM274 170q8 20 8 56v420q0 28 -7.5 45.5t-30.5 17.5q-43 0 -43 -65v-419q0 -37 9 -56t33 -19q23 0 31 20zM156 -204v146h175v-146h-175z" />
    <glyph glyph-name="Ograve" unicode="&#xd2;" horiz-adv-x="486" 
d="M85 55.5q-54 63.5 -54 178.5v409q0 111 54 167.5t158 56.5t158 -56.5t54 -167.5v-409q0 -116 -54 -179t-158 -63t-158 63.5zM274 170q8 20 8 56v420q0 28 -7.5 45.5t-30.5 17.5q-43 0 -43 -65v-419q0 -37 9 -56t33 -19q23 0 31 20zM360 885l-232 46v170l232 -107v-109z
" />
    <glyph glyph-name="uni1ECE" unicode="&#x1ece;" horiz-adv-x="486" 
d="M85 55.5q-54 63.5 -54 178.5v409q0 111 54 167.5t158 56.5t158 -56.5t54 -167.5v-409q0 -116 -54 -179t-158 -63t-158 63.5zM274 170q8 20 8 56v420q0 28 -7.5 45.5t-30.5 17.5q-43 0 -43 -65v-419q0 -37 9 -56t33 -19q23 0 31 20zM177 958q29 11 44 25.5t15 37.5
q0 46 -50 46q-24 0 -44 -7v88q45 16 90 16q61 0 95.5 -31t34.5 -86q0 -109 -133 -150z" />
    <glyph glyph-name="Ohorn" unicode="&#x1a0;" horiz-adv-x="490" 
d="M415 794q40 -57 40 -151v-409q0 -116 -54 -179t-158 -63t-158 63.5t-54 178.5v409q0 110 54.5 167t158.5 57h37q56 0 56 61v11h136v-7q0 -95 -58 -138zM282 646q0 28 -7.5 45.5t-30.5 17.5q-43 0 -43 -65v-419q0 -37 9 -56t33 -19q23 0 31 20t8 56v420z" />
    <glyph glyph-name="uni1EDA" unicode="&#x1eda;" horiz-adv-x="490" 
d="M415 794q40 -57 40 -151v-409q0 -116 -54 -179t-158 -63t-158 63.5t-54 178.5v409q0 110 54.5 167t158.5 57h37q56 0 56 61v11h136v-7q0 -95 -58 -138zM282 646q0 28 -7.5 45.5t-30.5 17.5q-43 0 -43 -65v-419q0 -37 9 -56t33 -19q23 0 31 20t8 56v420zM128 943v95
l232 82v-140z" />
    <glyph glyph-name="uni1EE2" unicode="&#x1ee2;" horiz-adv-x="490" 
d="M415 794q40 -57 40 -151v-409q0 -116 -54 -179t-158 -63t-158 63.5t-54 178.5v409q0 110 54.5 167t158.5 57h37q56 0 56 61v11h136v-7q0 -95 -58 -138zM282 646q0 28 -7.5 45.5t-30.5 17.5q-43 0 -43 -65v-419q0 -37 9 -56t33 -19q23 0 31 20t8 56v420zM156 -204v146h175
v-146h-175z" />
    <glyph glyph-name="uni1EDC" unicode="&#x1edc;" horiz-adv-x="490" 
d="M415 794q40 -57 40 -151v-409q0 -116 -54 -179t-158 -63t-158 63.5t-54 178.5v409q0 110 54.5 167t158.5 57h37q56 0 56 61v11h136v-7q0 -95 -58 -138zM282 646q0 28 -7.5 45.5t-30.5 17.5q-43 0 -43 -65v-419q0 -37 9 -56t33 -19q23 0 31 20t8 56v420zM360 958l-232 37
v140l232 -82v-95z" />
    <glyph glyph-name="uni1EDE" unicode="&#x1ede;" horiz-adv-x="490" 
d="M415 794q40 -57 40 -151v-409q0 -116 -54 -179t-158 -63t-158 63.5t-54 178.5v409q0 110 54.5 167t158.5 57h37q56 0 56 61v11h136v-7q0 -95 -58 -138zM282 646q0 28 -7.5 45.5t-30.5 17.5q-43 0 -43 -65v-419q0 -37 9 -56t33 -19q23 0 31 20t8 56v420zM178 999
q29 11 44 25.5t15 37.5q0 46 -50 46q-24 0 -44 -7v88q45 16 90 16q61 0 95.5 -31t34.5 -86q0 -109 -133 -150z" />
    <glyph glyph-name="uni1EE0" unicode="&#x1ee0;" horiz-adv-x="490" 
d="M415 794q40 -57 40 -151v-409q0 -116 -54 -179t-158 -63t-158 63.5t-54 178.5v409q0 110 54.5 167t158.5 57h37q56 0 56 61v11h136v-7q0 -95 -58 -138zM282 646q0 28 -7.5 45.5t-30.5 17.5q-43 0 -43 -65v-419q0 -37 9 -56t33 -19q23 0 31 20t8 56v420zM273.5 987
q-23.5 7 -56.5 20q-16 7 -31 12t-26 5q-29 0 -45 -33l-73 38q22 49 47.5 74t73.5 25q26 0 47 -6t55 -19q36 -16 54 -16q14 0 25 8.5t21 28.5l81 -26q-15 -39 -28.5 -63t-36 -39.5t-56.5 -15.5q-28 0 -51.5 7z" />
    <glyph glyph-name="Ohungarumlaut" unicode="&#x150;" horiz-adv-x="486" 
d="M85 55.5q-54 63.5 -54 178.5v409q0 111 54 167.5t158 56.5t158 -56.5t54 -167.5v-409q0 -116 -54 -179t-158 -63t-158 63.5zM274 170q8 20 8 56v420q0 28 -7.5 45.5t-30.5 17.5q-43 0 -43 -65v-419q0 -37 9 -56t33 -19q23 0 31 20zM208 911l-81 29l89 233l113 -52z
M355 911l-81 29l108 233l114 -52z" />
    <glyph glyph-name="uni020E" unicode="&#x20e;" horiz-adv-x="486" 
d="M85 55.5q-54 63.5 -54 178.5v409q0 111 54 167.5t158 56.5t158 -56.5t54 -167.5v-409q0 -116 -54 -179t-158 -63t-158 63.5zM274 170q8 20 8 56v420q0 28 -7.5 45.5t-30.5 17.5q-43 0 -43 -65v-419q0 -37 9 -56t33 -19q23 0 31 20zM61 932q0 78 47 115t135 37
q90 0 136.5 -37.5t46.5 -117.5q0 -10 -1 -17h-115q0 32 -18 49t-48 17t-48 -17t-18 -49h-115q-2 14 -2 20z" />
    <glyph glyph-name="Omacron" unicode="&#x14c;" horiz-adv-x="486" 
d="M85 55.5q-54 63.5 -54 178.5v409q0 111 54 167.5t158 56.5t158 -56.5t54 -167.5v-409q0 -116 -54 -179t-158 -63t-158 63.5zM274 170q8 20 8 56v420q0 28 -7.5 45.5t-30.5 17.5q-43 0 -43 -65v-419q0 -37 9 -56t33 -19q23 0 31 20zM83 918v74h318v-74h-318z" />
    <glyph glyph-name="uni01EA" unicode="&#x1ea;" horiz-adv-x="486" 
d="M384 38q-12 -14 -17 -21q-30 -35 -45 -60t-15 -54q0 -27 14.5 -41t41.5 -14q24 0 57 11v-109q-45 -19 -97 -19q-46 0 -85 18t-62 51t-23 78q0 61 62 115q-91 9 -137.5 71t-46.5 170v409q0 111 54 167.5t158 56.5t158 -56.5t54 -167.5v-409q0 -134 -71 -196zM201 225
q0 -37 9 -56t33 -19q23 0 31 20t8 56v420q0 28 -7.5 45.5t-30.5 17.5q-43 0 -43 -65v-419z" />
    <glyph glyph-name="Oslash" unicode="&#xd8;" horiz-adv-x="482" 
d="M453 643v-409q0 -116 -54 -179t-158 -63q-56 0 -97 18l-27 -94l-54 20l31 108q-65 62 -65 190v409q0 111 54 167.5t158 56.5q44 0 82 -11l34 123l58 -17l-38 -132q76 -56 76 -187zM280 646q0 28 -7.5 45.5t-30.5 17.5q-43 0 -43 -65v-419q0 -38 8.5 -56.5t33.5 -18.5
q23 0 31 20t8 56v420z" />
    <glyph glyph-name="Oslashacute" unicode="&#x1fe;" horiz-adv-x="482" 
d="M453 643v-409q0 -116 -54 -179t-158 -63q-56 0 -97 18l-27 -94l-54 20l31 108q-65 62 -65 190v409q0 111 54 167.5t158 56.5q44 0 82 -11l34 123l58 -17l-38 -132q76 -56 76 -187zM280 646q0 28 -7.5 45.5t-30.5 17.5q-43 0 -43 -65v-419q0 -38 8.5 -56.5t33.5 -18.5
q23 0 31 20t8 56v420zM124 952v109l232 107v-170z" />
    <glyph glyph-name="Otilde" unicode="&#xd5;" horiz-adv-x="486" 
d="M85 55.5q-54 63.5 -54 178.5v409q0 111 54 167.5t158 56.5t158 -56.5t54 -167.5v-409q0 -116 -54 -179t-158 -63t-158 63.5zM274 170q8 20 8 56v420q0 28 -7.5 45.5t-30.5 17.5q-43 0 -43 -65v-419q0 -37 9 -56t33 -19q23 0 31 20zM273.5 921q-23.5 7 -56.5 20
q-16 7 -31 12t-26 5q-29 0 -45 -33l-73 38q22 54 47.5 81.5t73.5 27.5q26 0 47 -6t55 -19q36 -16 54 -16q28 0 46 36l81 -26q-15 -42 -28.5 -67.5t-36 -42.5t-56.5 -17q-28 0 -51.5 7z" />
    <glyph glyph-name="uni022C" unicode="&#x22c;" horiz-adv-x="486" 
d="M85 55.5q-54 63.5 -54 178.5v409q0 111 54 167.5t158 56.5t158 -56.5t54 -167.5v-409q0 -116 -54 -179t-158 -63t-158 63.5zM274 170q8 20 8 56v420q0 28 -7.5 45.5t-30.5 17.5q-43 0 -43 -65v-419q0 -37 9 -56t33 -19q23 0 31 20zM272.5 906q-23.5 7 -56.5 20
q-16 7 -31 12t-26 5q-29 0 -45 -33l-73 38q22 49 47.5 74t73.5 25q26 0 47 -6t55 -19q36 -16 54 -16q14 0 25 8.5t21 28.5l81 -26q-15 -39 -28.5 -63t-36 -39.5t-56.5 -15.5q-28 0 -51.5 7zM84 1087v74h318v-74h-318z" />
    <glyph glyph-name="OE" unicode="&#x152;" horiz-adv-x="649" 
d="M24 210v452q0 107 69.5 152t198.5 45h327v-151h-164v-179h157v-146h-157v-231h175v-152h-334q-272 0 -272 210zM280 152v556h-27q-28 0 -43.5 -17.5t-15.5 -48.5v-408q0 -36 14 -59t42 -23h30z" />
    <glyph glyph-name="P" unicode="P" horiz-adv-x="472" 
d="M38 859h227q103 0 147 -66.5t44 -194.5t-39 -193t-140 -65h-70v-340h-169v859zM217 495q31 0 45.5 11.5t19 33t4.5 61.5q0 54 -12 78t-48 24h-19v-208h10z" />
    <glyph glyph-name="Thorn" unicode="&#xde;" horiz-adv-x="462" 
d="M30 859h169v-119h58q106 0 148.5 -68.5t42.5 -196.5q0 -127 -37.5 -195t-141.5 -68h-70v-212h-169v859zM209 352q32 0 47 15t18.5 38.5t3.5 66.5q0 44 -3.5 69.5t-16.5 41.5t-40 16h-19v-247h10z" />
    <glyph glyph-name="Q" unicode="Q" horiz-adv-x="494" 
d="M281 -1q-38 -7 -43 -7q-104 0 -158 59.5t-54 174.5v415q0 111 54.5 168.5t157.5 57.5t157.5 -57.5t54.5 -168.5v-415q0 -106 -48 -168l74 -47l-58 -102zM270 174q7 24 7 62v402q0 33 -8.5 52t-31.5 19q-41 0 -41 -70v-406q0 -36 8 -59.5t34 -23.5q25 0 32 24z" />
    <glyph glyph-name="R" unicode="R" horiz-adv-x="477" 
d="M38 859h264q63 0 97.5 -28.5t46.5 -80t12 -131.5q0 -73 -19 -114t-66 -57q39 -8 56.5 -39t17.5 -84l-2 -325h-168v336q0 36 -14 46t-51 10v-392h-174v859zM254 541q36 0 36 78q0 34 -3 51t-11 23.5t-23 6.5h-40v-159h41z" />
    <glyph glyph-name="Racute" unicode="&#x154;" horiz-adv-x="477" 
d="M38 859h264q63 0 97.5 -28.5t46.5 -80t12 -131.5q0 -73 -19 -114t-66 -57q39 -8 56.5 -39t17.5 -84l-2 -325h-168v336q0 36 -14 46t-51 10v-392h-174v859zM254 541q36 0 36 78q0 34 -3 51t-11 23.5t-23 6.5h-40v-159h41zM117 885v109l232 107v-170z" />
    <glyph glyph-name="Rcaron" unicode="&#x158;" horiz-adv-x="477" 
d="M38 859h264q63 0 97.5 -28.5t46.5 -80t12 -131.5q0 -73 -19 -114t-66 -57q39 -8 56.5 -39t17.5 -84l-2 -325h-168v336q0 36 -14 46t-51 10v-392h-174v859zM254 541q36 0 36 78q0 34 -3 51t-11 23.5t-23 6.5h-40v-159h41zM134 904l-117 197h175l42 -140l42 140h175
l-118 -197h-199z" />
    <glyph glyph-name="Rcommaaccent" unicode="&#x156;" horiz-adv-x="477" 
d="M38 859h264q63 0 97.5 -28.5t46.5 -80t12 -131.5q0 -73 -19 -114t-66 -57q39 -8 56.5 -39t17.5 -84l-2 -325h-168v336q0 36 -14 46t-51 10v-392h-174v859zM254 541q36 0 36 78q0 34 -3 51t-11 23.5t-23 6.5h-40v-159h41zM184 -314l32 115h-62v146h182v-141l-49 -120h-103
z" />
    <glyph glyph-name="uni0210" unicode="&#x210;" horiz-adv-x="477" 
d="M38 859h264q63 0 97.5 -28.5t46.5 -80t12 -131.5q0 -73 -19 -114t-66 -57q39 -8 56.5 -39t17.5 -84l-2 -325h-168v336q0 36 -14 46t-51 10v-392h-174v859zM254 541q36 0 36 78q0 34 -3 51t-11 23.5t-23 6.5h-40v-159h41zM128 901l-141 210l114 53l108 -234zM276 901
l-122 210l113 53l90 -234z" />
    <glyph glyph-name="uni0212" unicode="&#x212;" horiz-adv-x="477" 
d="M38 859h264q63 0 97.5 -28.5t46.5 -80t12 -131.5q0 -73 -19 -114t-66 -57q39 -8 56.5 -39t17.5 -84l-2 -325h-168v336q0 36 -14 46t-51 10v-392h-174v859zM254 541q36 0 36 78q0 34 -3 51t-11 23.5t-23 6.5h-40v-159h41zM51 932q0 78 47 115t135 37q90 0 136.5 -37.5
t46.5 -117.5q0 -10 -1 -17h-115q0 32 -18 49t-48 17t-48 -17t-18 -49h-115q-2 14 -2 20z" />
    <glyph glyph-name="S" unicode="S" horiz-adv-x="461" 
d="M73 50q-52 58 -52 187v84h169v-107q0 -64 41 -64q23 0 32 13.5t9 45.5q0 42 -10 69.5t-25.5 46t-55.5 57.5l-74 74q-86 84 -86 186q0 110 50.5 167.5t147.5 57.5q116 0 167 -61.5t51 -192.5h-175l-1 59q0 17 -9.5 27t-26.5 10q-20 0 -30 -11t-10 -30q0 -42 48 -87
l100 -96q35 -34 58 -64.5t37 -72t14 -98.5q0 -127 -46.5 -192.5t-153.5 -65.5q-117 0 -169 58z" />
    <glyph glyph-name="Sacute" unicode="&#x15a;" horiz-adv-x="461" 
d="M73 50q-52 58 -52 187v84h169v-107q0 -64 41 -64q23 0 32 13.5t9 45.5q0 42 -10 69.5t-25.5 46t-55.5 57.5l-74 74q-86 84 -86 186q0 110 50.5 167.5t147.5 57.5q116 0 167 -61.5t51 -192.5h-175l-1 59q0 17 -9.5 27t-26.5 10q-20 0 -30 -11t-10 -30q0 -42 48 -87
l100 -96q35 -34 58 -64.5t37 -72t14 -98.5q0 -127 -46.5 -192.5t-153.5 -65.5q-117 0 -169 58zM112 885v109l232 107v-170z" />
    <glyph glyph-name="Scaron" unicode="&#x160;" horiz-adv-x="461" 
d="M73 50q-52 58 -52 187v84h169v-107q0 -64 41 -64q23 0 32 13.5t9 45.5q0 42 -10 69.5t-25.5 46t-55.5 57.5l-74 74q-86 84 -86 186q0 110 50.5 167.5t147.5 57.5q116 0 167 -61.5t51 -192.5h-175l-1 59q0 17 -9.5 27t-26.5 10q-20 0 -30 -11t-10 -30q0 -42 48 -87
l100 -96q35 -34 58 -64.5t37 -72t14 -98.5q0 -127 -46.5 -192.5t-153.5 -65.5q-117 0 -169 58zM129 904l-117 197h175l42 -140l42 140h175l-118 -197h-199z" />
    <glyph glyph-name="Scedilla" unicode="&#x15e;" horiz-adv-x="461" 
d="M402 67q-40 -65 -130 -74q44 -41 68.5 -89t24.5 -93q0 -53 -36.5 -86t-109.5 -33q-50 0 -97 19v109q31 -11 58 -11q57 0 57 58q0 26 -12.5 59.5t-35.5 68.5q-88 12 -128 70t-40 172v84h169v-107q0 -64 41 -64q23 0 32 13.5t9 45.5q0 42 -10 69.5t-25.5 46t-55.5 57.5
l-74 74q-86 84 -86 186q0 110 50.5 167.5t147.5 57.5q116 0 167 -61.5t51 -192.5h-175l-1 59q0 17 -9.5 27t-26.5 10q-20 0 -30 -11t-10 -30q0 -42 48 -87l100 -96q35 -34 58 -64.5t37 -72t14 -98.5q0 -118 -40 -183z" />
    <glyph glyph-name="Scircumflex" unicode="&#x15c;" horiz-adv-x="461" 
d="M73 50q-52 58 -52 187v84h169v-107q0 -64 41 -64q23 0 32 13.5t9 45.5q0 42 -10 69.5t-25.5 46t-55.5 57.5l-74 74q-86 84 -86 186q0 110 50.5 167.5t147.5 57.5q116 0 167 -61.5t51 -192.5h-175l-1 59q0 17 -9.5 27t-26.5 10q-20 0 -30 -11t-10 -30q0 -42 48 -87
l100 -96q35 -34 58 -64.5t37 -72t14 -98.5q0 -127 -46.5 -192.5t-153.5 -65.5q-117 0 -169 58zM12 904l117 197h199l118 -197h-175l-42 139l-42 -139h-175z" />
    <glyph glyph-name="Scommaaccent" unicode="&#x218;" horiz-adv-x="461" 
d="M73 50q-52 58 -52 187v84h169v-107q0 -64 41 -64q23 0 32 13.5t9 45.5q0 42 -10 69.5t-25.5 46t-55.5 57.5l-74 74q-86 84 -86 186q0 110 50.5 167.5t147.5 57.5q116 0 167 -61.5t51 -192.5h-175l-1 59q0 17 -9.5 27t-26.5 10q-20 0 -30 -11t-10 -30q0 -42 48 -87
l100 -96q35 -34 58 -64.5t37 -72t14 -98.5q0 -127 -46.5 -192.5t-153.5 -65.5q-117 0 -169 58zM165 -314l32 115h-62v146h182v-141l-49 -120h-103z" />
    <glyph glyph-name="uni1E9E" unicode="&#x1e9e;" horiz-adv-x="498" 
d="M456 427q17 -57 17 -164q0 -93 -17 -150t-58 -85t-114 -28h-51v137q70 0 70 58v135q0 40 -16 56t-56 16v107l70 200q-23 9 -50 9q-52 0 -52 -55v-663h-171v685q0 91 54.5 137t157.5 46q68 0 122.5 -18t93.5 -46v-118l-63 -182q46 -20 63 -77z" />
    <glyph glyph-name="uni018F" unicode="&#x18f;" horiz-adv-x="488" 
d="M91 44q-58 52 -58 150v241h252v209q0 34 -10 49.5t-31 15.5q-40 0 -40 -65v-113h-173v121q0 215 217 215q95 0 151 -58.5t56 -162.5v-396q0 -128 -51 -193t-160 -65q-95 0 -153 52zM276 166.5q9 16.5 9 47.5v89h-81v-87q0 -37 9.5 -51.5t30.5 -14.5q23 0 32 16.5z" />
    <glyph glyph-name="T" unicode="T" horiz-adv-x="396" 
d="M112 0v694h-102v165h376v-165h-102v-694h-172z" />
    <glyph glyph-name="Tbar" unicode="&#x166;" horiz-adv-x="396" 
d="M386 694h-102v-233h71v-74h-71v-387h-172v387h-75v74h75v233h-102v165h376v-165z" />
    <glyph glyph-name="Tcaron" unicode="&#x164;" horiz-adv-x="396" 
d="M112 0v694h-102v165h376v-165h-102v-694h-172zM98 904l-117 197h175l42 -140l42 140h175l-118 -197h-199z" />
    <glyph glyph-name="uni0162" unicode="&#x162;" horiz-adv-x="396" 
d="M112 0v694h-102v165h376v-165h-102v-694h-172zM88 -289v109q31 -11 58 -11q57 0 57 58q0 27 -13.5 62t-37.5 71h79q47 -42 73.5 -92.5t26.5 -96.5q0 -53 -36.5 -86t-109.5 -33q-50 0 -97 19z" />
    <glyph glyph-name="uni021A" unicode="&#x21a;" horiz-adv-x="396" 
d="M112 0v694h-102v165h376v-165h-102v-694h-172zM131 -314l32 115h-62v146h182v-141l-49 -120h-103z" />
    <glyph glyph-name="U" unicode="U" horiz-adv-x="474" 
d="M79.5 52q-51.5 60 -51.5 178v629h167v-622q0 -41 8 -64t34 -23t34 22.5t8 64.5v622h167v-629q0 -118 -51.5 -178t-157.5 -60t-157.5 60z" />
    <glyph glyph-name="Uacute" unicode="&#xda;" horiz-adv-x="474" 
d="M79.5 52q-51.5 60 -51.5 178v629h167v-622q0 -41 8 -64t34 -23t34 22.5t8 64.5v622h167v-629q0 -118 -51.5 -178t-157.5 -60t-157.5 60zM120 885v109l232 107v-170z" />
    <glyph glyph-name="Ubreve" unicode="&#x16c;" horiz-adv-x="474" 
d="M79.5 52q-51.5 60 -51.5 178v629h167v-622q0 -41 8 -64t34 -23t34 22.5t8 64.5v622h167v-629q0 -118 -51.5 -178t-157.5 -60t-157.5 60zM98 941.5q-51 37.5 -51 114.5q0 7 2 21l125 -1q0 -28 14.5 -42t51.5 -14q36 0 51 14t15 42l125 1l1 -17q0 -79 -51 -117.5
t-142 -38.5q-90 0 -141 37.5z" />
    <glyph glyph-name="Ucircumflex" unicode="&#xdb;" horiz-adv-x="474" 
d="M79.5 52q-51.5 60 -51.5 178v629h167v-622q0 -41 8 -64t34 -23t34 22.5t8 64.5v622h167v-629q0 -118 -51.5 -178t-157.5 -60t-157.5 60zM20 904l117 197h199l118 -197h-175l-42 139l-42 -139h-175z" />
    <glyph glyph-name="uni0214" unicode="&#x214;" horiz-adv-x="474" 
d="M79.5 52q-51.5 60 -51.5 178v629h167v-622q0 -41 8 -64t34 -23t34 22.5t8 64.5v622h167v-629q0 -118 -51.5 -178t-157.5 -60t-157.5 60zM131 901l-141 210l114 53l108 -234zM279 901l-122 210l113 53l90 -234z" />
    <glyph glyph-name="Udieresis" unicode="&#xdc;" horiz-adv-x="474" 
d="M79.5 52q-51.5 60 -51.5 178v629h167v-622q0 -41 8 -64t34 -23t34 22.5t8 64.5v622h167v-629q0 -118 -51.5 -178t-157.5 -60t-157.5 60zM28 908v145h175v-145h-175zM265 908v145h174v-145h-174z" />
    <glyph glyph-name="uni1EE4" unicode="&#x1ee4;" horiz-adv-x="474" 
d="M79.5 52q-51.5 60 -51.5 178v629h167v-622q0 -41 8 -64t34 -23t34 22.5t8 64.5v622h167v-629q0 -118 -51.5 -178t-157.5 -60t-157.5 60zM150 -204v146h175v-146h-175z" />
    <glyph glyph-name="Ugrave" unicode="&#xd9;" horiz-adv-x="474" 
d="M79.5 52q-51.5 60 -51.5 178v629h167v-622q0 -41 8 -64t34 -23t34 22.5t8 64.5v622h167v-629q0 -118 -51.5 -178t-157.5 -60t-157.5 60zM353 885l-232 46v170l232 -107v-109z" />
    <glyph glyph-name="uni1EE6" unicode="&#x1ee6;" horiz-adv-x="474" 
d="M79.5 52q-51.5 60 -51.5 178v629h167v-622q0 -41 8 -64t34 -23t34 22.5t8 64.5v622h167v-629q0 -118 -51.5 -178t-157.5 -60t-157.5 60zM171 958q29 11 44 25.5t15 37.5q0 46 -50 46q-24 0 -44 -7v88q45 16 90 16q61 0 95.5 -31t34.5 -86q0 -109 -133 -150z" />
    <glyph glyph-name="Uhorn" unicode="&#x1af;" horiz-adv-x="569" 
d="M558 932v-8q0 -69 -30 -109t-82 -52v-533q0 -118 -51.5 -178t-157.5 -60t-157.5 60t-51.5 178v629h167v-622q0 -41 8 -64t34 -23t34 22.5t8 64.5v622h87q56 0 56 61v11z" />
    <glyph glyph-name="uni1EE8" unicode="&#x1ee8;" horiz-adv-x="569" 
d="M558 932v-8q0 -69 -30 -109t-82 -52v-533q0 -118 -51.5 -178t-157.5 -60t-157.5 60t-51.5 178v629h167v-622q0 -41 8 -64t34 -23t34 22.5t8 64.5v622h87q56 0 56 61v11zM121 919v95l232 82v-140z" />
    <glyph glyph-name="uni1EF0" unicode="&#x1ef0;" horiz-adv-x="569" 
d="M558 932v-8q0 -69 -30 -109t-82 -52v-533q0 -118 -51.5 -178t-157.5 -60t-157.5 60t-51.5 178v629h167v-622q0 -41 8 -64t34 -23t34 22.5t8 64.5v622h87q56 0 56 61v11zM150 -204v146h175v-146h-175z" />
    <glyph glyph-name="uni1EEA" unicode="&#x1eea;" horiz-adv-x="569" 
d="M558 932v-8q0 -69 -30 -109t-82 -52v-533q0 -118 -51.5 -178t-157.5 -60t-157.5 60t-51.5 178v629h167v-622q0 -41 8 -64t34 -23t34 22.5t8 64.5v622h87q56 0 56 61v11zM353 919l-232 37v140l232 -82v-95z" />
    <glyph glyph-name="uni1EEC" unicode="&#x1eec;" horiz-adv-x="569" 
d="M558 932v-8q0 -69 -30 -109t-82 -52v-533q0 -118 -51.5 -178t-157.5 -60t-157.5 60t-51.5 178v629h167v-622q0 -41 8 -64t34 -23t34 22.5t8 64.5v622h87q56 0 56 61v11zM171 1000q29 11 44 25.5t15 37.5q0 46 -50 46q-24 0 -44 -7v88q45 16 90 16q61 0 95.5 -31t34.5 -86
q0 -109 -133 -150z" />
    <glyph glyph-name="uni1EEE" unicode="&#x1eee;" horiz-adv-x="569" 
d="M558 932v-8q0 -69 -30 -109t-82 -52v-533q0 -118 -51.5 -178t-157.5 -60t-157.5 60t-51.5 178v629h167v-622q0 -41 8 -64t34 -23t34 22.5t8 64.5v622h87q56 0 56 61v11zM266.5 948q-23.5 7 -56.5 20q-16 7 -31 12t-26 5q-29 0 -45 -33l-73 38q22 49 47.5 74t73.5 25
q26 0 47 -6t55 -19q36 -16 54 -16q14 0 25 8.5t21 28.5l81 -26q-15 -39 -28.5 -63t-36 -39.5t-56.5 -15.5q-28 0 -51.5 7z" />
    <glyph glyph-name="Uhungarumlaut" unicode="&#x170;" horiz-adv-x="474" 
d="M79.5 52q-51.5 60 -51.5 178v629h167v-622q0 -41 8 -64t34 -23t34 22.5t8 64.5v622h167v-629q0 -118 -51.5 -178t-157.5 -60t-157.5 60zM202 911l-81 29l89 233l113 -52zM349 911l-81 29l108 233l114 -52z" />
    <glyph glyph-name="uni0216" unicode="&#x216;" horiz-adv-x="474" 
d="M79.5 52q-51.5 60 -51.5 178v629h167v-622q0 -41 8 -64t34 -23t34 22.5t8 64.5v622h167v-629q0 -118 -51.5 -178t-157.5 -60t-157.5 60zM54 932q0 78 47 115t135 37q90 0 136.5 -37.5t46.5 -117.5q0 -10 -1 -17h-115q0 32 -18 49t-48 17t-48 -17t-18 -49h-115
q-2 14 -2 20z" />
    <glyph glyph-name="Umacron" unicode="&#x16a;" horiz-adv-x="474" 
d="M79.5 52q-51.5 60 -51.5 178v629h167v-622q0 -41 8 -64t34 -23t34 22.5t8 64.5v622h167v-629q0 -118 -51.5 -178t-157.5 -60t-157.5 60zM76 918v74h318v-74h-318z" />
    <glyph glyph-name="Uogonek" unicode="&#x172;" horiz-adv-x="474" 
d="M446 859v-629q0 -99 -35.5 -157t-109.5 -75l-15 -18q-31 -35 -46.5 -60.5t-15.5 -55.5q0 -27 14.5 -41t41.5 -14q24 0 57 11v-109q-45 -19 -97 -19q-46 0 -85 18t-62 51t-23 78q0 86 121 156q-163 25 -163 235v629h167v-622q0 -41 8 -64t34 -23t34 22.5t8 64.5v622h167z
" />
    <glyph glyph-name="Uring" unicode="&#x16e;" horiz-adv-x="474" 
d="M79.5 52q-51.5 60 -51.5 178v629h167v-622q0 -41 8 -64t34 -23t34 22.5t8 64.5v622h167v-629q0 -118 -51.5 -178t-157.5 -60t-157.5 60zM111 942.5q-47 44.5 -47 121.5t47 121t126 44t126 -44t47 -121t-47 -121.5t-126 -44.5t-126 44.5zM288 1009q19 22 19 55t-19 54.5
t-51 21.5q-31 0 -50 -22t-19 -54q0 -33 19 -55t50 -22q32 0 51 22z" />
    <glyph glyph-name="Utilde" unicode="&#x168;" horiz-adv-x="474" 
d="M79.5 52q-51.5 60 -51.5 178v629h167v-622q0 -41 8 -64t34 -23t34 22.5t8 64.5v622h167v-629q0 -118 -51.5 -178t-157.5 -60t-157.5 60zM266.5 921q-23.5 7 -56.5 20q-16 7 -31 12t-26 5q-29 0 -45 -33l-73 38q22 54 47.5 81.5t73.5 27.5q26 0 47 -6t55 -19
q36 -16 54 -16q28 0 46 36l81 -26q-15 -42 -28.5 -67.5t-36 -42.5t-56.5 -17q-28 0 -51.5 7z" />
    <glyph glyph-name="V" unicode="V" horiz-adv-x="469" 
d="M117 0l-106 860h164l63 -585l56 585h164l-106 -860h-235z" />
    <glyph glyph-name="W" unicode="W" horiz-adv-x="712" 
d="M105 0l-92 859h168l48 -542l48 542h160l46 -542l46 542h170l-94 -859h-206l-43 414l-41 -414h-210z" />
    <glyph glyph-name="Wacute" unicode="&#x1e82;" horiz-adv-x="712" 
d="M105 0l-92 859h168l48 -542l48 542h160l46 -542l46 542h170l-94 -859h-206l-43 414l-41 -414h-210zM246 885v109l232 107v-170z" />
    <glyph glyph-name="Wcircumflex" unicode="&#x174;" horiz-adv-x="712" 
d="M105 0l-92 859h168l48 -542l48 542h160l46 -542l46 542h170l-94 -859h-206l-43 414l-41 -414h-210zM146 904l117 197h199l118 -197h-175l-42 139l-42 -139h-175z" />
    <glyph glyph-name="Wdieresis" unicode="&#x1e84;" horiz-adv-x="712" 
d="M105 0l-92 859h168l48 -542l48 542h160l46 -542l46 542h170l-94 -859h-206l-43 414l-41 -414h-210zM154 908v145h175v-145h-175zM391 908v145h174v-145h-174z" />
    <glyph glyph-name="Wgrave" unicode="&#x1e80;" horiz-adv-x="712" 
d="M105 0l-92 859h168l48 -542l48 542h160l46 -542l46 542h170l-94 -859h-206l-43 414l-41 -414h-210zM479 885l-232 46v170l232 -107v-109z" />
    <glyph glyph-name="X" unicode="X" horiz-adv-x="484" 
d="M13 0l92 456l-73 404h168l45 -296l39 296h169l-74 -404l92 -456h-174l-54 336l-55 -336h-175z" />
    <glyph glyph-name="Y" unicode="Y" horiz-adv-x="446" 
d="M142 0v283l-137 576h170l48 -291l48 291h170l-137 -576v-283h-162z" />
    <glyph glyph-name="Yacute" unicode="&#xdd;" horiz-adv-x="446" 
d="M142 0v283l-137 576h170l48 -291l48 291h170l-137 -576v-283h-162zM106 885v109l232 107v-170z" />
    <glyph glyph-name="Ycircumflex" unicode="&#x176;" horiz-adv-x="446" 
d="M142 0v283l-137 576h170l48 -291l48 291h170l-137 -576v-283h-162zM6 904l117 197h199l118 -197h-175l-42 139l-42 -139h-175z" />
    <glyph glyph-name="Ydieresis" unicode="&#x178;" horiz-adv-x="446" 
d="M142 0v283l-137 576h170l48 -291l48 291h170l-137 -576v-283h-162zM13 908v145h175v-145h-175zM250 908v145h174v-145h-174z" />
    <glyph glyph-name="uni1EF4" unicode="&#x1ef4;" horiz-adv-x="446" 
d="M142 0v283l-137 576h170l48 -291l48 291h170l-137 -576v-283h-162zM136 -204v146h175v-146h-175z" />
    <glyph glyph-name="Ygrave" unicode="&#x1ef2;" horiz-adv-x="446" 
d="M142 0v283l-137 576h170l48 -291l48 291h170l-137 -576v-283h-162zM339 885l-232 46v170l232 -107v-109z" />
    <glyph glyph-name="uni1EF6" unicode="&#x1ef6;" horiz-adv-x="446" 
d="M142 0v283l-137 576h170l48 -291l48 291h170l-137 -576v-283h-162zM157 958q29 11 44 25.5t15 37.5q0 46 -50 46q-24 0 -44 -7v88q45 16 90 16q61 0 95.5 -31t34.5 -86q0 -109 -133 -150z" />
    <glyph glyph-name="uni0232" unicode="&#x232;" horiz-adv-x="446" 
d="M142 0v283l-137 576h170l48 -291l48 291h170l-137 -576v-283h-162zM62 918v74h318v-74h-318z" />
    <glyph glyph-name="uni1EF8" unicode="&#x1ef8;" horiz-adv-x="446" 
d="M142 0v283l-137 576h170l48 -291l48 291h170l-137 -576v-283h-162zM252.5 921q-23.5 7 -56.5 20q-16 7 -31 12t-26 5q-29 0 -45 -33l-73 38q22 54 47.5 81.5t73.5 27.5q26 0 47 -6t55 -19q36 -16 54 -16q28 0 46 36l81 -26q-15 -42 -28.5 -67.5t-36 -42.5t-56.5 -17
q-28 0 -51.5 7z" />
    <glyph glyph-name="Z" unicode="Z" horiz-adv-x="410" 
d="M16 0v156l196 545h-177v158h359v-150l-201 -551h192v-158h-369z" />
    <glyph glyph-name="Zacute" unicode="&#x179;" horiz-adv-x="410" 
d="M16 0v156l196 545h-177v158h359v-150l-201 -551h192v-158h-369zM97 885v109l232 107v-170z" />
    <glyph glyph-name="Zcaron" unicode="&#x17d;" horiz-adv-x="410" 
d="M16 0v156l196 545h-177v158h359v-150l-201 -551h192v-158h-369zM114 904l-117 197h175l42 -140l42 140h175l-118 -197h-199z" />
    <glyph glyph-name="Zdotaccent" unicode="&#x17b;" horiz-adv-x="410" 
d="M16 0v156l196 545h-177v158h359v-150l-201 -551h192v-158h-369zM127 904v146h175v-146h-175z" />
    <glyph glyph-name="uni01CD" unicode="&#x1cd;" horiz-adv-x="485" 
d="M15 0l83 859h291l82 -859h-163l-12 139h-104l-10 -139h-167zM205 276h78l-38 437h-8zM142 904l-117 197h175l42 -140l42 140h175l-118 -197h-199z" />
    <glyph glyph-name="uni01CF" unicode="&#x1cf;" horiz-adv-x="227" 
d="M30 0v859h166v-859h-166zM13 904l-117 197h175l42 -140l42 140h175l-118 -197h-199z" />
    <glyph glyph-name="uni01D1" unicode="&#x1d1;" horiz-adv-x="486" 
d="M85 55.5q-54 63.5 -54 178.5v409q0 111 54 167.5t158 56.5t158 -56.5t54 -167.5v-409q0 -116 -54 -179t-158 -63t-158 63.5zM274 170q8 20 8 56v420q0 28 -7.5 45.5t-30.5 17.5q-43 0 -43 -65v-419q0 -37 9 -56t33 -19q23 0 31 20zM144 904l-117 197h175l42 -140l42 140
h175l-118 -197h-199z" />
    <glyph glyph-name="uni01D3" unicode="&#x1d3;" horiz-adv-x="474" 
d="M79.5 52q-51.5 60 -51.5 178v629h167v-622q0 -41 8 -64t34 -23t34 22.5t8 64.5v622h167v-629q0 -118 -51.5 -178t-157.5 -60t-157.5 60zM137 904l-117 197h175l42 -140l42 140h175l-118 -197h-199z" />
    <glyph glyph-name="uni01E8" unicode="&#x1e8;" horiz-adv-x="472" 
d="M38 0v859h170v-344l80 344h173l-96 -393l116 -466h-178l-94 416v-416h-171zM150 904l-117 197h175l42 -140l42 140h175l-118 -197h-199z" />
    <glyph glyph-name="uni01F1" unicode="&#x1f1;" horiz-adv-x="903" 
d="M38 859h237q92 0 138 -51t47 -151l2 -402q1 -127 -44 -191t-149 -64h-231v859zM241 152q47 0 47 46v443q0 29 -4.5 43.5t-16.5 19.5t-37 5h-19v-557h30zM509 0v156l196 545h-177v158h359v-150l-201 -551h192v-158h-369z" />
    <glyph glyph-name="uni01F2" unicode="&#x1f2;" horiz-adv-x="879" 
d="M38 859h237q92 0 138 -51t47 -151l2 -402q1 -127 -44 -191t-149 -64h-231v859zM241 152q47 0 47 46v443q0 29 -4.5 43.5t-16.5 19.5t-37 5h-19v-557h30zM507 0v107l182 487h-174v138h355v-119l-172 -482h174v-131h-365z" />
    <glyph glyph-name="uni01F4" unicode="&#x1f4;" horiz-adv-x="485" 
d="M76.5 57.5q-45.5 65.5 -45.5 198.5v370q0 119 53 180t158 61q85 0 132 -34t65 -99t18 -167h-168v77q0 31 -8.5 48t-30.5 17q-49 0 -49 -64v-416q0 -39 10 -59t35 -20t35 20t10 59v123h-46v148h210v-500h-69l-29 72q-46 -80 -142 -80q-93 0 -138.5 65.5zM125 885v109
l232 107v-170z" />
    <glyph glyph-name="uni01F8" unicode="&#x1f8;" horiz-adv-x="498" 
d="M38 0v859h177l79 -411v411h166v-859h-168l-86 430v-430h-168zM375 885l-232 46v170l232 -107v-109z" />
    <glyph glyph-name="uni021E" unicode="&#x21e;" horiz-adv-x="499" 
d="M38 0v859h171v-307h81v307h171v-859h-171v390h-81v-390h-171zM150 904l-117 197h175l42 -140l42 140h175l-118 -197h-199z" />
    <glyph glyph-name="uni0226" unicode="&#x226;" horiz-adv-x="485" 
d="M15 0l83 859h291l82 -859h-163l-12 139h-104l-10 -139h-167zM205 276h78l-38 437h-8zM155 904v146h175v-146h-175z" />
    <glyph glyph-name="uni0228" unicode="&#x228;" horiz-adv-x="412" 
d="M38 0v859h344v-166h-169v-167h162v-162h-162v-197h180v-167h-355zM129 -289v109q31 -11 58 -11q57 0 57 58q0 27 -13.5 62t-37.5 71h79q47 -42 73.5 -92.5t26.5 -96.5q0 -53 -36.5 -86t-109.5 -33q-50 0 -97 19z" />
    <glyph glyph-name="uni022E" unicode="&#x22e;" horiz-adv-x="486" 
d="M85 55.5q-54 63.5 -54 178.5v409q0 111 54 167.5t158 56.5t158 -56.5t54 -167.5v-409q0 -116 -54 -179t-158 -63t-158 63.5zM274 170q8 20 8 56v420q0 28 -7.5 45.5t-30.5 17.5q-43 0 -43 -65v-419q0 -37 9 -56t33 -19q23 0 31 20zM157 904v146h175v-146h-175z" />
    <glyph glyph-name="uni1E02" unicode="&#x1e02;" horiz-adv-x="479" 
d="M38 859h233q94 0 136.5 -46t42.5 -150v-38q0 -123 -88 -147q54 -14 76 -65t22 -135q0 -137 -41 -207.5t-148 -70.5h-233v859zM241 536q22 0 30 16.5t8 46.5v86q0 42 -37 42h-36v-191h35zM290 215v107q0 39 -11.5 59t-40.5 20h-32v-249l17 -1q67 0 67 64zM133 904v146h175
v-146h-175z" />
    <glyph glyph-name="uni1E0A" unicode="&#x1e0a;" horiz-adv-x="493" 
d="M38 859h237q92 0 138 -51t47 -151l2 -402q1 -127 -44 -191t-149 -64h-231v859zM241 152q47 0 47 46v443q0 29 -4.5 43.5t-16.5 19.5t-37 5h-19v-557h30zM159 904v146h175v-146h-175z" />
    <glyph glyph-name="uni1E1E" unicode="&#x1e1e;" horiz-adv-x="399" 
d="M38 0v859h344v-167h-171v-137h162v-165h-162v-390h-173zM134 904v146h175v-146h-175z" />
    <glyph glyph-name="uni1E40" unicode="&#x1e40;" horiz-adv-x="746" 
d="M38 0v859h262l72 -524l72 524h264v-859h-157v619l-99 -619h-154l-105 619v-619h-155zM285 904v146h175v-146h-175z" />
    <glyph glyph-name="uni1E56" unicode="&#x1e56;" horiz-adv-x="472" 
d="M38 859h227q103 0 147 -66.5t44 -194.5t-39 -193t-140 -65h-70v-340h-169v859zM217 495q31 0 45.5 11.5t19 33t4.5 61.5q0 54 -12 78t-48 24h-19v-208h10zM149 904v146h175v-146h-175z" />
    <glyph glyph-name="uni1E60" unicode="&#x1e60;" horiz-adv-x="461" 
d="M73 50q-52 58 -52 187v84h169v-107q0 -64 41 -64q23 0 32 13.5t9 45.5q0 42 -10 69.5t-25.5 46t-55.5 57.5l-74 74q-86 84 -86 186q0 110 50.5 167.5t147.5 57.5q116 0 167 -61.5t51 -192.5h-175l-1 59q0 17 -9.5 27t-26.5 10q-20 0 -30 -11t-10 -30q0 -42 48 -87
l100 -96q35 -34 58 -64.5t37 -72t14 -98.5q0 -127 -46.5 -192.5t-153.5 -65.5q-117 0 -169 58zM142 904v146h175v-146h-175z" />
    <glyph glyph-name="uni1E6A" unicode="&#x1e6a;" horiz-adv-x="396" 
d="M112 0v694h-102v165h376v-165h-102v-694h-172zM111 904v146h175v-146h-175z" />
    <glyph glyph-name="Iacute_J.loclNLD" horiz-adv-x="693" 
d="M30 0v859h166v-859h-166zM349 15q-48 23 -75.5 67.5t-27.5 107.5v215h169v-205q0 -23 9.5 -36.5t29.5 -13.5q19 0 28.5 12.5t9.5 35.5v661h173v-644q0 -67 -26.5 -117.5t-74 -78t-108.5 -27.5q-59 0 -107 23zM461 885v109l232 107v-170zM-12 885v109l232 107v-170z" />
    <glyph glyph-name="a" unicode="a" horiz-adv-x="483" 
d="M51.5 48.5q-31.5 56.5 -31.5 161.5q0 86 22.5 132t62.5 67.5t122 47.5l48 16v2v73q0 29 -11.5 44.5t-27.5 15.5q-14 0 -24.5 -13t-10.5 -35v-44h-170v24q0 108 50.5 154t164.5 46q91 0 148 -47.5t57 -134.5v-558h-174v87q-13 -45 -41.5 -70t-67.5 -25q-85 0 -116.5 56.5z
M265.5 144.5q8.5 16.5 8.5 40.5v204q-39 -15 -57.5 -38t-18.5 -64v-94q0 -65 39 -65q20 0 28.5 16.5z" />
    <glyph glyph-name="aacute" unicode="&#xe1;" horiz-adv-x="483" 
d="M51.5 48.5q-31.5 56.5 -31.5 161.5q0 86 22.5 132t62.5 67.5t122 47.5l48 16v2v73q0 29 -11.5 44.5t-27.5 15.5q-14 0 -24.5 -13t-10.5 -35v-44h-170v24q0 108 50.5 154t164.5 46q91 0 148 -47.5t57 -134.5v-558h-174v87q-13 -45 -41.5 -70t-67.5 -25q-85 0 -116.5 56.5z
M265.5 144.5q8.5 16.5 8.5 40.5v204q-39 -15 -57.5 -38t-18.5 -64v-94q0 -65 39 -65q20 0 28.5 16.5zM129 766v109l232 107v-170z" />
    <glyph glyph-name="abreve" unicode="&#x103;" horiz-adv-x="483" 
d="M51.5 48.5q-31.5 56.5 -31.5 161.5q0 86 22.5 132t62.5 67.5t122 47.5l48 16v2v73q0 29 -11.5 44.5t-27.5 15.5q-14 0 -24.5 -13t-10.5 -35v-44h-170v24q0 108 50.5 154t164.5 46q91 0 148 -47.5t57 -134.5v-558h-174v87q-13 -45 -41.5 -70t-67.5 -25q-85 0 -116.5 56.5z
M265.5 144.5q8.5 16.5 8.5 40.5v204q-39 -15 -57.5 -38t-18.5 -64v-94q0 -65 39 -65q20 0 28.5 16.5zM107 822.5q-51 37.5 -51 114.5q0 7 2 21l125 -1q0 -28 14.5 -42t51.5 -14q36 0 51 14t15 42l125 1l1 -17q0 -79 -51 -117.5t-142 -38.5q-90 0 -141 37.5z" />
    <glyph glyph-name="uni1EAF" unicode="&#x1eaf;" horiz-adv-x="483" 
d="M51.5 48.5q-31.5 56.5 -31.5 161.5q0 86 22.5 132t62.5 67.5t122 47.5l48 16v2v73q0 29 -11.5 44.5t-27.5 15.5q-14 0 -24.5 -13t-10.5 -35v-44h-170v24q0 108 50.5 154t164.5 46q91 0 148 -47.5t57 -134.5v-558h-174v87q-13 -45 -41.5 -70t-67.5 -25q-85 0 -116.5 56.5z
M265.5 144.5q8.5 16.5 8.5 40.5v204q-39 -15 -57.5 -38t-18.5 -64v-94q0 -65 39 -65q20 0 28.5 16.5zM105 811q-51 34 -51 104q0 6 2 20h125q0 -31 14.5 -46t50.5 -15q37 0 51.5 15t14.5 46h125q1 -8 1 -17q0 -72 -50.5 -106.5t-141.5 -34.5q-90 0 -141 34zM130 953v95
l232 82v-140z" />
    <glyph glyph-name="uni1EB7" unicode="&#x1eb7;" horiz-adv-x="483" 
d="M51.5 48.5q-31.5 56.5 -31.5 161.5q0 86 22.5 132t62.5 67.5t122 47.5l48 16v2v73q0 29 -11.5 44.5t-27.5 15.5q-14 0 -24.5 -13t-10.5 -35v-44h-170v24q0 108 50.5 154t164.5 46q91 0 148 -47.5t57 -134.5v-558h-174v87q-13 -45 -41.5 -70t-67.5 -25q-85 0 -116.5 56.5z
M265.5 144.5q8.5 16.5 8.5 40.5v204q-39 -15 -57.5 -38t-18.5 -64v-94q0 -65 39 -65q20 0 28.5 16.5zM154 -204v146h175v-146h-175zM107 822.5q-51 37.5 -51 114.5q0 7 2 21l125 -1q0 -28 14.5 -42t51.5 -14q36 0 51 14t15 42l125 1l1 -17q0 -79 -51 -117.5t-142 -38.5
q-90 0 -141 37.5z" />
    <glyph glyph-name="uni1EB1" unicode="&#x1eb1;" horiz-adv-x="483" 
d="M51.5 48.5q-31.5 56.5 -31.5 161.5q0 86 22.5 132t62.5 67.5t122 47.5l48 16v2v73q0 29 -11.5 44.5t-27.5 15.5q-14 0 -24.5 -13t-10.5 -35v-44h-170v24q0 108 50.5 154t164.5 46q91 0 148 -47.5t57 -134.5v-558h-174v87q-13 -45 -41.5 -70t-67.5 -25q-85 0 -116.5 56.5z
M265.5 144.5q8.5 16.5 8.5 40.5v204q-39 -15 -57.5 -38t-18.5 -64v-94q0 -65 39 -65q20 0 28.5 16.5zM362 958l-232 32v140l232 -92v-80zM105 806q-51 34 -51 104q0 6 2 20h125q0 -31 14.5 -46t50.5 -15t50.5 15t14.5 46h125q1 -8 1 -17q0 -72 -50.5 -106.5t-140.5 -34.5
t-141 34z" />
    <glyph glyph-name="uni1EB3" unicode="&#x1eb3;" horiz-adv-x="483" 
d="M51.5 48.5q-31.5 56.5 -31.5 161.5q0 86 22.5 132t62.5 67.5t122 47.5l48 16v2v73q0 29 -11.5 44.5t-27.5 15.5q-14 0 -24.5 -13t-10.5 -35v-44h-170v24q0 108 50.5 154t164.5 46q91 0 148 -47.5t57 -134.5v-558h-174v87q-13 -45 -41.5 -70t-67.5 -25q-85 0 -116.5 56.5z
M265.5 144.5q8.5 16.5 8.5 40.5v204q-39 -15 -57.5 -38t-18.5 -64v-94q0 -65 39 -65q20 0 28.5 16.5zM179 995q29 11 44 25.5t15 37.5q0 46 -50 46q-24 0 -44 -7v88q45 16 90 16q61 0 95.5 -31t34.5 -86q0 -107 -133 -150zM105 806q-51 34 -51 104q0 6 2 20h125
q0 -31 14.5 -46t50.5 -15t50.5 15t14.5 46h125q1 -8 1 -17q0 -72 -50.5 -106.5t-140.5 -34.5t-141 34z" />
    <glyph glyph-name="uni1EB5" unicode="&#x1eb5;" horiz-adv-x="483" 
d="M51.5 48.5q-31.5 56.5 -31.5 161.5q0 86 22.5 132t62.5 67.5t122 47.5l48 16v2v73q0 29 -11.5 44.5t-27.5 15.5q-14 0 -24.5 -13t-10.5 -35v-44h-170v24q0 108 50.5 154t164.5 46q91 0 148 -47.5t57 -134.5v-558h-174v87q-13 -45 -41.5 -70t-67.5 -25q-85 0 -116.5 56.5z
M265.5 144.5q8.5 16.5 8.5 40.5v204q-39 -15 -57.5 -38t-18.5 -64v-94q0 -65 39 -65q20 0 28.5 16.5zM288 967q-19 6 -44 18q-27 11 -42 16t-31 5q-34 0 -54 -33l-73 38q21 50 45 76t68 26q21 0 39 -6t44 -17q23 -10 39 -15.5t33 -5.5q18 0 30 8t25 28l81 -26
q-15 -39 -28.5 -63t-36 -39.5t-56.5 -15.5q-20 0 -39 6zM105 806q-51 34 -51 104q0 6 2 20h125q0 -31 14.5 -46t50.5 -15t50.5 15t14.5 46h125q1 -8 1 -17q0 -72 -50.5 -106.5t-140.5 -34.5t-141 34z" />
    <glyph glyph-name="acircumflex" unicode="&#xe2;" horiz-adv-x="483" 
d="M51.5 48.5q-31.5 56.5 -31.5 161.5q0 86 22.5 132t62.5 67.5t122 47.5l48 16v2v73q0 29 -11.5 44.5t-27.5 15.5q-14 0 -24.5 -13t-10.5 -35v-44h-170v24q0 108 50.5 154t164.5 46q91 0 148 -47.5t57 -134.5v-558h-174v87q-13 -45 -41.5 -70t-67.5 -25q-85 0 -116.5 56.5z
M265.5 144.5q8.5 16.5 8.5 40.5v204q-39 -15 -57.5 -38t-18.5 -64v-94q0 -65 39 -65q20 0 28.5 16.5zM29 785l117 197h199l118 -197h-175l-42 139l-42 -139h-175z" />
    <glyph glyph-name="uni1EA5" unicode="&#x1ea5;" horiz-adv-x="483" 
d="M51.5 48.5q-31.5 56.5 -31.5 161.5q0 86 22.5 132t62.5 67.5t122 47.5l48 16v2v73q0 29 -11.5 44.5t-27.5 15.5q-14 0 -24.5 -13t-10.5 -35v-44h-170v24q0 108 50.5 154t164.5 46q91 0 148 -47.5t57 -134.5v-558h-174v87q-13 -45 -41.5 -70t-67.5 -25q-85 0 -116.5 56.5z
M265.5 144.5q8.5 16.5 8.5 40.5v204q-39 -15 -57.5 -38t-18.5 -64v-94q0 -65 39 -65q20 0 28.5 16.5zM399 895l80 144h150l-116 -144h-114zM29 777l117 148h200l117 -148h-173l-44 95l-44 -95h-173z" />
    <glyph glyph-name="uni1EAD" unicode="&#x1ead;" horiz-adv-x="483" 
d="M51.5 48.5q-31.5 56.5 -31.5 161.5q0 86 22.5 132t62.5 67.5t122 47.5l48 16v2v73q0 29 -11.5 44.5t-27.5 15.5q-14 0 -24.5 -13t-10.5 -35v-44h-170v24q0 108 50.5 154t164.5 46q91 0 148 -47.5t57 -134.5v-558h-174v87q-13 -45 -41.5 -70t-67.5 -25q-85 0 -116.5 56.5z
M265.5 144.5q8.5 16.5 8.5 40.5v204q-39 -15 -57.5 -38t-18.5 -64v-94q0 -65 39 -65q20 0 28.5 16.5zM154 -204v146h175v-146h-175zM29 785l117 197h199l118 -197h-175l-42 139l-42 -139h-175z" />
    <glyph glyph-name="uni1EA7" unicode="&#x1ea7;" horiz-adv-x="483" 
d="M51.5 48.5q-31.5 56.5 -31.5 161.5q0 86 22.5 132t62.5 67.5t122 47.5l48 16v2v73q0 29 -11.5 44.5t-27.5 15.5q-14 0 -24.5 -13t-10.5 -35v-44h-170v24q0 108 50.5 154t164.5 46q91 0 148 -47.5t57 -134.5v-558h-174v87q-13 -45 -41.5 -70t-67.5 -25q-85 0 -116.5 56.5z
M265.5 144.5q8.5 16.5 8.5 40.5v204q-39 -15 -57.5 -38t-18.5 -64v-94q0 -65 39 -65q20 0 28.5 16.5zM428 895l-117 144h150l80 -144h-113zM29 777l117 148h200l117 -148h-173l-44 95l-44 -95h-173z" />
    <glyph glyph-name="uni1EA9" unicode="&#x1ea9;" horiz-adv-x="483" 
d="M51.5 48.5q-31.5 56.5 -31.5 161.5q0 86 22.5 132t62.5 67.5t122 47.5l48 16v2v73q0 29 -11.5 44.5t-27.5 15.5q-14 0 -24.5 -13t-10.5 -35v-44h-170v24q0 108 50.5 154t164.5 46q91 0 148 -47.5t57 -134.5v-558h-174v87q-13 -45 -41.5 -70t-67.5 -25q-85 0 -116.5 56.5z
M265.5 144.5q8.5 16.5 8.5 40.5v204q-39 -15 -57.5 -38t-18.5 -64v-94q0 -65 39 -65q20 0 28.5 16.5zM371 938q28 10 43 25t15 38t-13 35t-36 12t-44 -8v88q43 16 89 16q61 0 95.5 -30.5t34.5 -85.5q0 -108 -133 -151zM53 777l108 153h170l108 -153h-149l-44 95l-44 -95
h-149z" />
    <glyph glyph-name="uni1EAB" unicode="&#x1eab;" horiz-adv-x="483" 
d="M51.5 48.5q-31.5 56.5 -31.5 161.5q0 86 22.5 132t62.5 67.5t122 47.5l48 16v2v73q0 29 -11.5 44.5t-27.5 15.5q-14 0 -24.5 -13t-10.5 -35v-44h-170v24q0 108 50.5 154t164.5 46q91 0 148 -47.5t57 -134.5v-558h-174v87q-13 -45 -41.5 -70t-67.5 -25q-85 0 -116.5 56.5z
M265.5 144.5q8.5 16.5 8.5 40.5v204q-39 -15 -57.5 -38t-18.5 -64v-94q0 -65 39 -65q20 0 28.5 16.5zM288 967q-19 6 -44 18q-27 11 -42 16t-31 5q-34 0 -54 -33l-73 38q21 50 45 76t68 26q21 0 39 -6t44 -17q23 -10 39 -15.5t33 -5.5q18 0 30 8t25 28l81 -26
q-15 -39 -28.5 -63t-36 -39.5t-56.5 -15.5q-20 0 -39 6zM29 777l117 148h200l117 -148h-173l-44 95l-44 -95h-173z" />
    <glyph glyph-name="uni0201" unicode="&#x201;" horiz-adv-x="483" 
d="M51.5 48.5q-31.5 56.5 -31.5 161.5q0 86 22.5 132t62.5 67.5t122 47.5l48 16v2v73q0 29 -11.5 44.5t-27.5 15.5q-14 0 -24.5 -13t-10.5 -35v-44h-170v24q0 108 50.5 154t164.5 46q91 0 148 -47.5t57 -134.5v-558h-174v87q-13 -45 -41.5 -70t-67.5 -25q-85 0 -116.5 56.5z
M265.5 144.5q8.5 16.5 8.5 40.5v204q-39 -15 -57.5 -38t-18.5 -64v-94q0 -65 39 -65q20 0 28.5 16.5zM140 782l-141 210l114 53l108 -234zM288 782l-122 210l113 53l90 -234z" />
    <glyph glyph-name="adieresis" unicode="&#xe4;" horiz-adv-x="483" 
d="M51.5 48.5q-31.5 56.5 -31.5 161.5q0 86 22.5 132t62.5 67.5t122 47.5l48 16v2v73q0 29 -11.5 44.5t-27.5 15.5q-14 0 -24.5 -13t-10.5 -35v-44h-170v24q0 108 50.5 154t164.5 46q91 0 148 -47.5t57 -134.5v-558h-174v87q-13 -45 -41.5 -70t-67.5 -25q-85 0 -116.5 56.5z
M265.5 144.5q8.5 16.5 8.5 40.5v204q-39 -15 -57.5 -38t-18.5 -64v-94q0 -65 39 -65q20 0 28.5 16.5zM37 789v145h175v-145h-175zM274 789v145h174v-145h-174z" />
    <glyph glyph-name="uni1EA1" unicode="&#x1ea1;" horiz-adv-x="483" 
d="M51.5 48.5q-31.5 56.5 -31.5 161.5q0 86 22.5 132t62.5 67.5t122 47.5l48 16v2v73q0 29 -11.5 44.5t-27.5 15.5q-14 0 -24.5 -13t-10.5 -35v-44h-170v24q0 108 50.5 154t164.5 46q91 0 148 -47.5t57 -134.5v-558h-174v87q-13 -45 -41.5 -70t-67.5 -25q-85 0 -116.5 56.5z
M265.5 144.5q8.5 16.5 8.5 40.5v204q-39 -15 -57.5 -38t-18.5 -64v-94q0 -65 39 -65q20 0 28.5 16.5zM154 -204v146h175v-146h-175z" />
    <glyph glyph-name="agrave" unicode="&#xe0;" horiz-adv-x="483" 
d="M51.5 48.5q-31.5 56.5 -31.5 161.5q0 86 22.5 132t62.5 67.5t122 47.5l48 16v2v73q0 29 -11.5 44.5t-27.5 15.5q-14 0 -24.5 -13t-10.5 -35v-44h-170v24q0 108 50.5 154t164.5 46q91 0 148 -47.5t57 -134.5v-558h-174v87q-13 -45 -41.5 -70t-67.5 -25q-85 0 -116.5 56.5z
M265.5 144.5q8.5 16.5 8.5 40.5v204q-39 -15 -57.5 -38t-18.5 -64v-94q0 -65 39 -65q20 0 28.5 16.5zM362 766l-232 46v170l232 -107v-109z" />
    <glyph glyph-name="uni1EA3" unicode="&#x1ea3;" horiz-adv-x="483" 
d="M51.5 48.5q-31.5 56.5 -31.5 161.5q0 86 22.5 132t62.5 67.5t122 47.5l48 16v2v73q0 29 -11.5 44.5t-27.5 15.5q-14 0 -24.5 -13t-10.5 -35v-44h-170v24q0 108 50.5 154t164.5 46q91 0 148 -47.5t57 -134.5v-558h-174v87q-13 -45 -41.5 -70t-67.5 -25q-85 0 -116.5 56.5z
M265.5 144.5q8.5 16.5 8.5 40.5v204q-39 -15 -57.5 -38t-18.5 -64v-94q0 -65 39 -65q20 0 28.5 16.5zM180 831q29 11 44 25.5t15 37.5q0 46 -50 46q-24 0 -44 -7v88q45 16 90 16q61 0 95.5 -31t34.5 -86q0 -109 -133 -150z" />
    <glyph glyph-name="uni0203" unicode="&#x203;" horiz-adv-x="483" 
d="M51.5 48.5q-31.5 56.5 -31.5 161.5q0 86 22.5 132t62.5 67.5t122 47.5l48 16v2v73q0 29 -11.5 44.5t-27.5 15.5q-14 0 -24.5 -13t-10.5 -35v-44h-170v24q0 108 50.5 154t164.5 46q91 0 148 -47.5t57 -134.5v-558h-174v87q-13 -45 -41.5 -70t-67.5 -25q-85 0 -116.5 56.5z
M265.5 144.5q8.5 16.5 8.5 40.5v204q-39 -15 -57.5 -38t-18.5 -64v-94q0 -65 39 -65q20 0 28.5 16.5zM63 813q0 78 47 115t135 37q90 0 136.5 -37.5t46.5 -117.5q0 -10 -1 -17h-115q0 32 -18 49t-48 17t-48 -17t-18 -49h-115q-2 14 -2 20z" />
    <glyph glyph-name="amacron" unicode="&#x101;" horiz-adv-x="483" 
d="M51.5 48.5q-31.5 56.5 -31.5 161.5q0 86 22.5 132t62.5 67.5t122 47.5l48 16v2v73q0 29 -11.5 44.5t-27.5 15.5q-14 0 -24.5 -13t-10.5 -35v-44h-170v24q0 108 50.5 154t164.5 46q91 0 148 -47.5t57 -134.5v-558h-174v87q-13 -45 -41.5 -70t-67.5 -25q-85 0 -116.5 56.5z
M265.5 144.5q8.5 16.5 8.5 40.5v204q-39 -15 -57.5 -38t-18.5 -64v-94q0 -65 39 -65q20 0 28.5 16.5zM85 799v74h318v-74h-318z" />
    <glyph glyph-name="aogonek" unicode="&#x105;" horiz-adv-x="483" 
d="M458 -180v-109q-45 -19 -97 -19q-46 0 -85 18t-62 51t-23 78q0 89 129 161h-43v87q-13 -45 -41.5 -70t-67.5 -25q-85 0 -116.5 56.5t-31.5 161.5q0 86 22.5 132t62.5 67.5t122 47.5l48 16v2v73q0 29 -11.5 44.5t-27.5 15.5q-14 0 -24.5 -13t-10.5 -35v-44h-170v24
q0 108 50.5 154t164.5 46q91 0 148 -47.5t57 -134.5v-558h-28l-18 -21q-31 -37 -45.5 -61t-14.5 -54q0 -27 14.5 -41t41.5 -14q24 0 57 11zM274 389q-39 -15 -57.5 -38t-18.5 -64v-94q0 -65 39 -65q20 0 28.5 16.5t8.5 40.5v204z" />
    <glyph glyph-name="aring" unicode="&#xe5;" horiz-adv-x="483" 
d="M51.5 48.5q-31.5 56.5 -31.5 161.5q0 86 22.5 132t62.5 67.5t122 47.5l48 16v2v73q0 29 -11.5 44.5t-27.5 15.5q-14 0 -24.5 -13t-10.5 -35v-44h-170v24q0 108 50.5 154t164.5 46q91 0 148 -47.5t57 -134.5v-558h-174v87q-13 -45 -41.5 -70t-67.5 -25q-85 0 -116.5 56.5z
M265.5 144.5q8.5 16.5 8.5 40.5v204q-39 -15 -57.5 -38t-18.5 -64v-94q0 -65 39 -65q20 0 28.5 16.5zM120 823.5q-47 44.5 -47 121.5t47 121t126 44t126 -44t47 -121t-47 -121.5t-126 -44.5t-126 44.5zM297 890q19 22 19 55t-19 54.5t-51 21.5q-31 0 -50 -22t-19 -54
q0 -33 19 -55t50 -22q32 0 51 22z" />
    <glyph glyph-name="aringacute" unicode="&#x1fb;" horiz-adv-x="483" 
d="M51.5 48.5q-31.5 56.5 -31.5 161.5q0 86 22.5 132t62.5 67.5t122 47.5l48 16v2v73q0 29 -11.5 44.5t-27.5 15.5q-14 0 -24.5 -13t-10.5 -35v-44h-170v24q0 108 50.5 154t164.5 46q91 0 148 -47.5t57 -134.5v-558h-174v87q-13 -45 -41.5 -70t-67.5 -25q-85 0 -116.5 56.5z
M265.5 144.5q8.5 16.5 8.5 40.5v204q-39 -15 -57.5 -38t-18.5 -64v-94q0 -65 39 -65q20 0 28.5 16.5zM120.5 812.5q-46.5 41.5 -46.5 114.5q0 72 47 113.5t125 41.5q79 0 126 -42t47 -113q0 -72 -47 -114t-126 -42t-125.5 41.5zM297 879q19 19 19 48t-19 48t-51 19
q-31 0 -50 -19t-19 -48t19 -48t50 -19q32 0 51 19zM130 1100v95l232 82v-140z" />
    <glyph glyph-name="atilde" unicode="&#xe3;" horiz-adv-x="483" 
d="M51.5 48.5q-31.5 56.5 -31.5 161.5q0 86 22.5 132t62.5 67.5t122 47.5l48 16v2v73q0 29 -11.5 44.5t-27.5 15.5q-14 0 -24.5 -13t-10.5 -35v-44h-170v24q0 108 50.5 154t164.5 46q91 0 148 -47.5t57 -134.5v-558h-174v87q-13 -45 -41.5 -70t-67.5 -25q-85 0 -116.5 56.5z
M265.5 144.5q8.5 16.5 8.5 40.5v204q-39 -15 -57.5 -38t-18.5 -64v-94q0 -65 39 -65q20 0 28.5 16.5zM275.5 802q-23.5 7 -56.5 20q-16 7 -31 12t-26 5q-29 0 -45 -33l-73 38q22 54 47.5 81.5t73.5 27.5q26 0 47 -6t55 -19q36 -16 54 -16q28 0 46 36l81 -26
q-15 -42 -28.5 -67.5t-36 -42.5t-56.5 -17q-28 0 -51.5 7z" />
    <glyph glyph-name="ae" unicode="&#xe6;" horiz-adv-x="731" 
d="M71 49q-52 58 -52 161q0 88 23.5 134.5t64.5 69.5t126 51l40 14v1l1 45q0 37 -8 58.5t-30 21.5q-36 0 -36 -40v-49h-170q-1 5 -1 24q0 108 51 154.5t165 46.5q79 0 120 -59q39 59 130 59q211 0 211 -208v-53q0 -111 -2 -136h-254v-103q0 -114 42 -114q26 0 33.5 28
t7.5 75q0 50 -1 53h174v-42q0 -126 -44 -188t-156 -62q-50 0 -88 22.5t-53 58.5q-17 -37 -55 -59t-91 -22q-96 0 -148 58zM532 455v76q0 79 -39 79q-29 0 -36 -22t-7 -74v-59h82zM264 144.5q9 16.5 9 40.5v193q-39 -16 -57.5 -38t-18.5 -62v-85q0 -65 39 -65q19 0 28 16.5z
" />
    <glyph glyph-name="aeacute" unicode="&#x1fd;" horiz-adv-x="731" 
d="M71 49q-52 58 -52 161q0 88 23.5 134.5t64.5 69.5t126 51l40 14v1l1 45q0 37 -8 58.5t-30 21.5q-36 0 -36 -40v-49h-170q-1 5 -1 24q0 108 51 154.5t165 46.5q79 0 120 -59q39 59 130 59q211 0 211 -208v-53q0 -111 -2 -136h-254v-103q0 -114 42 -114q26 0 33.5 28
t7.5 75q0 50 -1 53h174v-42q0 -126 -44 -188t-156 -62q-50 0 -88 22.5t-53 58.5q-17 -37 -55 -59t-91 -22q-96 0 -148 58zM532 455v76q0 79 -39 79q-29 0 -36 -22t-7 -74v-59h82zM264 144.5q9 16.5 9 40.5v193q-39 -16 -57.5 -38t-18.5 -62v-85q0 -65 39 -65q19 0 28 16.5z
M258 758v109l232 107v-170z" />
    <glyph glyph-name="b" unicode="b" horiz-adv-x="501" 
d="M215 78v-78h-180v864h180v-167q42 43 98 43q85 0 122 -50.5t37 -145.5v-353q0 -90 -38 -144.5t-116 -54.5q-72 0 -103 86zM284.5 139.5q7.5 11.5 9 29t1.5 54.5v305q0 39 -7 58t-30 19q-25 0 -34 -19t-9 -56v-307q0 -48 8 -71.5t36 -23.5q18 0 25.5 11.5z" />
    <glyph glyph-name="c" unicode="c" horiz-adv-x="491" 
d="M82 53q-53 61 -53 187v226q0 95 20.5 154.5t69 89.5t134.5 30q94 0 153 -49t59 -137v-112h-178v103q0 29 -8 44.5t-31 15.5q-43 0 -43 -61v-355q0 -25 10.5 -42.5t31.5 -17.5t31.5 17t9.5 44l-1 123h178v-128q0 -90 -58.5 -141.5t-151.5 -51.5q-120 0 -173 61z" />
    <glyph glyph-name="cacute" unicode="&#x107;" horiz-adv-x="491" 
d="M82 53q-53 61 -53 187v226q0 95 20.5 154.5t69 89.5t134.5 30q94 0 153 -49t59 -137v-112h-178v103q0 29 -8 44.5t-31 15.5q-43 0 -43 -61v-355q0 -25 10.5 -42.5t31.5 -17.5t31.5 17t9.5 44l-1 123h178v-128q0 -90 -58.5 -141.5t-151.5 -51.5q-120 0 -173 61zM134 758
v109l232 107v-170z" />
    <glyph glyph-name="ccaron" unicode="&#x10d;" horiz-adv-x="491" 
d="M82 53q-53 61 -53 187v226q0 95 20.5 154.5t69 89.5t134.5 30q94 0 153 -49t59 -137v-112h-178v103q0 29 -8 44.5t-31 15.5q-43 0 -43 -61v-355q0 -25 10.5 -42.5t31.5 -17.5t31.5 17t9.5 44l-1 123h178v-128q0 -90 -58.5 -141.5t-151.5 -51.5q-120 0 -173 61zM151 777
l-117 197h175l42 -140l42 140h175l-118 -197h-199z" />
    <glyph glyph-name="ccedilla" unicode="&#xe7;" horiz-adv-x="491" 
d="M287 442v103q0 29 -8 44.5t-31 15.5q-43 0 -43 -61v-355q0 -25 10.5 -42.5t31.5 -17.5t31.5 17t9.5 44l-1 123h178v-128q0 -81 -47.5 -131t-127.5 -60q45 -41 69.5 -89.5t24.5 -93.5q0 -53 -36.5 -86t-109.5 -33q-50 0 -97 19v109q31 -11 58 -11q57 0 57 58q0 52 -47 128
q-95 11 -137.5 71.5t-42.5 173.5v226q0 95 20.5 154.5t69 89.5t134.5 30q94 0 153 -49t59 -137v-112h-178z" />
    <glyph glyph-name="ccircumflex" unicode="&#x109;" horiz-adv-x="491" 
d="M82 53q-53 61 -53 187v226q0 95 20.5 154.5t69 89.5t134.5 30q94 0 153 -49t59 -137v-112h-178v103q0 29 -8 44.5t-31 15.5q-43 0 -43 -61v-355q0 -25 10.5 -42.5t31.5 -17.5t31.5 17t9.5 44l-1 123h178v-128q0 -90 -58.5 -141.5t-151.5 -51.5q-120 0 -173 61zM34 777
l117 197h199l118 -197h-175l-42 139l-42 -139h-175z" />
    <glyph glyph-name="cdotaccent" unicode="&#x10b;" horiz-adv-x="491" 
d="M82 53q-53 61 -53 187v226q0 95 20.5 154.5t69 89.5t134.5 30q94 0 153 -49t59 -137v-112h-178v103q0 29 -8 44.5t-31 15.5q-43 0 -43 -61v-355q0 -25 10.5 -42.5t31.5 -17.5t31.5 17t9.5 44l-1 123h178v-128q0 -90 -58.5 -141.5t-151.5 -51.5q-120 0 -173 61zM164 777
v146h175v-146h-175z" />
    <glyph glyph-name="d" unicode="d" horiz-adv-x="498" 
d="M82.5 22.5q-32.5 30.5 -43 81t-10.5 129.5l2 330q0 78 39.5 127.5t111.5 49.5q71 0 106 -47v171h175v-864h-175v78q-15 -43 -40.5 -64.5t-68.5 -21.5q-64 0 -96.5 30.5zM280 154.5q8 25.5 8 68.5v31v275q0 32 -9 54t-32 22q-26 0 -34.5 -20.5t-8.5 -55.5v-308
q0 -92 42 -92q26 0 34 25.5z" />
    <glyph glyph-name="eth" unicode="&#xf0;" horiz-adv-x="503" 
d="M74.5 54q-50.5 62 -50.5 195q0 118 49 176.5t154 58.5q20 0 45 -5.5t39 -14.5q-9 68 -51 129l-94 -61l-51 79l83 54q-37 34 -78 58t-79 32l46 111q63 -6 125.5 -36.5t115.5 -80.5l117 76l51 -78l-106 -69q44 -61 68.5 -134.5t24.5 -153.5v-127q0 -95 -22 -154t-73 -88
t-140 -29q-123 0 -173.5 62zM304 205v84q0 65 -49 65q-43 0 -43 -76v-43q0 -52 8 -75.5t38 -23.5q46 0 46 69z" />
    <glyph glyph-name="dcaron" unicode="&#x10f;" horiz-adv-x="498" 
d="M82.5 22.5q-32.5 30.5 -43 81t-10.5 129.5l2 330q0 78 39.5 127.5t111.5 49.5q71 0 106 -47v171h175v-864h-175v78q-15 -43 -40.5 -64.5t-68.5 -21.5q-64 0 -96.5 30.5zM280 154.5q8 25.5 8 68.5v31v275q0 32 -9 54t-32 22q-26 0 -34.5 -20.5t-8.5 -55.5v-308
q0 -92 42 -92q26 0 34 25.5zM563 606l32 116h-62v145h183v-141l-50 -120h-103z" />
    <glyph glyph-name="dcroat" unicode="&#x111;" horiz-adv-x="498" 
d="M532 751h-69v-751h-175v78q-15 -43 -40.5 -64.5t-68.5 -21.5q-64 0 -96.5 30.5t-43 81t-10.5 129.5l2 330q0 78 39.5 127.5t111.5 49.5q71 0 106 -47v58h-74v74h74v39h175v-39h69v-74zM280 154.5q8 25.5 8 68.5v31v275q0 32 -9 54t-32 22q-26 0 -34.5 -20.5t-8.5 -55.5
v-308q0 -92 42 -92q26 0 34 25.5z" />
    <glyph glyph-name="uni01C6" unicode="&#x1c6;" horiz-adv-x="884" 
d="M82.5 22.5q-32.5 30.5 -43 81t-10.5 129.5l2 330q0 78 39.5 127.5t111.5 49.5q71 0 106 -47v171h175v-864h-175v78q-15 -43 -40.5 -64.5t-68.5 -21.5q-64 0 -96.5 30.5zM280 154.5q8 25.5 8 68.5v31v275q0 32 -9 54t-32 22q-26 0 -34.5 -20.5t-8.5 -55.5v-308
q0 -92 42 -92q26 0 34 25.5zM512 0v107l182 487h-174v138h355v-119l-172 -482h174v-131h-365zM611 777l-117 197h175l42 -140l42 140h175l-118 -197h-199z" />
    <glyph glyph-name="e" unicode="e" horiz-adv-x="488" 
d="M78 54q-49 62 -49 185v294q0 101 58 154t162 53q211 0 211 -207v-53q0 -80 -2 -130h-254v-142q0 -38 8 -59.5t34 -21.5q20 0 28.5 12t10 27.5t1.5 45.5v71h174v-42q0 -128 -49.5 -188.5t-170.5 -60.5q-113 0 -162 62zM286 437v94q0 79 -39 79q-44 0 -44 -79v-94h83z" />
    <glyph glyph-name="eacute" unicode="&#xe9;" horiz-adv-x="488" 
d="M78 54q-49 62 -49 185v294q0 101 58 154t162 53q211 0 211 -207v-53q0 -80 -2 -130h-254v-142q0 -38 8 -59.5t34 -21.5q20 0 28.5 12t10 27.5t1.5 45.5v71h174v-42q0 -128 -49.5 -188.5t-170.5 -60.5q-113 0 -162 62zM286 437v94q0 79 -39 79q-44 0 -44 -79v-94h83z
M132 766v109l232 107v-170z" />
    <glyph glyph-name="ebreve" unicode="&#x115;" horiz-adv-x="488" 
d="M78 54q-49 62 -49 185v294q0 101 58 154t162 53q211 0 211 -207v-53q0 -80 -2 -130h-254v-142q0 -38 8 -59.5t34 -21.5q20 0 28.5 12t10 27.5t1.5 45.5v71h174v-42q0 -128 -49.5 -188.5t-170.5 -60.5q-113 0 -162 62zM286 437v94q0 79 -39 79q-44 0 -44 -79v-94h83z
M110 822.5q-51 37.5 -51 114.5q0 7 2 21l125 -1q0 -28 14.5 -42t51.5 -14q36 0 51 14t15 42l125 1l1 -17q0 -79 -51 -117.5t-142 -38.5q-90 0 -141 37.5z" />
    <glyph glyph-name="ecaron" unicode="&#x11b;" horiz-adv-x="488" 
d="M78 54q-49 62 -49 185v294q0 101 58 154t162 53q211 0 211 -207v-53q0 -80 -2 -130h-254v-142q0 -38 8 -59.5t34 -21.5q20 0 28.5 12t10 27.5t1.5 45.5v71h174v-42q0 -128 -49.5 -188.5t-170.5 -60.5q-113 0 -162 62zM286 437v94q0 79 -39 79q-44 0 -44 -79v-94h83z
M149 785l-117 197h175l42 -140l42 140h175l-118 -197h-199z" />
    <glyph glyph-name="ecircumflex" unicode="&#xea;" horiz-adv-x="488" 
d="M78 54q-49 62 -49 185v294q0 101 58 154t162 53q211 0 211 -207v-53q0 -80 -2 -130h-254v-142q0 -38 8 -59.5t34 -21.5q20 0 28.5 12t10 27.5t1.5 45.5v71h174v-42q0 -128 -49.5 -188.5t-170.5 -60.5q-113 0 -162 62zM286 437v94q0 79 -39 79q-44 0 -44 -79v-94h83z
M32 785l117 197h199l118 -197h-175l-42 139l-42 -139h-175z" />
    <glyph glyph-name="uni1EBF" unicode="&#x1ebf;" horiz-adv-x="488" 
d="M78 54q-49 62 -49 185v294q0 101 58 154t162 53q211 0 211 -207v-53q0 -80 -2 -130h-254v-142q0 -38 8 -59.5t34 -21.5q20 0 28.5 12t10 27.5t1.5 45.5v71h174v-42q0 -128 -49.5 -188.5t-170.5 -60.5q-113 0 -162 62zM286 437v94q0 79 -39 79q-44 0 -44 -79v-94h83z
M402 895l80 144h150l-116 -144h-114zM32 777l117 148h200l117 -148h-173l-44 95l-44 -95h-173z" />
    <glyph glyph-name="uni1EC7" unicode="&#x1ec7;" horiz-adv-x="488" 
d="M78 54q-49 62 -49 185v294q0 101 58 154t162 53q211 0 211 -207v-53q0 -80 -2 -130h-254v-142q0 -38 8 -59.5t34 -21.5q20 0 28.5 12t10 27.5t1.5 45.5v71h174v-42q0 -128 -49.5 -188.5t-170.5 -60.5q-113 0 -162 62zM286 437v94q0 79 -39 79q-44 0 -44 -79v-94h83z
M155 -204v146h175v-146h-175zM32 785l117 197h199l118 -197h-175l-42 139l-42 -139h-175z" />
    <glyph glyph-name="uni1EC1" unicode="&#x1ec1;" horiz-adv-x="488" 
d="M78 54q-49 62 -49 185v294q0 101 58 154t162 53q211 0 211 -207v-53q0 -80 -2 -130h-254v-142q0 -38 8 -59.5t34 -21.5q20 0 28.5 12t10 27.5t1.5 45.5v71h174v-42q0 -128 -49.5 -188.5t-170.5 -60.5q-113 0 -162 62zM286 437v94q0 79 -39 79q-44 0 -44 -79v-94h83z
M431 895l-117 144h150l80 -144h-113zM32 777l117 148h200l117 -148h-173l-44 95l-44 -95h-173z" />
    <glyph glyph-name="uni1EC3" unicode="&#x1ec3;" horiz-adv-x="488" 
d="M78 54q-49 62 -49 185v294q0 101 58 154t162 53q211 0 211 -207v-53q0 -80 -2 -130h-254v-142q0 -38 8 -59.5t34 -21.5q20 0 28.5 12t10 27.5t1.5 45.5v71h174v-42q0 -128 -49.5 -188.5t-170.5 -60.5q-113 0 -162 62zM286 437v94q0 79 -39 79q-44 0 -44 -79v-94h83z
M374 938q28 10 43 25t15 38t-13 35t-36 12t-44 -8v88q43 16 89 16q61 0 95.5 -30.5t34.5 -85.5q0 -108 -133 -151zM56 777l108 153h170l108 -153h-149l-44 95l-44 -95h-149z" />
    <glyph glyph-name="uni1EC5" unicode="&#x1ec5;" horiz-adv-x="488" 
d="M78 54q-49 62 -49 185v294q0 101 58 154t162 53q211 0 211 -207v-53q0 -80 -2 -130h-254v-142q0 -38 8 -59.5t34 -21.5q20 0 28.5 12t10 27.5t1.5 45.5v71h174v-42q0 -128 -49.5 -188.5t-170.5 -60.5q-113 0 -162 62zM286 437v94q0 79 -39 79q-44 0 -44 -79v-94h83z
M291 967q-19 6 -44 18q-27 11 -42 16t-31 5q-34 0 -54 -33l-73 38q21 50 45 76t68 26q21 0 39 -6t44 -17q23 -10 39 -15.5t33 -5.5q18 0 30 8t25 28l81 -26q-15 -39 -28.5 -63t-36 -39.5t-56.5 -15.5q-20 0 -39 6zM32 777l117 148h200l117 -148h-173l-44 95l-44 -95h-173z
" />
    <glyph glyph-name="uni0205" unicode="&#x205;" horiz-adv-x="488" 
d="M78 54q-49 62 -49 185v294q0 101 58 154t162 53q211 0 211 -207v-53q0 -80 -2 -130h-254v-142q0 -38 8 -59.5t34 -21.5q20 0 28.5 12t10 27.5t1.5 45.5v71h174v-42q0 -128 -49.5 -188.5t-170.5 -60.5q-113 0 -162 62zM286 437v94q0 79 -39 79q-44 0 -44 -79v-94h83z
M143 782l-141 210l114 53l108 -234zM291 782l-122 210l113 53l90 -234z" />
    <glyph glyph-name="edieresis" unicode="&#xeb;" horiz-adv-x="488" 
d="M78 54q-49 62 -49 185v294q0 101 58 154t162 53q211 0 211 -207v-53q0 -80 -2 -130h-254v-142q0 -38 8 -59.5t34 -21.5q20 0 28.5 12t10 27.5t1.5 45.5v71h174v-42q0 -128 -49.5 -188.5t-170.5 -60.5q-113 0 -162 62zM286 437v94q0 79 -39 79q-44 0 -44 -79v-94h83z
M40 789v145h175v-145h-175zM277 789v145h174v-145h-174z" />
    <glyph glyph-name="edotaccent" unicode="&#x117;" horiz-adv-x="488" 
d="M78 54q-49 62 -49 185v294q0 101 58 154t162 53q211 0 211 -207v-53q0 -80 -2 -130h-254v-142q0 -38 8 -59.5t34 -21.5q20 0 28.5 12t10 27.5t1.5 45.5v71h174v-42q0 -128 -49.5 -188.5t-170.5 -60.5q-113 0 -162 62zM286 437v94q0 79 -39 79q-44 0 -44 -79v-94h83z
M162 785v146h175v-146h-175z" />
    <glyph glyph-name="uni1EB9" unicode="&#x1eb9;" horiz-adv-x="488" 
d="M78 54q-49 62 -49 185v294q0 101 58 154t162 53q211 0 211 -207v-53q0 -80 -2 -130h-254v-142q0 -38 8 -59.5t34 -21.5q20 0 28.5 12t10 27.5t1.5 45.5v71h174v-42q0 -128 -49.5 -188.5t-170.5 -60.5q-113 0 -162 62zM286 437v94q0 79 -39 79q-44 0 -44 -79v-94h83z
M155 -204v146h175v-146h-175z" />
    <glyph glyph-name="egrave" unicode="&#xe8;" horiz-adv-x="488" 
d="M78 54q-49 62 -49 185v294q0 101 58 154t162 53q211 0 211 -207v-53q0 -80 -2 -130h-254v-142q0 -38 8 -59.5t34 -21.5q20 0 28.5 12t10 27.5t1.5 45.5v71h174v-42q0 -128 -49.5 -188.5t-170.5 -60.5q-113 0 -162 62zM286 437v94q0 79 -39 79q-44 0 -44 -79v-94h83z
M365 766l-232 46v170l232 -107v-109z" />
    <glyph glyph-name="uni1EBB" unicode="&#x1ebb;" horiz-adv-x="488" 
d="M78 54q-49 62 -49 185v294q0 101 58 154t162 53q211 0 211 -207v-53q0 -80 -2 -130h-254v-142q0 -38 8 -59.5t34 -21.5q20 0 28.5 12t10 27.5t1.5 45.5v71h174v-42q0 -128 -49.5 -188.5t-170.5 -60.5q-113 0 -162 62zM286 437v94q0 79 -39 79q-44 0 -44 -79v-94h83z
M197 848q29 12 44 26.5t15 37.5q0 46 -49 46q-23 0 -44 -8v88q39 16 89 16q61 0 95.5 -30.5t34.5 -85.5q0 -109 -133 -150z" />
    <glyph glyph-name="uni0207" unicode="&#x207;" horiz-adv-x="488" 
d="M387 925.5q51 -38.5 51 -117.5l-1 -17l-125 1q0 28 -15 42t-51 14q-37 0 -51.5 -14t-14.5 -42l-125 -1q-2 14 -2 21q0 77 51 114.5t141 37.5q91 0 142 -38.5zM78 54q-49 62 -49 185v294q0 101 58 154t162 53q211 0 211 -207v-53q0 -80 -2 -130h-254v-142q0 -38 8 -59.5
t34 -21.5q20 0 28.5 12t10 27.5t1.5 45.5v71h174v-42q0 -128 -49.5 -188.5t-170.5 -60.5q-113 0 -162 62zM286 437v94q0 79 -39 79q-44 0 -44 -79v-94h83z" />
    <glyph glyph-name="emacron" unicode="&#x113;" horiz-adv-x="488" 
d="M78 54q-49 62 -49 185v294q0 101 58 154t162 53q211 0 211 -207v-53q0 -80 -2 -130h-254v-142q0 -38 8 -59.5t34 -21.5q20 0 28.5 12t10 27.5t1.5 45.5v71h174v-42q0 -128 -49.5 -188.5t-170.5 -60.5q-113 0 -162 62zM286 437v94q0 79 -39 79q-44 0 -44 -79v-94h83z
M88 799v74h318v-74h-318z" />
    <glyph glyph-name="eogonek" unicode="&#x119;" horiz-adv-x="488" 
d="M204 350v-142q0 -38 8 -59.5t34 -21.5q20 0 28.5 12t10 27.5t1.5 45.5v71h174v-42q0 -109 -35.5 -169t-119.5 -75l-15 -18q-31 -36 -46 -60.5t-15 -54.5q0 -27 14.5 -41t41.5 -14q24 0 57 11v-109q-45 -19 -97 -19q-46 0 -85 18t-62 51t-23 78q0 85 120 156
q-88 12 -127 73t-39 171v294q0 101 58 154t162 53q211 0 211 -207v-53q0 -80 -2 -130h-254zM286 437v94q0 79 -39 79q-44 0 -44 -79v-94h83z" />
    <glyph glyph-name="uni1EBD" unicode="&#x1ebd;" horiz-adv-x="488" 
d="M78 54q-49 62 -49 185v294q0 101 58 154t162 53q211 0 211 -207v-53q0 -80 -2 -130h-254v-142q0 -38 8 -59.5t34 -21.5q20 0 28.5 12t10 27.5t1.5 45.5v71h174v-42q0 -128 -49.5 -188.5t-170.5 -60.5q-113 0 -162 62zM286 437v94q0 79 -39 79q-44 0 -44 -79v-94h83z
M278.5 802q-23.5 7 -56.5 20q-16 7 -31 12t-26 5q-29 0 -45 -33l-73 38q22 54 47.5 81.5t73.5 27.5q26 0 47 -6t55 -19q36 -16 54 -16q28 0 46 36l81 -26q-15 -42 -28.5 -67.5t-36 -42.5t-56.5 -17q-28 0 -51.5 7z" />
    <glyph glyph-name="uni0259" unicode="&#x259;" horiz-adv-x="488" 
d="M28 199v53q0 80 2 130h254v142q0 38 -8 59.5t-34 21.5q-20 0 -28.5 -11.5t-10 -27.5t-1.5 -46v-70h-174v41q0 128 49.5 188.5t170.5 60.5q113 0 162 -62t49 -184v-295q0 -101 -58 -154t-162 -53q-211 0 -211 207zM285 202v93h-83v-93q0 -79 39 -79q44 0 44 79z" />
    <glyph glyph-name="f" unicode="f" horiz-adv-x="280" 
d="M51 567h-31l1 133h30v50q0 118 118 118q56 0 90 -14v-108q-10 3 -16 3q-14 0 -18 -10t-4 -30v-9h38v-135h-34v-565h-174v567z" />
    <glyph glyph-name="g" unicode="g" horiz-adv-x="504" 
d="M109.5 -94.5q-44.5 12.5 -87.5 47.5l60 101q64 -38 127 -38q41 0 62 26t21 71v40q-21 -75 -111 -75q-75 0 -110.5 51t-35.5 136v275q0 97 32.5 148.5t113.5 51.5q47 0 74.5 -23.5t36.5 -66.5v82h179v-608q0 -123 -57 -177t-182 -54q-78 0 -122.5 12.5zM292 284v261
q0 22 -12 42t-30 20q-23 0 -31 -16.5t-8 -45.5v-261q0 -33 8 -53.5t32 -20.5q41 0 41 74z" />
    <glyph glyph-name="gbreve" unicode="&#x11f;" horiz-adv-x="504" 
d="M109.5 -94.5q-44.5 12.5 -87.5 47.5l60 101q64 -38 127 -38q41 0 62 26t21 71v40q-21 -75 -111 -75q-75 0 -110.5 51t-35.5 136v275q0 97 32.5 148.5t113.5 51.5q47 0 74.5 -23.5t36.5 -66.5v82h179v-608q0 -123 -57 -177t-182 -54q-78 0 -122.5 12.5zM292 284v261
q0 22 -12 42t-30 20q-23 0 -31 -16.5t-8 -45.5v-261q0 -33 8 -53.5t32 -20.5q41 0 41 74zM110 814.5q-51 37.5 -51 114.5q0 7 2 21l125 -1q0 -28 14.5 -42t51.5 -14q36 0 51 14t15 42l125 1l1 -17q0 -79 -51 -117.5t-142 -38.5q-90 0 -141 37.5z" />
    <glyph glyph-name="gcaron" unicode="&#x1e7;" horiz-adv-x="504" 
d="M109.5 -94.5q-44.5 12.5 -87.5 47.5l60 101q64 -38 127 -38q41 0 62 26t21 71v40q-21 -75 -111 -75q-75 0 -110.5 51t-35.5 136v275q0 97 32.5 148.5t113.5 51.5q47 0 74.5 -23.5t36.5 -66.5v82h179v-608q0 -123 -57 -177t-182 -54q-78 0 -122.5 12.5zM292 284v261
q0 22 -12 42t-30 20q-23 0 -31 -16.5t-8 -45.5v-261q0 -33 8 -53.5t32 -20.5q41 0 41 74zM149 777l-117 197h175l42 -140l42 140h175l-118 -197h-199z" />
    <glyph glyph-name="gcircumflex" unicode="&#x11d;" horiz-adv-x="504" 
d="M109.5 -94.5q-44.5 12.5 -87.5 47.5l60 101q64 -38 127 -38q41 0 62 26t21 71v40q-21 -75 -111 -75q-75 0 -110.5 51t-35.5 136v275q0 97 32.5 148.5t113.5 51.5q47 0 74.5 -23.5t36.5 -66.5v82h179v-608q0 -123 -57 -177t-182 -54q-78 0 -122.5 12.5zM292 284v261
q0 22 -12 42t-30 20q-23 0 -31 -16.5t-8 -45.5v-261q0 -33 8 -53.5t32 -20.5q41 0 41 74zM32 777l117 197h199l118 -197h-175l-42 139l-42 -139h-175z" />
    <glyph glyph-name="gcommaaccent" unicode="&#x123;" horiz-adv-x="504" 
d="M109.5 -94.5q-44.5 12.5 -87.5 47.5l60 101q64 -38 127 -38q41 0 62 26t21 71v40q-21 -75 -111 -75q-75 0 -110.5 51t-35.5 136v275q0 97 32.5 148.5t113.5 51.5q47 0 74.5 -23.5t36.5 -66.5v82h179v-608q0 -123 -57 -177t-182 -54q-78 0 -122.5 12.5zM292 284v261
q0 22 -12 42t-30 20q-23 0 -31 -16.5t-8 -45.5v-261q0 -33 8 -53.5t32 -20.5q41 0 41 74zM160 842v141l49 120h103l-32 -115h62v-146h-182z" />
    <glyph glyph-name="gdotaccent" unicode="&#x121;" horiz-adv-x="504" 
d="M109.5 -94.5q-44.5 12.5 -87.5 47.5l60 101q64 -38 127 -38q41 0 62 26t21 71v40q-21 -75 -111 -75q-75 0 -110.5 51t-35.5 136v275q0 97 32.5 148.5t113.5 51.5q47 0 74.5 -23.5t36.5 -66.5v82h179v-608q0 -123 -57 -177t-182 -54q-78 0 -122.5 12.5zM292 284v261
q0 22 -12 42t-30 20q-23 0 -31 -16.5t-8 -45.5v-261q0 -33 8 -53.5t32 -20.5q41 0 41 74zM162 777v146h175v-146h-175z" />
    <glyph glyph-name="h" unicode="h" horiz-adv-x="505" 
d="M35 864h180v-204q28 80 107 80q74 0 112 -47t38 -129v-564h-175v553q0 24 -11 39t-32 15q-18 0 -28.5 -15.5t-10.5 -37.5v-554h-180v864z" />
    <glyph glyph-name="hbar" unicode="&#x127;" horiz-adv-x="505" 
d="M434 693q38 -47 38 -129v-564h-175v553q0 24 -11 39t-32 15q-18 0 -28.5 -15.5t-10.5 -37.5v-554h-180v739h-74v74h74v51h180v-51h64v-74h-64v-79q28 80 107 80q74 0 112 -47z" />
    <glyph glyph-name="hcircumflex" unicode="&#x125;" horiz-adv-x="505" 
d="M35 864h180v-204q28 80 107 80q74 0 112 -47t38 -129v-564h-175v553q0 24 -11 39t-32 15q-18 0 -28.5 -15.5t-10.5 -37.5v-554h-180v864zM-92 909l117 197h199l118 -197h-175l-42 139l-42 -139h-175z" />
    <glyph glyph-name="i" unicode="i" horiz-adv-x="243" 
d="M34 781v122h175v-122h-175zM34 0v732h175v-732h-175z" />
    <glyph glyph-name="dotlessi" unicode="&#x131;" horiz-adv-x="235" 
d="M30 0v732h175v-732h-175z" />
    <glyph glyph-name="iacute" unicode="&#xed;" horiz-adv-x="235" 
d="M30 0v732h175v-732h-175zM1 758v109l232 107v-170z" />
    <glyph glyph-name="ibreve" unicode="&#x12d;" horiz-adv-x="235" 
d="M30 0v732h175v-732h-175zM-21 814.5q-51 37.5 -51 114.5q0 7 2 21l125 -1q0 -28 14.5 -42t51.5 -14q36 0 51 14t15 42l125 1l1 -17q0 -79 -51 -117.5t-142 -38.5q-90 0 -141 37.5z" />
    <glyph glyph-name="icircumflex" unicode="&#xee;" horiz-adv-x="235" 
d="M30 0v732h175v-732h-175zM-99 777l117 197h199l118 -197h-175l-42 139l-42 -139h-175z" />
    <glyph glyph-name="uni0209" unicode="&#x209;" horiz-adv-x="235" 
d="M30 0v732h175v-732h-175zM12 774l-141 210l114 53l108 -234zM160 774l-122 210l113 53l90 -234z" />
    <glyph glyph-name="idieresis" unicode="&#xef;" horiz-adv-x="235" 
d="M30 0v732h175v-732h-175zM-91 781v145h175v-145h-175zM146 781v145h174v-145h-174z" />
    <glyph glyph-name="i.loclTRK" horiz-adv-x="235" 
d="M30 0v732h175v-732h-175zM31 777v146h175v-146h-175z" />
    <glyph glyph-name="uni1ECB" unicode="&#x1ecb;" horiz-adv-x="243" 
d="M34 781v122h175v-122h-175zM34 0v732h175v-732h-175zM35 -204v146h175v-146h-175z" />
    <glyph glyph-name="igrave" unicode="&#xec;" horiz-adv-x="235" 
d="M30 0v732h175v-732h-175zM234 758l-232 46v170l232 -107v-109z" />
    <glyph glyph-name="uni1EC9" unicode="&#x1ec9;" horiz-adv-x="235" 
d="M30 0v732h175v-732h-175zM66 840q29 12 44 26.5t15 37.5q0 46 -49 46q-23 0 -44 -8v88q39 16 89 16q61 0 95.5 -30.5t34.5 -85.5q0 -109 -133 -150z" />
    <glyph glyph-name="uni020B" unicode="&#x20b;" horiz-adv-x="257" 
d="M270 925.5q51 -38.5 51 -117.5l-1 -17l-125 1q0 28 -15 42t-51 14q-37 0 -51.5 -14t-14.5 -42l-125 -1q-2 14 -2 21q0 77 51 114.5t141 37.5q91 0 142 -38.5zM30 0v732h175v-732h-175z" />
    <glyph glyph-name="ij" unicode="&#x133;" horiz-adv-x="506" 
d="M34 781v122h175v-122h-175zM34 0v732h175v-732h-175zM297 781v122h175v-122h-175zM260 -73v117q5 -2 16 -2q13 0 17 8.5t4 25.5v656h175v-651q0 -81 -33 -124t-105 -43q-57 0 -74 13z" />
    <glyph glyph-name="imacron" unicode="&#x12b;" horiz-adv-x="235" 
d="M30 0v732h175v-732h-175zM-43 791v74h318v-74h-318z" />
    <glyph glyph-name="iogonek" unicode="&#x12f;" horiz-adv-x="244" 
d="M62 -290q-39 18 -62 51t-23 78q0 89 129 161h103l-18 -21q-31 -37 -45.5 -61t-14.5 -54q0 -27 14.5 -41t41.5 -14q24 0 57 11v-109q-45 -19 -97 -19q-46 0 -85 18zM34 781v122h175v-122h-175zM34 0v732h175v-732h-175z" />
    <glyph glyph-name="itilde" unicode="&#x129;" horiz-adv-x="235" 
d="M30 0v732h175v-732h-175zM147.5 794q-23.5 7 -56.5 20q-16 7 -31 12t-26 5q-29 0 -45 -33l-73 38q22 54 47.5 81.5t73.5 27.5q26 0 47 -6t55 -19q36 -16 54 -16q28 0 46 36l81 -26q-15 -42 -28.5 -67.5t-36 -42.5t-56.5 -17q-28 0 -51.5 7z" />
    <glyph glyph-name="j" unicode="j" horiz-adv-x="263" 
d="M54 781v122h175v-122h-175zM17 -73v117q5 -2 16 -2q13 0 17 8.5t4 25.5v656h175v-651q0 -81 -33 -124t-105 -43q-57 0 -74 13z" />
    <glyph glyph-name="uni0237" unicode="&#x237;" horiz-adv-x="263" 
d="M17 -73v117q5 -2 16 -2q13 0 17 8.5t4 25.5v656h175v-651q0 -81 -33 -124t-105 -43q-57 0 -74 13z" />
    <glyph glyph-name="jcircumflex" unicode="&#x135;" horiz-adv-x="263" 
d="M17 -73v117q5 -2 16 -2q13 0 17 8.5t4 25.5v656h175v-651q0 -81 -33 -124t-105 -43q-57 0 -74 13zM-72 777l117 197h199l118 -197h-175l-42 139l-42 -139h-175z" />
    <glyph glyph-name="k" unicode="k" horiz-adv-x="491" 
d="M35 0v864h173v-384l84 252h181l-110 -318l140 -414h-186l-109 345v-345h-173z" />
    <glyph glyph-name="kcommaaccent" unicode="&#x137;" horiz-adv-x="497" 
d="M212 -311l32 115h-62v146h182v-141l-49 -120h-103zM35 0v864h173v-384l84 252h181l-110 -318l140 -414h-186l-109 345v-345h-173z" />
    <glyph glyph-name="kgreenlandic" unicode="&#x138;" horiz-adv-x="488" 
d="M30 0v732h173v-268l84 268h181l-110 -334l140 -398h-186l-109 329v-329h-173z" />
    <glyph glyph-name="l" unicode="l" horiz-adv-x="248" 
d="M35 0v864h178v-864h-178z" />
    <glyph glyph-name="lacute" unicode="&#x13a;" horiz-adv-x="248" 
d="M35 0v864h178v-864h-178zM7 890v109l232 107v-170z" />
    <glyph glyph-name="lcaron" unicode="&#x13e;" horiz-adv-x="248" 
d="M35 0v864h178v-864h-178zM311 606l32 116h-62v145h183v-141l-50 -120h-103z" />
    <glyph glyph-name="lcommaaccent" unicode="&#x13c;" horiz-adv-x="248" 
d="M35 0v864h178v-864h-178zM74 -314l32 115h-62v146h182v-141l-49 -120h-103z" />
    <glyph glyph-name="ldot" unicode="&#x140;" horiz-adv-x="438" 
d="M35 0v864h178v-864h-178zM265 401v155h156v-155h-156z" />
    <glyph glyph-name="uni01C9" unicode="&#x1c9;" horiz-adv-x="511" 
d="M35 0v864h178v-864h-178zM302 781v122h175v-122h-175zM265 -73v117q5 -2 16 -2q13 0 17 8.5t4 25.5v656h175v-651q0 -81 -33 -124t-105 -43q-57 0 -74 13z" />
    <glyph glyph-name="lslash" unicode="&#x142;" horiz-adv-x="288" 
d="M290 558v-142l-58 -23v-393h-177v324l-56 -22v143l56 22v396h177v-328z" />
    <glyph glyph-name="m" unicode="m" horiz-adv-x="758" 
d="M35 732h171v-85q12 47 41 70t82 23q43 0 74.5 -19.5t44.5 -53.5q22 38 49 55.5t75 17.5q86 0 119.5 -52.5t33.5 -152.5l-2 -535h-176v538q0 71 -36 71q-25 0 -36 -24.5t-11 -58.5v-526h-175v538q0 31 -6.5 50t-27.5 19q-27 0 -38 -26.5t-11 -63.5v-517h-171v732z" />
    <glyph glyph-name="n" unicode="n" horiz-adv-x="499" 
d="M35 732h175v-93q11 45 38 73t72 28q74 0 109.5 -45.5t35.5 -129.5v-565h-172v547q0 24 -9.5 41t-29.5 17q-27 0 -35.5 -24.5t-8.5 -65.5v-515h-175v732z" />
    <glyph glyph-name="nacute" unicode="&#x144;" horiz-adv-x="499" 
d="M35 732h175v-93q11 45 38 73t72 28q74 0 109.5 -45.5t35.5 -129.5v-565h-172v547q0 24 -9.5 41t-29.5 17q-27 0 -35.5 -24.5t-8.5 -65.5v-515h-175v732zM133 758v109l232 107v-170z" />
    <glyph glyph-name="napostrophe" unicode="&#x149;" horiz-adv-x="535" 
d="M-7 778l33 115h-62v145h182v-141l-50 -119h-103zM71 732h175v-93q11 45 38 73t72 28q74 0 109.5 -45.5t35.5 -129.5v-565h-172v547q0 24 -9.5 41t-29.5 17q-27 0 -35.5 -24.5t-8.5 -65.5v-515h-175v732z" />
    <glyph glyph-name="ncaron" unicode="&#x148;" horiz-adv-x="499" 
d="M35 732h175v-93q11 45 38 73t72 28q74 0 109.5 -45.5t35.5 -129.5v-565h-172v547q0 24 -9.5 41t-29.5 17q-27 0 -35.5 -24.5t-8.5 -65.5v-515h-175v732zM150 777l-117 197h175l42 -140l42 140h175l-118 -197h-199z" />
    <glyph glyph-name="ncommaaccent" unicode="&#x146;" horiz-adv-x="499" 
d="M35 732h175v-93q11 45 38 73t72 28q74 0 109.5 -45.5t35.5 -129.5v-565h-172v547q0 24 -9.5 41t-29.5 17q-27 0 -35.5 -24.5t-8.5 -65.5v-515h-175v732zM185 -314l32 115h-62v146h182v-141l-49 -120h-103z" />
    <glyph glyph-name="eng" unicode="&#x14b;" horiz-adv-x="489" 
d="M429.5 694.5q35.5 -45.5 35.5 -129.5v-574q0 -116 -60.5 -172.5t-156.5 -56.5q-51 0 -106 15t-105 43l39 101q85 -36 133 -36q39 0 61.5 23t22.5 72v567q0 24 -9.5 41t-29.5 17q-27 0 -35.5 -24.5t-8.5 -65.5v-515h-175v732h175v-93q11 45 38 73t72 28q74 0 109.5 -45.5z
" />
    <glyph glyph-name="uni01CC" unicode="&#x1cc;" horiz-adv-x="762" 
d="M35 732h175v-93q11 45 38 73t72 28q74 0 109.5 -45.5t35.5 -129.5v-565h-172v547q0 24 -9.5 41t-29.5 17q-27 0 -35.5 -24.5t-8.5 -65.5v-515h-175v732zM553 781v122h175v-122h-175zM516 -73v117q5 -2 16 -2q13 0 17 8.5t4 25.5v656h175v-651q0 -81 -33 -124t-105 -43
q-57 0 -74 13z" />
    <glyph glyph-name="ntilde" unicode="&#xf1;" horiz-adv-x="499" 
d="M35 732h175v-93q11 45 38 73t72 28q74 0 109.5 -45.5t35.5 -129.5v-565h-172v547q0 24 -9.5 41t-29.5 17q-27 0 -35.5 -24.5t-8.5 -65.5v-515h-175v732zM279.5 794q-23.5 7 -56.5 20q-16 7 -31 12t-26 5q-29 0 -45 -33l-73 38q22 54 47.5 81.5t73.5 27.5q26 0 47 -6
t55 -19q36 -16 54 -16q28 0 46 36l81 -26q-15 -42 -28.5 -67.5t-36 -42.5t-56.5 -17q-28 0 -51.5 7z" />
    <glyph glyph-name="o" unicode="o" horiz-adv-x="497" 
d="M29 219v294q0 104 58.5 165.5t160.5 61.5t160.5 -61.5t58.5 -165.5v-294q0 -227 -219 -227t-219 227zM279 142q10 15 10 41v358q0 64 -41 64t-41 -64v-358q0 -26 10 -41t31 -15t31 15z" />
    <glyph glyph-name="oacute" unicode="&#xf3;" horiz-adv-x="497" 
d="M29 219v294q0 104 58.5 165.5t160.5 61.5t160.5 -61.5t58.5 -165.5v-294q0 -227 -219 -227t-219 227zM279 142q10 15 10 41v358q0 64 -41 64t-41 -64v-358q0 -26 10 -41t31 -15t31 15zM131 766v109l232 107v-170z" />
    <glyph glyph-name="obreve" unicode="&#x14f;" horiz-adv-x="497" 
d="M29 219v294q0 104 58.5 165.5t160.5 61.5t160.5 -61.5t58.5 -165.5v-294q0 -227 -219 -227t-219 227zM279 142q10 15 10 41v358q0 64 -41 64t-41 -64v-358q0 -26 10 -41t31 -15t31 15zM109 822.5q-51 37.5 -51 114.5q0 7 2 21l125 -1q0 -28 14.5 -42t51.5 -14q36 0 51 14
t15 42l125 1l1 -17q0 -79 -51 -117.5t-142 -38.5q-90 0 -141 37.5z" />
    <glyph glyph-name="ocircumflex" unicode="&#xf4;" horiz-adv-x="497" 
d="M29 219v294q0 104 58.5 165.5t160.5 61.5t160.5 -61.5t58.5 -165.5v-294q0 -227 -219 -227t-219 227zM279 142q10 15 10 41v358q0 64 -41 64t-41 -64v-358q0 -26 10 -41t31 -15t31 15zM31 785l117 197h199l118 -197h-175l-42 139l-42 -139h-175z" />
    <glyph glyph-name="uni1ED1" unicode="&#x1ed1;" horiz-adv-x="497" 
d="M29 219v294q0 104 58.5 165.5t160.5 61.5t160.5 -61.5t58.5 -165.5v-294q0 -227 -219 -227t-219 227zM279 142q10 15 10 41v358q0 64 -41 64t-41 -64v-358q0 -26 10 -41t31 -15t31 15zM401 895l80 144h150l-116 -144h-114zM31 777l117 148h200l117 -148h-173l-44 95
l-44 -95h-173z" />
    <glyph glyph-name="uni1ED9" unicode="&#x1ed9;" horiz-adv-x="497" 
d="M29 219v294q0 104 58.5 165.5t160.5 61.5t160.5 -61.5t58.5 -165.5v-294q0 -227 -219 -227t-219 227zM279 142q10 15 10 41v358q0 64 -41 64t-41 -64v-358q0 -26 10 -41t31 -15t31 15zM161 -204v146h175v-146h-175zM31 785l117 197h199l118 -197h-175l-42 139l-42 -139
h-175z" />
    <glyph glyph-name="uni1ED3" unicode="&#x1ed3;" horiz-adv-x="497" 
d="M29 219v294q0 104 58.5 165.5t160.5 61.5t160.5 -61.5t58.5 -165.5v-294q0 -227 -219 -227t-219 227zM279 142q10 15 10 41v358q0 64 -41 64t-41 -64v-358q0 -26 10 -41t31 -15t31 15zM430 895l-117 144h150l80 -144h-113zM31 777l117 148h200l117 -148h-173l-44 95
l-44 -95h-173z" />
    <glyph glyph-name="uni1ED5" unicode="&#x1ed5;" horiz-adv-x="497" 
d="M29 219v294q0 104 58.5 165.5t160.5 61.5t160.5 -61.5t58.5 -165.5v-294q0 -227 -219 -227t-219 227zM279 142q10 15 10 41v358q0 64 -41 64t-41 -64v-358q0 -26 10 -41t31 -15t31 15zM373 938q28 10 43 25t15 38t-13 35t-36 12t-44 -8v88q43 16 89 16q61 0 95.5 -30.5
t34.5 -85.5q0 -108 -133 -151zM55 777l108 153h170l108 -153h-149l-44 95l-44 -95h-149z" />
    <glyph glyph-name="uni1ED7" unicode="&#x1ed7;" horiz-adv-x="497" 
d="M29 219v294q0 104 58.5 165.5t160.5 61.5t160.5 -61.5t58.5 -165.5v-294q0 -227 -219 -227t-219 227zM279 142q10 15 10 41v358q0 64 -41 64t-41 -64v-358q0 -26 10 -41t31 -15t31 15zM290 967q-19 6 -44 18q-27 11 -42 16t-31 5q-34 0 -54 -33l-73 38q21 50 45 76t68 26
q21 0 39 -6t44 -17q23 -10 39 -15.5t33 -5.5q18 0 30 8t25 28l81 -26q-15 -39 -28.5 -63t-36 -39.5t-56.5 -15.5q-20 0 -39 6zM31 777l117 148h200l117 -148h-173l-44 95l-44 -95h-173z" />
    <glyph glyph-name="uni020D" unicode="&#x20d;" horiz-adv-x="497" 
d="M29 219v294q0 104 58.5 165.5t160.5 61.5t160.5 -61.5t58.5 -165.5v-294q0 -227 -219 -227t-219 227zM279 142q10 15 10 41v358q0 64 -41 64t-41 -64v-358q0 -26 10 -41t31 -15t31 15zM142 782l-141 210l114 53l108 -234zM290 782l-122 210l113 53l90 -234z" />
    <glyph glyph-name="odieresis" unicode="&#xf6;" horiz-adv-x="497" 
d="M29 219v294q0 104 58.5 165.5t160.5 61.5t160.5 -61.5t58.5 -165.5v-294q0 -227 -219 -227t-219 227zM279 142q10 15 10 41v358q0 64 -41 64t-41 -64v-358q0 -26 10 -41t31 -15t31 15zM39 789v145h175v-145h-175zM276 789v145h174v-145h-174z" />
    <glyph glyph-name="uni022B" unicode="&#x22b;" horiz-adv-x="497" 
d="M29 219v294q0 104 58.5 165.5t160.5 61.5t160.5 -61.5t58.5 -165.5v-294q0 -227 -219 -227t-219 227zM279 142q10 15 10 41v358q0 64 -41 64t-41 -64v-358q0 -26 10 -41t31 -15t31 15zM42 781v121h175v-121h-175zM279 781v121h175v-121h-175zM89 955v74h318v-74h-318z
" />
    <glyph glyph-name="uni0231" unicode="&#x231;" horiz-adv-x="497" 
d="M29 219v294q0 104 58.5 165.5t160.5 61.5t160.5 -61.5t58.5 -165.5v-294q0 -227 -219 -227t-219 227zM279 142q10 15 10 41v358q0 64 -41 64t-41 -64v-358q0 -26 10 -41t31 -15t31 15zM161 777v126h174v-126h-174zM89 946v74h318v-74h-318z" />
    <glyph glyph-name="uni1ECD" unicode="&#x1ecd;" horiz-adv-x="497" 
d="M29 219v294q0 104 58.5 165.5t160.5 61.5t160.5 -61.5t58.5 -165.5v-294q0 -227 -219 -227t-219 227zM279 142q10 15 10 41v358q0 64 -41 64t-41 -64v-358q0 -26 10 -41t31 -15t31 15zM161 -204v146h175v-146h-175z" />
    <glyph glyph-name="ograve" unicode="&#xf2;" horiz-adv-x="497" 
d="M29 219v294q0 104 58.5 165.5t160.5 61.5t160.5 -61.5t58.5 -165.5v-294q0 -227 -219 -227t-219 227zM279 142q10 15 10 41v358q0 64 -41 64t-41 -64v-358q0 -26 10 -41t31 -15t31 15zM364 766l-232 46v170l232 -107v-109z" />
    <glyph glyph-name="uni1ECF" unicode="&#x1ecf;" horiz-adv-x="497" 
d="M29 219v294q0 104 58.5 165.5t160.5 61.5t160.5 -61.5t58.5 -165.5v-294q0 -227 -219 -227t-219 227zM279 142q10 15 10 41v358q0 64 -41 64t-41 -64v-358q0 -26 10 -41t31 -15t31 15zM196 848q29 12 44 26.5t15 37.5q0 46 -49 46q-23 0 -44 -8v88q39 16 89 16
q61 0 95.5 -30.5t34.5 -85.5q0 -109 -133 -150z" />
    <glyph glyph-name="ohorn" unicode="&#x1a1;" horiz-adv-x="497" 
d="M420 667q47 -60 47 -154v-294q0 -227 -219 -227t-219 227v294q0 104 58.5 165.5t160.5 61.5h38q56 0 56 61v11l136 1v-8q0 -95 -58 -138zM289 541q0 64 -41 64t-41 -64v-358q0 -26 10 -41t31 -15t31 15t10 41v358z" />
    <glyph glyph-name="uni1EDB" unicode="&#x1edb;" horiz-adv-x="497" 
d="M420 667q47 -60 47 -154v-294q0 -227 -219 -227t-219 227v294q0 104 58.5 165.5t160.5 61.5h38q56 0 56 61v11l136 1v-8q0 -95 -58 -138zM289 541q0 64 -41 64t-41 -64v-358q0 -26 10 -41t31 -15t31 15t10 41v358zM131 800v109l232 107v-170z" />
    <glyph glyph-name="uni1EE3" unicode="&#x1ee3;" horiz-adv-x="497" 
d="M420 667q47 -60 47 -154v-294q0 -227 -219 -227t-219 227v294q0 104 58.5 165.5t160.5 61.5h38q56 0 56 61v11l136 1v-8q0 -95 -58 -138zM289 541q0 64 -41 64t-41 -64v-358q0 -26 10 -41t31 -15t31 15t10 41v358zM161 -204v146h175v-146h-175z" />
    <glyph glyph-name="uni1EDD" unicode="&#x1edd;" horiz-adv-x="497" 
d="M420 667q47 -60 47 -154v-294q0 -227 -219 -227t-219 227v294q0 104 58.5 165.5t160.5 61.5h38q56 0 56 61v11l136 1v-8q0 -95 -58 -138zM289 541q0 64 -41 64t-41 -64v-358q0 -26 10 -41t31 -15t31 15t10 41v358zM364 832l-232 46v170l232 -107v-109z" />
    <glyph glyph-name="uni1EDF" unicode="&#x1edf;" horiz-adv-x="497" 
d="M420 667q47 -60 47 -154v-294q0 -227 -219 -227t-219 227v294q0 104 58.5 165.5t160.5 61.5h38q56 0 56 61v11l136 1v-8q0 -95 -58 -138zM289 541q0 64 -41 64t-41 -64v-358q0 -26 10 -41t31 -15t31 15t10 41v358zM196 867q29 12 44 26.5t15 37.5q0 46 -49 46
q-23 0 -44 -8v88q39 16 89 16q61 0 95.5 -30.5t34.5 -85.5q0 -109 -133 -150z" />
    <glyph glyph-name="uni1EE1" unicode="&#x1ee1;" horiz-adv-x="497" 
d="M420 667q47 -60 47 -154v-294q0 -227 -219 -227t-219 227v294q0 104 58.5 165.5t160.5 61.5h38q56 0 56 61v11l136 1v-8q0 -95 -58 -138zM289 541q0 64 -41 64t-41 -64v-358q0 -26 10 -41t31 -15t31 15t10 41v358zM277.5 846q-23.5 7 -56.5 20q-16 7 -31 12t-26 5
q-29 0 -45 -33l-73 38q22 54 47.5 81.5t73.5 27.5q26 0 47 -6t55 -19q36 -16 54 -16q28 0 46 36l81 -26q-15 -42 -28.5 -67.5t-36 -42.5t-56.5 -17q-28 0 -51.5 7z" />
    <glyph glyph-name="ohungarumlaut" unicode="&#x151;" horiz-adv-x="497" 
d="M29 219v294q0 104 58.5 165.5t160.5 61.5t160.5 -61.5t58.5 -165.5v-294q0 -227 -219 -227t-219 227zM279 142q10 15 10 41v358q0 64 -41 64t-41 -64v-358q0 -26 10 -41t31 -15t31 15zM213 792l-81 29l89 233l113 -52zM360 792l-81 29l108 233l114 -52z" />
    <glyph glyph-name="uni020F" unicode="&#x20f;" horiz-adv-x="497" 
d="M390 925.5q51 -38.5 51 -117.5l-1 -17l-125 1q0 28 -15 42t-51 14q-37 0 -51.5 -14t-14.5 -42l-125 -1q-2 14 -2 21q0 77 51 114.5t141 37.5q91 0 142 -38.5zM29 219v294q0 104 58.5 165.5t160.5 61.5t160.5 -61.5t58.5 -165.5v-294q0 -227 -219 -227t-219 227zM279 142
q10 15 10 41v358q0 64 -41 64t-41 -64v-358q0 -26 10 -41t31 -15t31 15z" />
    <glyph glyph-name="omacron" unicode="&#x14d;" horiz-adv-x="497" 
d="M29 219v294q0 104 58.5 165.5t160.5 61.5t160.5 -61.5t58.5 -165.5v-294q0 -227 -219 -227t-219 227zM279 142q10 15 10 41v358q0 64 -41 64t-41 -64v-358q0 -26 10 -41t31 -15t31 15zM87 799v74h318v-74h-318z" />
    <glyph glyph-name="uni01EB" unicode="&#x1eb;" horiz-adv-x="497" 
d="M406 43l-14 -16q-29 -34 -44 -59.5t-15 -54.5q0 -27 14.5 -41t41.5 -14q24 0 57 11v-109q-45 -19 -97 -19q-46 0 -85 18t-62 51t-23 78q0 56 50 104q-200 11 -200 227v294q0 104 58.5 165.5t160.5 61.5t160.5 -61.5t58.5 -165.5v-294q0 -118 -61 -176zM217 142
q10 -15 31 -15t31 15t10 41v358q0 64 -41 64t-41 -64v-358q0 -26 10 -41z" />
    <glyph glyph-name="oslash" unicode="&#xf8;" horiz-adv-x="483" 
d="M415 671q52 -60 52 -158v-294q0 -227 -219 -227q-59 0 -100 16l-40 -93l-66 25l45 106q-58 55 -58 173v294q0 104 58.5 165.5t160.5 61.5q64 0 112 -25l49 96l69 -28zM289 541q0 64 -41 64t-41 -64v-358q0 -26 10 -41t31 -15t31 15t10 41v358z" />
    <glyph glyph-name="oslashacute" unicode="&#x1ff;" horiz-adv-x="483" 
d="M415 671q52 -60 52 -158v-294q0 -227 -219 -227q-59 0 -100 16l-40 -93l-66 25l45 106q-58 55 -58 173v294q0 104 58.5 165.5t160.5 61.5q64 0 112 -25l49 96l69 -28zM289 541q0 64 -41 64t-41 -64v-358q0 -26 10 -41t31 -15t31 15t10 41v358zM131 766v109l232 107v-170z
" />
    <glyph glyph-name="otilde" unicode="&#xf5;" horiz-adv-x="497" 
d="M29 219v294q0 104 58.5 165.5t160.5 61.5t160.5 -61.5t58.5 -165.5v-294q0 -227 -219 -227t-219 227zM279 142q10 15 10 41v358q0 64 -41 64t-41 -64v-358q0 -26 10 -41t31 -15t31 15zM277.5 802q-23.5 7 -56.5 20q-16 7 -31 12t-26 5q-29 0 -45 -33l-73 38
q22 54 47.5 81.5t73.5 27.5q26 0 47 -6t55 -19q36 -16 54 -16q28 0 46 36l81 -26q-15 -42 -28.5 -67.5t-36 -42.5t-56.5 -17q-28 0 -51.5 7z" />
    <glyph glyph-name="uni022D" unicode="&#x22d;" horiz-adv-x="497" 
d="M29 219v294q0 104 58.5 165.5t160.5 61.5t160.5 -61.5t58.5 -165.5v-294q0 -227 -219 -227t-219 227zM279 142q10 15 10 41v358q0 64 -41 64t-41 -64v-358q0 -26 10 -41t31 -15t31 15zM277.5 779q-23.5 7 -56.5 20q-16 7 -31 12t-26 5q-29 0 -45 -33l-73 38
q22 49 47.5 74t73.5 25q26 0 47 -6t55 -19q36 -16 54 -16q14 0 25 8.5t21 28.5l81 -26q-15 -39 -28.5 -63t-36 -39.5t-56.5 -15.5q-28 0 -51.5 7zM89 960v74h318v-74h-318z" />
    <glyph glyph-name="oe" unicode="&#x153;" horiz-adv-x="739" 
d="M23 219v294q0 104 58.5 166t160.5 62q76 0 130 -47q48 47 131 47q211 0 211 -208v-53q0 -86 -2 -136h-254v-103v-33q0 -38 8 -59.5t34 -21.5t33.5 28.5t7.5 74.5q0 50 -1 53h174v-42q0 -128 -50 -189t-170 -61q-74 0 -120 43q-50 -43 -132 -43q-219 0 -219 228zM540 455
v76q0 79 -39 79q-29 0 -36.5 -24.5t-7.5 -69.5l1 -61h82zM273 142q10 15 10 41v358q0 64 -41 64t-41 -64v-358q0 -26 10 -41t31 -15t31 15z" />
    <glyph glyph-name="p" unicode="p" horiz-adv-x="500" 
d="M35 732h178v-39q38 47 105 47q85 0 118.5 -57t33.5 -158v-271q0 -86 -10 -140.5t-44 -88t-103 -33.5q-66 0 -100 37v-175h-178v878zM286 150q7 22 7 64v311q0 38 -7 58t-32 20q-41 0 -41 -76v-321q0 -37 8.5 -57.5t33.5 -20.5q24 0 31 22z" />
    <glyph glyph-name="thorn" unicode="&#xfe;" horiz-adv-x="492" 
d="M30 864h180v-167q44 45 98 45q85 0 122 -51t37 -147v-353q0 -90 -38 -145t-116 -55q-71 0 -103 87v-168h-180v954zM279.5 139.5q7.5 11.5 9 29t1.5 54.5v305q0 39 -7 58t-30 19q-25 0 -34 -19t-9 -56v-307q0 -48 8 -71.5t36 -23.5q18 0 25.5 11.5z" />
    <glyph glyph-name="q" unicode="q" horiz-adv-x="500" 
d="M286 44q-17 -23 -42.5 -37.5t-57.5 -14.5q-68 0 -102 29.5t-44.5 80t-10.5 133.5v290q0 101 34 158t118 57q67 0 105 -47v39h178v-878h-178v190zM277.5 148.5q8.5 20.5 8.5 57.5v321q0 76 -41 76q-25 0 -32 -20.5t-7 -57.5v-311q0 -42 7 -64t31 -22q25 0 33.5 20.5z" />
    <glyph glyph-name="r" unicode="r" horiz-adv-x="344" 
d="M35 732h175v-81q13 43 45.5 66.5t80.5 23.5v-146q-37 0 -81.5 -10.5t-44.5 -24.5v-560h-175v732z" />
    <glyph glyph-name="racute" unicode="&#x155;" horiz-adv-x="344" 
d="M35 732h175v-81q13 43 45.5 66.5t80.5 23.5v-146q-37 0 -81.5 -10.5t-44.5 -24.5v-560h-175v732zM70 758v109l232 107v-170z" />
    <glyph glyph-name="rcaron" unicode="&#x159;" horiz-adv-x="342" 
d="M92 791l-117 197h175l42 -140l42 140h175l-118 -197h-199zM35 732h175v-81q13 43 45.5 66.5t80.5 23.5v-146q-37 0 -81.5 -10.5t-44.5 -24.5v-560h-175v732z" />
    <glyph glyph-name="rcommaaccent" unicode="&#x157;" horiz-adv-x="344" 
d="M35 732h175v-81q13 43 45.5 66.5t80.5 23.5v-146q-37 0 -81.5 -10.5t-44.5 -24.5v-560h-175v732zM62 -314l32 115h-62v146h182v-141l-49 -120h-103z" />
    <glyph glyph-name="uni0211" unicode="&#x211;" horiz-adv-x="344" 
d="M35 732h175v-81q13 43 45.5 66.5t80.5 23.5v-146q-37 0 -81.5 -10.5t-44.5 -24.5v-560h-175v732zM81 774l-141 210l114 53l108 -234zM229 774l-122 210l113 53l90 -234z" />
    <glyph glyph-name="uni0213" unicode="&#x213;" horiz-adv-x="342" 
d="M333 925.5q51 -38.5 51 -117.5l-1 -17l-125 1q0 28 -15 42t-51 14q-37 0 -51.5 -14t-14.5 -42l-125 -1q-2 14 -2 21q0 77 51 114.5t141 37.5q91 0 142 -38.5zM35 732h175v-81q13 43 45.5 66.5t80.5 23.5v-146q-37 0 -81.5 -10.5t-44.5 -24.5v-560h-175v732z" />
    <glyph glyph-name="s" unicode="s" horiz-adv-x="475" 
d="M19 212l1 58h175l1 -86q0 -26 10 -39.5t33 -13.5q35 0 35 57q0 42 -16.5 66t-52.5 51l-93 72q-48 37 -69 76.5t-21 111.5q0 56 29.5 95.5t78.5 59.5t109 20q213 0 213 -212v-14h-181v28q0 26 -8.5 44.5t-28.5 18.5q-18 0 -27.5 -10.5t-9.5 -28.5q0 -40 31 -62l108 -79
q58 -43 89 -93.5t31 -127.5q0 -102 -58 -157t-162 -55q-217 0 -217 220z" />
    <glyph glyph-name="sacute" unicode="&#x15b;" horiz-adv-x="475" 
d="M19 212l1 58h175l1 -86q0 -26 10 -39.5t33 -13.5q35 0 35 57q0 42 -16.5 66t-52.5 51l-93 72q-48 37 -69 76.5t-21 111.5q0 56 29.5 95.5t78.5 59.5t109 20q213 0 213 -212v-14h-181v28q0 26 -8.5 44.5t-28.5 18.5q-18 0 -27.5 -10.5t-9.5 -28.5q0 -40 31 -62l108 -79
q58 -43 89 -93.5t31 -127.5q0 -102 -58 -157t-162 -55q-217 0 -217 220zM122 758v109l232 107v-170z" />
    <glyph glyph-name="scaron" unicode="&#x161;" horiz-adv-x="476" 
d="M139 791l-117 197h175l42 -140l42 140h175l-118 -197h-199zM19 212l1 58h175l1 -86q0 -26 10 -39.5t33 -13.5q35 0 35 57q0 42 -16.5 66t-52.5 51l-93 72q-48 37 -69 76.5t-21 111.5q0 56 29.5 95.5t78.5 59.5t109 20q213 0 213 -212v-14h-181v28q0 26 -8.5 44.5
t-28.5 18.5q-18 0 -27.5 -10.5t-9.5 -28.5q0 -40 31 -62l108 -79q58 -43 89 -93.5t31 -127.5q0 -102 -58 -157t-162 -55q-217 0 -217 220z" />
    <glyph glyph-name="scedilla" unicode="&#x15f;" horiz-adv-x="475" 
d="M408 57q-48 -54 -135 -63q44 -41 68.5 -89.5t24.5 -93.5q0 -53 -36.5 -86t-109.5 -33q-50 0 -97 19v109q31 -11 58 -11q57 0 57 58q0 53 -48 128q-171 21 -171 217l1 58h175l1 -86q0 -26 10 -39.5t33 -13.5q35 0 35 57q0 42 -16.5 66t-52.5 51l-93 72q-48 37 -69 76.5
t-21 111.5q0 56 29.5 95.5t78.5 59.5t109 20q213 0 213 -212v-14h-181v28q0 26 -8.5 44.5t-28.5 18.5q-18 0 -27.5 -10.5t-9.5 -28.5q0 -40 31 -62l108 -79q58 -43 89 -93.5t31 -127.5q0 -93 -48 -147z" />
    <glyph glyph-name="scircumflex" unicode="&#x15d;" horiz-adv-x="475" 
d="M19 212l1 58h175l1 -86q0 -26 10 -39.5t33 -13.5q35 0 35 57q0 42 -16.5 66t-52.5 51l-93 72q-48 37 -69 76.5t-21 111.5q0 56 29.5 95.5t78.5 59.5t109 20q213 0 213 -212v-14h-181v28q0 26 -8.5 44.5t-28.5 18.5q-18 0 -27.5 -10.5t-9.5 -28.5q0 -40 31 -62l108 -79
q58 -43 89 -93.5t31 -127.5q0 -102 -58 -157t-162 -55q-217 0 -217 220zM22 777l117 197h199l118 -197h-175l-42 139l-42 -139h-175z" />
    <glyph glyph-name="scommaaccent" unicode="&#x219;" horiz-adv-x="476" 
d="M176 -320l32 115h-62v146h182v-141l-49 -120h-103zM19 212l1 58h175l1 -86q0 -26 10 -39.5t33 -13.5q35 0 35 57q0 42 -16.5 66t-52.5 51l-93 72q-48 37 -69 76.5t-21 111.5q0 56 29.5 95.5t78.5 59.5t109 20q213 0 213 -212v-14h-181v28q0 26 -8.5 44.5t-28.5 18.5
q-18 0 -27.5 -10.5t-9.5 -28.5q0 -40 31 -62l108 -79q58 -43 89 -93.5t31 -127.5q0 -102 -58 -157t-162 -55q-217 0 -217 220z" />
    <glyph glyph-name="germandbls" unicode="&#xdf;" horiz-adv-x="492" 
d="M28 689q0 178 208 178t208 -178v-57q0 -110 -73 -134q58 -13 80 -68t22 -157q0 -123 -43.5 -198t-145.5 -75h-51v137q70 0 70 58v162q0 40 -16 56t-56 16v121q24 0 32.5 15t8.5 43v101q0 38 -36 38q-37 0 -37 -38v-709h-171v689z" />
    <glyph glyph-name="t" unicode="t" horiz-adv-x="305" 
d="M91 21q-26 29 -26 93v457h-49v133h49v155h170v-155h50v-133h-50v-411q0 -19 3 -28t16 -9q10 0 19 1t12 1v-120q-15 -4 -43.5 -8.5t-55.5 -4.5q-69 0 -95 29z" />
    <glyph glyph-name="tbar" unicode="&#x167;" horiz-adv-x="305" 
d="M235 335v-175q0 -19 3 -28t16 -9q10 0 19 1t12 1v-120q-15 -4 -43.5 -8.5t-55.5 -4.5q-69 0 -95 29t-26 93v221h-72v74h72v162h-49v133h49v155h170v-155h50v-133h-50v-162h76v-74h-76z" />
    <glyph glyph-name="tcaron" unicode="&#x165;" horiz-adv-x="305" 
d="M91 21q-26 29 -26 93v457h-49v133h49v155h170v-155h50v-133h-50v-411q0 -19 3 -28t16 -9q10 0 19 1t12 1v-120q-15 -4 -43.5 -8.5t-55.5 -4.5q-69 0 -95 29zM342 606l32 116h-62v145h183v-141l-50 -120h-103z" />
    <glyph glyph-name="uni0163" unicode="&#x163;" horiz-adv-x="305" 
d="M295 -96q25 -49 25 -93q0 -53 -36.5 -86t-109.5 -33q-50 0 -97 19v109q31 -11 58 -11q57 0 57 58q0 26 -12.5 59.5t-35.5 68.5q-44 8 -61.5 36.5t-17.5 82.5v457h-49v133h49v155h170v-155h50v-133h-50v-411q0 -19 3 -28t16 -9q10 0 19 1t12 1v-120q-3 0 -20 -4t-39 -6
q44 -42 69 -91z" />
    <glyph glyph-name="uni021B" unicode="&#x21b;" horiz-adv-x="305" 
d="M91 21q-26 29 -26 93v457h-49v133h49v155h170v-155h50v-133h-50v-411q0 -19 3 -28t16 -9q10 0 19 1t12 1v-120q-15 -4 -43.5 -8.5t-55.5 -4.5q-69 0 -95 29zM120 -314l32 115h-62v146h182v-141l-49 -120h-103z" />
    <glyph glyph-name="u" unicode="u" horiz-adv-x="499" 
d="M63.5 41q-30.5 49 -30.5 146v545h176v-510v-37.5t9.5 -43t29.5 -12.5q27 0 34 22.5t7 64.5v6l1 510h174v-732h-175v78q-18 -46 -42 -66t-71 -20q-82 0 -112.5 49z" />
    <glyph glyph-name="uacute" unicode="&#xfa;" horiz-adv-x="499" 
d="M63.5 41q-30.5 49 -30.5 146v545h176v-510v-37.5t9.5 -43t29.5 -12.5q27 0 34 22.5t7 64.5v6l1 510h174v-732h-175v78q-18 -46 -42 -66t-71 -20q-82 0 -112.5 49zM133 758v109l232 107v-170z" />
    <glyph glyph-name="ubreve" unicode="&#x16d;" horiz-adv-x="499" 
d="M63.5 41q-30.5 49 -30.5 146v545h176v-510v-37.5t9.5 -43t29.5 -12.5q27 0 34 22.5t7 64.5v6l1 510h174v-732h-175v78q-18 -46 -42 -66t-71 -20q-82 0 -112.5 49zM111 814.5q-51 37.5 -51 114.5q0 7 2 21l125 -1q0 -28 14.5 -42t51.5 -14q36 0 51 14t15 42l125 1l1 -17
q0 -79 -51 -117.5t-142 -38.5q-90 0 -141 37.5z" />
    <glyph glyph-name="ucircumflex" unicode="&#xfb;" horiz-adv-x="499" 
d="M63.5 41q-30.5 49 -30.5 146v545h176v-510v-37.5t9.5 -43t29.5 -12.5q27 0 34 22.5t7 64.5v6l1 510h174v-732h-175v78q-18 -46 -42 -66t-71 -20q-82 0 -112.5 49zM33 777l117 197h199l118 -197h-175l-42 139l-42 -139h-175z" />
    <glyph glyph-name="uni0215" unicode="&#x215;" horiz-adv-x="499" 
d="M63.5 41q-30.5 49 -30.5 146v545h176v-510v-37.5t9.5 -43t29.5 -12.5q27 0 34 22.5t7 64.5v6l1 510h174v-732h-175v78q-18 -46 -42 -66t-71 -20q-82 0 -112.5 49zM144 774l-141 210l114 53l108 -234zM292 774l-122 210l113 53l90 -234z" />
    <glyph glyph-name="udieresis" unicode="&#xfc;" horiz-adv-x="499" 
d="M63.5 41q-30.5 49 -30.5 146v545h176v-510v-37.5t9.5 -43t29.5 -12.5q27 0 34 22.5t7 64.5v6l1 510h174v-732h-175v78q-18 -46 -42 -66t-71 -20q-82 0 -112.5 49zM41 781v145h175v-145h-175zM278 781v145h174v-145h-174z" />
    <glyph glyph-name="uni1EE5" unicode="&#x1ee5;" horiz-adv-x="499" 
d="M63.5 41q-30.5 49 -30.5 146v545h176v-510v-37.5t9.5 -43t29.5 -12.5q27 0 34 22.5t7 64.5v6l1 510h174v-732h-175v78q-18 -46 -42 -66t-71 -20q-82 0 -112.5 49zM176 -204v146h175v-146h-175z" />
    <glyph glyph-name="ugrave" unicode="&#xf9;" horiz-adv-x="499" 
d="M63.5 41q-30.5 49 -30.5 146v545h176v-510v-37.5t9.5 -43t29.5 -12.5q27 0 34 22.5t7 64.5v6l1 510h174v-732h-175v78q-18 -46 -42 -66t-71 -20q-82 0 -112.5 49zM366 758l-232 46v170l232 -107v-109z" />
    <glyph glyph-name="uni1EE7" unicode="&#x1ee7;" horiz-adv-x="499" 
d="M63.5 41q-30.5 49 -30.5 146v545h176v-510v-37.5t9.5 -43t29.5 -12.5q27 0 34 22.5t7 64.5v6l1 510h174v-732h-175v78q-18 -46 -42 -66t-71 -20q-82 0 -112.5 49zM198 840q29 12 44 26.5t15 37.5q0 46 -49 46q-23 0 -44 -8v88q39 16 89 16q61 0 95.5 -30.5t34.5 -85.5
q0 -109 -133 -150z" />
    <glyph glyph-name="uhorn" unicode="&#x1b0;" horiz-adv-x="570" 
d="M570 805v-8q0 -68 -28.5 -107.5t-77.5 -52.5v-637h-175v78q-18 -46 -42 -66t-71 -20q-82 0 -112.5 49t-30.5 146v545h176v-510v-37.5t9.5 -43t29.5 -12.5q27 0 34 22.5t7 64.5v6l1 510h88q57 0 57 61v11z" />
    <glyph glyph-name="uni1EE9" unicode="&#x1ee9;" horiz-adv-x="570" 
d="M570 805v-8q0 -68 -28.5 -107.5t-77.5 -52.5v-637h-175v78q-18 -46 -42 -66t-71 -20q-82 0 -112.5 49t-30.5 146v545h176v-510v-37.5t9.5 -43t29.5 -12.5q27 0 34 22.5t7 64.5v6l1 510h88q57 0 57 61v11zM133 773v109l232 107v-170z" />
    <glyph glyph-name="uni1EF1" unicode="&#x1ef1;" horiz-adv-x="570" 
d="M570 805v-8q0 -68 -28.5 -107.5t-77.5 -52.5v-637h-175v78q-18 -46 -42 -66t-71 -20q-82 0 -112.5 49t-30.5 146v545h176v-510v-37.5t9.5 -43t29.5 -12.5q27 0 34 22.5t7 64.5v6l1 510h88q57 0 57 61v11zM176 -204v146h175v-146h-175z" />
    <glyph glyph-name="uni1EEB" unicode="&#x1eeb;" horiz-adv-x="570" 
d="M570 805v-8q0 -68 -28.5 -107.5t-77.5 -52.5v-637h-175v78q-18 -46 -42 -66t-71 -20q-82 0 -112.5 49t-30.5 146v545h176v-510v-37.5t9.5 -43t29.5 -12.5q27 0 34 22.5t7 64.5v6l1 510h88q57 0 57 61v11zM366 773l-232 46v170l232 -107v-109z" />
    <glyph glyph-name="uni1EED" unicode="&#x1eed;" horiz-adv-x="570" 
d="M570 805v-8q0 -68 -28.5 -107.5t-77.5 -52.5v-637h-175v78q-18 -46 -42 -66t-71 -20q-82 0 -112.5 49t-30.5 146v545h176v-510v-37.5t9.5 -43t29.5 -12.5q27 0 34 22.5t7 64.5v6l1 510h88q57 0 57 61v11zM198 855q29 12 44 26.5t15 37.5q0 46 -49 46q-23 0 -44 -8v88
q39 16 89 16q61 0 95.5 -30.5t34.5 -85.5q0 -109 -133 -150z" />
    <glyph glyph-name="uni1EEF" unicode="&#x1eef;" horiz-adv-x="570" 
d="M570 805v-8q0 -68 -28.5 -107.5t-77.5 -52.5v-637h-175v78q-18 -46 -42 -66t-71 -20q-82 0 -112.5 49t-30.5 146v545h176v-510v-37.5t9.5 -43t29.5 -12.5q27 0 34 22.5t7 64.5v6l1 510h88q57 0 57 61v11zM279.5 809q-23.5 7 -56.5 20q-16 7 -31 12t-26 5q-29 0 -45 -33
l-73 38q22 54 47.5 81.5t73.5 27.5q26 0 47 -6t55 -19q36 -16 54 -16q28 0 46 36l81 -26q-15 -42 -28.5 -67.5t-36 -42.5t-56.5 -17q-28 0 -51.5 7z" />
    <glyph glyph-name="uhungarumlaut" unicode="&#x171;" horiz-adv-x="499" 
d="M63.5 41q-30.5 49 -30.5 146v545h176v-510v-37.5t9.5 -43t29.5 -12.5q27 0 34 22.5t7 64.5v6l1 510h174v-732h-175v78q-18 -46 -42 -66t-71 -20q-82 0 -112.5 49zM215 784l-81 29l89 233l113 -52zM362 784l-81 29l108 233l114 -52z" />
    <glyph glyph-name="uni0217" unicode="&#x217;" horiz-adv-x="511" 
d="M396 925.5q51 -38.5 51 -117.5l-1 -17l-125 1q0 28 -15 42t-51 14q-37 0 -51.5 -14t-14.5 -42l-125 -1q-2 14 -2 21q0 77 51 114.5t141 37.5q91 0 142 -38.5zM63.5 41q-30.5 49 -30.5 146v545h176v-510v-37.5t9.5 -43t29.5 -12.5q27 0 34 22.5t7 64.5v6l1 510h174v-732
h-175v78q-18 -46 -42 -66t-71 -20q-82 0 -112.5 49z" />
    <glyph glyph-name="umacron" unicode="&#x16b;" horiz-adv-x="499" 
d="M63.5 41q-30.5 49 -30.5 146v545h176v-510v-37.5t9.5 -43t29.5 -12.5q27 0 34 22.5t7 64.5v6l1 510h174v-732h-175v78q-18 -46 -42 -66t-71 -20q-82 0 -112.5 49zM89 791v74h318v-74h-318z" />
    <glyph glyph-name="uni01CE" unicode="&#x1ce;" horiz-adv-x="483" 
d="M51.5 48.5q-31.5 56.5 -31.5 161.5q0 86 22.5 132t62.5 67.5t122 47.5l48 16v2v73q0 29 -11.5 44.5t-27.5 15.5q-14 0 -24.5 -13t-10.5 -35v-44h-170v24q0 108 50.5 154t164.5 46q91 0 148 -47.5t57 -134.5v-558h-174v87q-13 -45 -41.5 -70t-67.5 -25q-85 0 -116.5 56.5z
M265.5 144.5q8.5 16.5 8.5 40.5v204q-39 -15 -57.5 -38t-18.5 -64v-94q0 -65 39 -65q20 0 28.5 16.5zM146 785l-117 197h175l42 -140l42 140h175l-118 -197h-199z" />
    <glyph glyph-name="uni01D0" unicode="&#x1d0;" horiz-adv-x="235" 
d="M30 0v732h175v-732h-175zM18 777l-117 197h175l42 -140l42 140h175l-118 -197h-199z" />
    <glyph glyph-name="uni01D2" unicode="&#x1d2;" horiz-adv-x="497" 
d="M29 219v294q0 104 58.5 165.5t160.5 61.5t160.5 -61.5t58.5 -165.5v-294q0 -227 -219 -227t-219 227zM279 142q10 15 10 41v358q0 64 -41 64t-41 -64v-358q0 -26 10 -41t31 -15t31 15zM148 785l-117 197h175l42 -140l42 140h175l-118 -197h-199z" />
    <glyph glyph-name="uni01D4" unicode="&#x1d4;" horiz-adv-x="499" 
d="M63.5 41q-30.5 49 -30.5 146v545h176v-510v-37.5t9.5 -43t29.5 -12.5q27 0 34 22.5t7 64.5v6l1 510h174v-732h-175v78q-18 -46 -42 -66t-71 -20q-82 0 -112.5 49zM150 777l-117 197h175l42 -140l42 140h175l-118 -197h-199z" />
    <glyph glyph-name="uni01E9" unicode="&#x1e9;" horiz-adv-x="491" 
d="M35 0v864h173v-384l84 252h181l-110 -318l140 -414h-186l-109 345v-345h-173zM22 909l-117 197h175l42 -140l42 140h175l-118 -197h-199z" />
    <glyph glyph-name="uni01F0" unicode="&#x1f0;" horiz-adv-x="263" 
d="M17 -73v117q5 -2 16 -2q13 0 17 8.5t4 25.5v656h175v-651q0 -81 -33 -124t-105 -43q-57 0 -74 13zM45 777l-117 197h175l42 -140l42 140h175l-118 -197h-199z" />
    <glyph glyph-name="uni01F3" unicode="&#x1f3;" horiz-adv-x="884" 
d="M82.5 22.5q-32.5 30.5 -43 81t-10.5 129.5l2 330q0 78 39.5 127.5t111.5 49.5q71 0 106 -47v171h175v-864h-175v78q-15 -43 -40.5 -64.5t-68.5 -21.5q-64 0 -96.5 30.5zM280 154.5q8 25.5 8 68.5v31v275q0 32 -9 54t-32 22q-26 0 -34.5 -20.5t-8.5 -55.5v-308
q0 -92 42 -92q26 0 34 25.5zM512 0v107l182 487h-174v138h355v-119l-172 -482h174v-131h-365z" />
    <glyph glyph-name="uni01F5" unicode="&#x1f5;" horiz-adv-x="504" 
d="M109.5 -94.5q-44.5 12.5 -87.5 47.5l60 101q64 -38 127 -38q41 0 62 26t21 71v40q-21 -75 -111 -75q-75 0 -110.5 51t-35.5 136v275q0 97 32.5 148.5t113.5 51.5q47 0 74.5 -23.5t36.5 -66.5v82h179v-608q0 -123 -57 -177t-182 -54q-78 0 -122.5 12.5zM292 284v261
q0 22 -12 42t-30 20q-23 0 -31 -16.5t-8 -45.5v-261q0 -33 8 -53.5t32 -20.5q41 0 41 74zM132 758v109l232 107v-170z" />
    <glyph glyph-name="uni01F9" unicode="&#x1f9;" horiz-adv-x="499" 
d="M35 732h175v-93q11 45 38 73t72 28q74 0 109.5 -45.5t35.5 -129.5v-565h-172v547q0 24 -9.5 41t-29.5 17q-27 0 -35.5 -24.5t-8.5 -65.5v-515h-175v732zM366 758l-232 46v170l232 -107v-109z" />
    <glyph glyph-name="uni021F" unicode="&#x21f;" horiz-adv-x="505" 
d="M35 864h180v-204q28 80 107 80q74 0 112 -47t38 -129v-564h-175v553q0 24 -11 39t-32 15q-18 0 -28.5 -15.5t-10.5 -37.5v-554h-180v864zM25 909l-117 197h175l42 -140l42 140h175l-118 -197h-199z" />
    <glyph glyph-name="uni0227" unicode="&#x227;" horiz-adv-x="483" 
d="M51.5 48.5q-31.5 56.5 -31.5 161.5q0 86 22.5 132t62.5 67.5t122 47.5l48 16v2v73q0 29 -11.5 44.5t-27.5 15.5q-14 0 -24.5 -13t-10.5 -35v-44h-170v24q0 108 50.5 154t164.5 46q91 0 148 -47.5t57 -134.5v-558h-174v87q-13 -45 -41.5 -70t-67.5 -25q-85 0 -116.5 56.5z
M265.5 144.5q8.5 16.5 8.5 40.5v204q-39 -15 -57.5 -38t-18.5 -64v-94q0 -65 39 -65q20 0 28.5 16.5zM159 785v146h175v-146h-175z" />
    <glyph glyph-name="uni0229" unicode="&#x229;" horiz-adv-x="488" 
d="M204 350v-142q0 -38 8 -59.5t34 -21.5q20 0 28.5 12t10 27.5t1.5 45.5v71h174v-42q0 -116 -40.5 -176.5t-137.5 -70.5q44 -41 68.5 -89.5t24.5 -93.5q0 -53 -36.5 -86t-109.5 -33q-50 0 -97 19v109q31 -11 58 -11q57 0 57 58q0 52 -47 127q-91 11 -131 72.5t-40 172.5
v294q0 101 58 154t162 53q211 0 211 -207v-53q0 -80 -2 -130h-254zM286 437v94q0 79 -39 79q-44 0 -44 -79v-94h83z" />
    <glyph glyph-name="uni022F" unicode="&#x22f;" horiz-adv-x="497" 
d="M29 219v294q0 104 58.5 165.5t160.5 61.5t160.5 -61.5t58.5 -165.5v-294q0 -227 -219 -227t-219 227zM279 142q10 15 10 41v358q0 64 -41 64t-41 -64v-358q0 -26 10 -41t31 -15t31 15zM161 785v146h175v-146h-175z" />
    <glyph glyph-name="uni1E03" unicode="&#x1e03;" horiz-adv-x="501" 
d="M215 78v-78h-180v864h180v-167q42 43 98 43q85 0 122 -50.5t37 -145.5v-353q0 -90 -38 -144.5t-116 -54.5q-72 0 -103 86zM284.5 139.5q7.5 11.5 9 29t1.5 54.5v305q0 39 -7 58t-30 19q-25 0 -34 -19t-9 -56v-307q0 -48 8 -71.5t36 -23.5q18 0 25.5 11.5zM38 909v146h175
v-146h-175z" />
    <glyph glyph-name="uni1E0B" unicode="&#x1e0b;" horiz-adv-x="498" 
d="M82.5 22.5q-32.5 30.5 -43 81t-10.5 129.5l2 330q0 78 39.5 127.5t111.5 49.5q71 0 106 -47v171h175v-864h-175v78q-15 -43 -40.5 -64.5t-68.5 -21.5q-64 0 -96.5 30.5zM280 154.5q8 25.5 8 68.5v31v275q0 32 -9 54t-32 22q-26 0 -34.5 -20.5t-8.5 -55.5v-308
q0 -92 42 -92q26 0 34 25.5zM288 909v146h175v-146h-175z" />
    <glyph glyph-name="uni1E1F" unicode="&#x1e1f;" horiz-adv-x="280" 
d="M51 567h-31l1 133h30v50q0 118 118 118q56 0 90 -14v-108q-10 3 -16 3q-14 0 -18 -10t-4 -30v-9h38v-135h-34v-565h-174v567zM70 904v146h175v-146h-175z" />
    <glyph glyph-name="uni1E41" unicode="&#x1e41;" horiz-adv-x="758" 
d="M35 732h171v-85q12 47 41 70t82 23q43 0 74.5 -19.5t44.5 -53.5q22 38 49 55.5t75 17.5q86 0 119.5 -52.5t33.5 -152.5l-2 -535h-176v538q0 71 -36 71q-25 0 -36 -24.5t-11 -58.5v-526h-175v538q0 31 -6.5 50t-27.5 19q-27 0 -38 -26.5t-11 -63.5v-517h-171v732zM293 777
v146h175v-146h-175z" />
    <glyph glyph-name="uni1E57" unicode="&#x1e57;" horiz-adv-x="500" 
d="M35 732h178v-39q38 47 105 47q85 0 118.5 -57t33.5 -158v-271q0 -86 -10 -140.5t-44 -88t-103 -33.5q-66 0 -100 37v-175h-178v878zM286 150q7 22 7 64v311q0 38 -7 58t-32 20q-41 0 -41 -76v-321q0 -37 8.5 -57.5t33.5 -20.5q24 0 31 22zM163 777v146h175v-146h-175z
" />
    <glyph glyph-name="uni1E61" unicode="&#x1e61;" horiz-adv-x="475" 
d="M19 212l1 58h175l1 -86q0 -26 10 -39.5t33 -13.5q35 0 35 57q0 42 -16.5 66t-52.5 51l-93 72q-48 37 -69 76.5t-21 111.5q0 56 29.5 95.5t78.5 59.5t109 20q213 0 213 -212v-14h-181v28q0 26 -8.5 44.5t-28.5 18.5q-18 0 -27.5 -10.5t-9.5 -28.5q0 -40 31 -62l108 -79
q58 -43 89 -93.5t31 -127.5q0 -102 -58 -157t-162 -55q-217 0 -217 220zM152 777v146h175v-146h-175z" />
    <glyph glyph-name="uni1E6B" unicode="&#x1e6b;" horiz-adv-x="305" 
d="M91 21q-26 29 -26 93v457h-49v133h49v155h170v-155h50v-133h-50v-411q0 -19 3 -28t16 -9q10 0 19 1t12 1v-120q-15 -4 -43.5 -8.5t-55.5 -4.5q-69 0 -95 29zM67 904v146h175v-146h-175z" />
    <glyph glyph-name="uogonek" unicode="&#x173;" horiz-adv-x="499" 
d="M423 0l-18 -21q-31 -37 -45.5 -61t-14.5 -54q0 -27 14.5 -41t41.5 -14q24 0 57 11v-109q-45 -19 -97 -19q-46 0 -85 18t-62 51t-23 78q0 89 129 161h-31v78q-18 -46 -42 -66t-71 -20q-82 0 -112.5 49t-30.5 146v545h176v-510v-37.5t9.5 -43t29.5 -12.5q27 0 34 22.5
t7 64.5v6l1 510h174v-732h-41z" />
    <glyph glyph-name="uring" unicode="&#x16f;" horiz-adv-x="499" 
d="M63.5 41q-30.5 49 -30.5 146v545h176v-510v-37.5t9.5 -43t29.5 -12.5q27 0 34 22.5t7 64.5v6l1 510h174v-732h-175v78q-18 -46 -42 -66t-71 -20q-82 0 -112.5 49zM124 815.5q-47 44.5 -47 121.5t47 121t126 44t126 -44t47 -121t-47 -121.5t-126 -44.5t-126 44.5zM301 882
q19 22 19 55t-19 54.5t-51 21.5q-31 0 -50 -22t-19 -54q0 -33 19 -55t50 -22q32 0 51 22z" />
    <glyph glyph-name="utilde" unicode="&#x169;" horiz-adv-x="499" 
d="M63.5 41q-30.5 49 -30.5 146v545h176v-510v-37.5t9.5 -43t29.5 -12.5q27 0 34 22.5t7 64.5v6l1 510h174v-732h-175v78q-18 -46 -42 -66t-71 -20q-82 0 -112.5 49zM279.5 794q-23.5 7 -56.5 20q-16 7 -31 12t-26 5q-29 0 -45 -33l-73 38q22 54 47.5 81.5t73.5 27.5
q26 0 47 -6t55 -19q36 -16 54 -16q28 0 46 36l81 -26q-15 -42 -28.5 -67.5t-36 -42.5t-56.5 -17q-28 0 -51.5 7z" />
    <glyph glyph-name="v" unicode="v" horiz-adv-x="461" 
d="M128 0l-117 732h175l36 -370l6 -119l7 120l40 369h175l-119 -732h-203z" />
    <glyph glyph-name="w" unicode="w" horiz-adv-x="696" 
d="M112 0l-89 732h150l49 -393l42 393h153l50 -393l41 393h165l-94 -732h-175l-52 416l-46 -416h-194z" />
    <glyph glyph-name="wacute" unicode="&#x1e83;" horiz-adv-x="696" 
d="M112 0l-89 732h150l49 -393l42 393h153l50 -393l41 393h165l-94 -732h-175l-52 416l-46 -416h-194zM236 758v109l232 107v-170z" />
    <glyph glyph-name="wcircumflex" unicode="&#x175;" horiz-adv-x="696" 
d="M112 0l-89 732h150l49 -393l42 393h153l50 -393l41 393h165l-94 -732h-175l-52 416l-46 -416h-194zM136 777l117 197h199l118 -197h-175l-42 139l-42 -139h-175z" />
    <glyph glyph-name="wdieresis" unicode="&#x1e85;" horiz-adv-x="696" 
d="M112 0l-89 732h150l49 -393l42 393h153l50 -393l41 393h165l-94 -732h-175l-52 416l-46 -416h-194zM144 781v145h175v-145h-175zM381 781v145h174v-145h-174z" />
    <glyph glyph-name="wgrave" unicode="&#x1e81;" horiz-adv-x="696" 
d="M112 0l-89 732h150l49 -393l42 393h153l50 -393l41 393h165l-94 -732h-175l-52 416l-46 -416h-194zM469 758l-232 46v170l232 -107v-109z" />
    <glyph glyph-name="x" unicode="x" horiz-adv-x="459" 
d="M455 0h-175l-74 206l-70 -206h-132l134 393l-122 340h178l63 -178l62 178h130l-126 -362z" />
    <glyph glyph-name="y" unicode="y" horiz-adv-x="461" 
d="M21 -11h84q18 0 18 15q0 7 -1 11l-114 717h167l33 -357l16 -182l19 182l39 357h168l-136 -770q-7 -43 -28.5 -63.5t-67.5 -20.5h-197v111z" />
    <glyph glyph-name="yacute" unicode="&#xfd;" horiz-adv-x="461" 
d="M21 -11h84q18 0 18 15q0 7 -1 11l-114 717h167l33 -357l16 -182l19 182l39 357h168l-136 -770q-7 -43 -28.5 -63.5t-67.5 -20.5h-197v111zM113 758v109l232 107v-170z" />
    <glyph glyph-name="ycircumflex" unicode="&#x177;" horiz-adv-x="461" 
d="M21 -11h84q18 0 18 15q0 7 -1 11l-114 717h167l33 -357l16 -182l19 182l39 357h168l-136 -770q-7 -43 -28.5 -63.5t-67.5 -20.5h-197v111zM13 777l117 197h199l118 -197h-175l-42 139l-42 -139h-175z" />
    <glyph glyph-name="ydieresis" unicode="&#xff;" horiz-adv-x="461" 
d="M21 -11h84q18 0 18 15q0 7 -1 11l-114 717h167l33 -357l16 -182l19 182l39 357h168l-136 -770q-7 -43 -28.5 -63.5t-67.5 -20.5h-197v111zM21 781v145h175v-145h-175zM258 781v145h174v-145h-174z" />
    <glyph glyph-name="uni1EF5" unicode="&#x1ef5;" horiz-adv-x="461" 
d="M21 -11h84q18 0 18 15q0 7 -1 11l-114 717h167l33 -357l16 -182l19 182l39 357h168l-136 -770q-7 -43 -28.5 -63.5t-67.5 -20.5h-197v111zM131 -326v146h175v-146h-175z" />
    <glyph glyph-name="ygrave" unicode="&#x1ef3;" horiz-adv-x="461" 
d="M21 -11h84q18 0 18 15q0 7 -1 11l-114 717h167l33 -357l16 -182l19 182l39 357h168l-136 -770q-7 -43 -28.5 -63.5t-67.5 -20.5h-197v111zM346 758l-232 46v170l232 -107v-109z" />
    <glyph glyph-name="uni1EF7" unicode="&#x1ef7;" horiz-adv-x="461" 
d="M21 -11h84q18 0 18 15q0 7 -1 11l-114 717h167l33 -357l16 -182l19 182l39 357h168l-136 -770q-7 -43 -28.5 -63.5t-67.5 -20.5h-197v111zM178 840q29 12 44 26.5t15 37.5q0 46 -49 46q-23 0 -44 -8v88q39 16 89 16q61 0 95.5 -30.5t34.5 -85.5q0 -109 -133 -150z" />
    <glyph glyph-name="uni0233" unicode="&#x233;" horiz-adv-x="461" 
d="M21 -11h84q18 0 18 15q0 7 -1 11l-114 717h167l33 -357l16 -182l19 182l39 357h168l-136 -770q-7 -43 -28.5 -63.5t-67.5 -20.5h-197v111zM69 791v74h318v-74h-318z" />
    <glyph glyph-name="uni1EF9" unicode="&#x1ef9;" horiz-adv-x="461" 
d="M21 -11h84q18 0 18 15q0 7 -1 11l-114 717h167l33 -357l16 -182l19 182l39 357h168l-136 -770q-7 -43 -28.5 -63.5t-67.5 -20.5h-197v111zM259.5 794q-23.5 7 -56.5 20q-16 7 -31 12t-26 5q-29 0 -45 -33l-73 38q22 54 47.5 81.5t73.5 27.5q26 0 47 -6t55 -19
q36 -16 54 -16q28 0 46 36l81 -26q-15 -42 -28.5 -67.5t-36 -42.5t-56.5 -17q-28 0 -51.5 7z" />
    <glyph glyph-name="z" unicode="z" horiz-adv-x="386" 
d="M14 0v107l182 487h-174v138h355v-119l-172 -482h174v-131h-365z" />
    <glyph glyph-name="zacute" unicode="&#x17a;" horiz-adv-x="386" 
d="M14 0v107l182 487h-174v138h355v-119l-172 -482h174v-131h-365zM96 758v109l232 107v-170z" />
    <glyph glyph-name="zcaron" unicode="&#x17e;" horiz-adv-x="386" 
d="M14 0v107l182 487h-174v138h355v-119l-172 -482h174v-131h-365zM113 777l-117 197h175l42 -140l42 140h175l-118 -197h-199z" />
    <glyph glyph-name="zdotaccent" unicode="&#x17c;" horiz-adv-x="386" 
d="M14 0v107l182 487h-174v138h355v-119l-172 -482h174v-131h-365zM126 777v146h175v-146h-175z" />
    <glyph glyph-name="iacute_j.loclNLD" horiz-adv-x="502" 
d="M30 0v732h175v-732h-175zM256 -73v117q5 -2 16 -2q13 0 17 8.5t4 25.5v656h175v-651q0 -81 -33 -124t-105 -43q-57 0 -74 13zM0 758v109l232 107v-170zM267 758v109l232 107v-170z" />
    <glyph glyph-name="ordfeminine" unicode="&#xaa;" horiz-adv-x="392" 
d="M46.5 425.5q-25.5 45.5 -25.5 128.5q0 70 19 107t52.5 55t102.5 41l29 10v1l1 34q0 29 -6.5 47t-24.5 18q-28 0 -28 -32v-39h-135q-1 5 -1 19q0 86 40.5 123t130.5 37h4q70 0 114.5 -38.5t44.5 -106.5v-443h-138v61q-6 -25 -31.5 -46.5t-54.5 -21.5q-68 0 -93.5 45.5z
M217 502q7 13 7 32v153q-31 -12 -46 -29.5t-15 -49.5v-68q0 -51 31 -51q16 0 23 13z" />
    <glyph glyph-name="ordmasculine" unicode="&#xba;" horiz-adv-x="397" 
d="M24 561v233q0 82 46.5 131.5t126.5 49.5h1q81 0 127.5 -49t46.5 -132v-233q0 -89 -43.5 -135t-130.5 -46q-174 0 -174 181zM176 500q10 -12 24 -12q12 0 21 11.5t9 33.5v283q0 51 -32 51t-32 -51v-283q0 -21 10 -33z" />
    <glyph glyph-name="uni0394" unicode="&#x394;" horiz-adv-x="539" 
d="M15 0l131 859h243l135 -859h-509zM175 110h151l-67 652h-8z" />
    <glyph glyph-name="Sigma" unicode="&#x3a3;" horiz-adv-x="408" 
d="M30 -58v131l165 328l-165 309v149h350v-154h-191l149 -282v-37l-149 -300h199v-144h-358z" />
    <glyph glyph-name="pi" unicode="&#x3c0;" horiz-adv-x="606" 
d="M85 0v575h-67v157h571v-157h-69l2 -575h-170l-5 575h-87v-575h-175z" />
    <glyph glyph-name="uni10E2" unicode="&#x10e2;" horiz-adv-x="640" 
d="M-21 0l156 859h475v-151h-140v-196h133v-146h-133v-214h151v-152h-317v234h-101l-38 -234h-186zM226 375h76v338h-28zM228 918v74h318v-74h-318z" />
    <glyph glyph-name="uni10E3" unicode="&#x10e3;" horiz-adv-x="731" 
d="M71 49q-52 58 -52 161q0 88 23.5 134.5t64.5 69.5t126 51l40 14v1l1 45q0 37 -8 58.5t-30 21.5q-36 0 -36 -40v-49h-170q-1 5 -1 24q0 108 51 154.5t165 46.5q79 0 120 -59q39 59 130 59q211 0 211 -208v-53q0 -111 -2 -136h-254v-103q0 -114 42 -114q26 0 33.5 28
t7.5 75q0 50 -1 53h174v-42q0 -126 -44 -188t-156 -62q-50 0 -88 22.5t-53 58.5q-17 -37 -55 -59t-91 -22q-96 0 -148 58zM532 455v76q0 79 -39 79q-29 0 -36 -22t-7 -74v-59h82zM264 144.5q9 16.5 9 40.5v193q-39 -16 -57.5 -38t-18.5 -62v-85q0 -65 39 -65q19 0 28 16.5z
M214 791v74h318v-74h-318z" />
    <glyph glyph-name="zero" unicode="0" horiz-adv-x="494" 
d="M79 53.5q-59 61.5 -59 175.5v388q0 122 57 186t170 64q114 0 171 -64t57 -186v-388q0 -115 -59 -176t-169 -61q-109 0 -168 61.5zM278 167.5q12 17.5 12 41.5v424q0 37 -8.5 56.5t-34.5 19.5t-34 -19.5t-8 -56.5v-424q0 -24 11.5 -41.5t30.5 -17.5t31 17.5z" />
    <glyph glyph-name="one" unicode="1" horiz-adv-x="331" 
d="M118 662q-17 -21 -47.5 -34t-58.5 -13v137q44 7 87.5 35t62.5 73h138v-860h-182v662z" />
    <glyph glyph-name="two" unicode="2" horiz-adv-x="494" 
d="M30 41q0 59 18.5 109t45.5 90t71 94q45 56 71.5 95t45 89.5t18.5 109.5q0 35 -10 54.5t-36 19.5q-43 0 -43 -77v-105h-181l-2 53q0 98 20 161t70 96t138 33q108 0 167 -60.5t59 -171.5q0 -71 -19.5 -128.5t-48 -100.5t-75.5 -101q-34 -41 -56.5 -73t-40.5 -66h234v-162
h-446v41z" />
    <glyph glyph-name="three" unicode="3" horiz-adv-x="494" 
d="M71 49.5q-52 59.5 -52 181.5v90h176v-90q0 -39 10 -60.5t40 -21.5q21 0 30.5 15t11.5 35.5t2 59.5v21q0 111 -73 111q-13 0 -17 -1v154q46 0 69 20.5t23 65.5q0 73 -42 73q-26 0 -33.5 -13t-10 -33t-3.5 -29v-26h-178l-1 30q1 118 56 173.5t169 55.5q219 0 219 -229
q0 -67 -18 -106.5t-62 -55.5q36 -18 53.5 -44.5t23 -64.5t5.5 -102q0 -133 -55.5 -201t-177.5 -68q-113 0 -165 59.5z" />
    <glyph glyph-name="four" unicode="4" horiz-adv-x="494" 
d="M264 0v136h-255v134l162 590h268v-581h46v-143h-46v-136h-175zM162 279h102v433z" />
    <glyph glyph-name="five" unicode="5" horiz-adv-x="494" 
d="M83 38.5q-61 50.5 -61 149.5v127h179v-73q0 -44 9 -69t37 -25q26 0 35.5 17t9.5 50v169q0 41 -8.5 65.5t-35.5 24.5q-49 0 -49 -71h-157v457h409v-161h-246v-121q13 17 35 28t50 11q108 0 147.5 -76t39.5 -215q0 -115 -16.5 -186.5t-66.5 -111.5t-147 -40
q-103 0 -164 50.5z" />
    <glyph glyph-name="six" unicode="6" horiz-adv-x="494" 
d="M119 22q-51 30 -72 90t-21 156v232q0 133 16.5 209.5t67.5 117t153 40.5q56 0 103 -19t75 -57t28 -92v-93h-166v18q0 44 -7.5 68t-35.5 24t-39.5 -15t-11.5 -46v-173q12 24 37 37.5t59 13.5q70 0 108.5 -28t53.5 -83t15 -144q0 -137 -52 -211.5t-172 -74.5q-88 0 -139 30
zM286.5 171.5q7.5 21.5 7.5 70.5v69q0 70 -40 70q-45 0 -45 -61v-106q0 -64 43 -64q27 0 34.5 21.5z" />
    <glyph glyph-name="seven" unicode="7" horiz-adv-x="494" 
d="M115.5 258q35.5 120 98.5 278q20 50 29 75l34 90h-243v159h434v-128q-5 -47 -20.5 -89.5t-43.5 -103.5q-22 -46 -34 -77q-43 -111 -70 -223.5t-35 -238.5h-194q9 138 44.5 258z" />
    <glyph glyph-name="eight" unicode="8" horiz-adv-x="494" 
d="M75.5 58q-53.5 67 -53.5 198v57q0 68 16.5 108t57.5 60q-39 16 -56 53t-17 95v23q0 112 56.5 165t167.5 53q113 0 168.5 -54t55.5 -171q0 -66 -16 -106.5t-57 -58.5q46 -22 60 -68.5t14 -133.5q0 -17 -1 -22q0 -131 -53 -198t-171 -67t-171.5 67zM292 636q0 32 -10.5 54
t-34.5 22t-34.5 -22t-10.5 -54q0 -82 45 -82t45 82zM294 246l-1 43q0 49 -8 79t-38 30q-25 0 -36 -26.5t-11 -65.5q0 -17 1 -25v-8l-1 -27q0 -85 47 -85t47 85z" />
    <glyph glyph-name="nine" unicode="9" horiz-adv-x="504" 
d="M141.5 11.5q-46.5 19.5 -74.5 57.5t-28 92v92h165v-17q0 -43 8 -68t35 -25q28 0 39.5 15.5t11.5 46.5v172q-12 -23 -37 -37t-59 -14q-70 0 -108.5 28t-53.5 83t-15 145q0 137 52 211t172 74q88 0 139 -30t72 -90t21 -156v-232q0 -133 -16 -209.5t-67 -117t-154 -40.5
q-56 0 -102.5 19.5zM298 539v107q0 63 -43 63q-27 0 -34.5 -21.5t-7.5 -69.5v-70q0 -70 40 -70q45 0 45 61z" />
    <glyph glyph-name="uni00B9" unicode="&#xb9;" horiz-adv-x="206" 
d="M74 741q-29 -15 -60 -15q1 21 1 54q0 19 -1 21q14 0 34.5 8.5t35.5 22t15 27.5h78v-459h-103v341z" />
    <glyph glyph-name="uni00B2" unicode="&#xb2;" horiz-adv-x="302" 
d="M23 414q0 42 12 75.5t28.5 57t44.5 55.5q34 39 51 68t17 68q0 40 -26 40q-25 0 -25 -42v-58h-102l-1 29q-2 83 26 121.5t103 38.5q61 0 95 -33.5t34 -94.5q0 -39 -11 -70.5t-27 -55t-43 -56.5q-40 -45 -56 -77h133v-89h-253v23z" />
    <glyph glyph-name="uni00B3" unicode="&#xb3;" horiz-adv-x="298" 
d="M50 425.5q-29 32.5 -29 98.5v49h98v-49q0 -21 6 -32.5t22 -11.5q17 0 21 14t4 46q0 34 -8 52.5t-33 18.5h-10v84q26 0 38.5 11t12.5 36q0 39 -23 39q-17 0 -21 -10t-4.5 -24t-0.5 -21h-100v17q-1 65 29.5 94.5t95.5 29.5q123 0 123 -124q0 -37 -10 -58.5t-34 -30.5
q29 -13 37.5 -37.5t8.5 -76.5q0 -73 -31 -110t-100 -37q-63 0 -92 32.5z" />
    <glyph glyph-name="uni2074" unicode="&#x2074;" horiz-adv-x="306" 
d="M163 400v74h-148v73l91 313h158v-302h19v-84h-19v-74h-101zM109 558h54v217z" />
    <glyph glyph-name="fraction" unicode="&#x2044;" horiz-adv-x="226" 
d="M-98 -8l283 875h139l-332 -875h-90z" />
    <glyph glyph-name="onehalf" unicode="&#xbd;" horiz-adv-x="861" 
d="M133 741q-29 -15 -60 -15q1 21 1 54q0 19 -1 21q14 0 34.5 8.5t35.5 22t15 27.5h78v-459h-103v341zM209 -3l283 875h139l-332 -875h-90zM531 23q0 42 12 75.5t28.5 57t44.5 55.5q34 39 51 68t17 68q0 40 -26 40q-25 0 -25 -42v-58h-102l-1 29q-2 83 26 121.5t103 38.5
q61 0 95 -33.5t34 -94.5q0 -39 -11 -70.5t-27 -55t-43 -56.5q-40 -45 -56 -77h133v-89h-253v23z" />
    <glyph glyph-name="onequarter" unicode="&#xbc;" horiz-adv-x="814" 
d="M133 741q-29 -15 -60 -15q1 21 1 54q0 19 -1 21q14 0 34.5 8.5t35.5 22t15 27.5h78v-459h-103v341zM204 -8l283 875h139l-332 -875h-90zM621 0v74h-148v73l91 313h158v-302h19v-84h-19v-74h-101zM567 158h54v217z" />
    <glyph glyph-name="threequarters" unicode="&#xbe;" horiz-adv-x="854" 
d="M103 425.5q-29 32.5 -29 98.5v49h98v-49q0 -21 6 -32.5t22 -11.5q17 0 21 14t4 46q0 34 -8 52.5t-33 18.5h-10v84q26 0 38.5 11t12.5 36q0 39 -23 39q-17 0 -21 -10t-4.5 -24t-0.5 -21h-100v17q-1 65 29.5 94.5t95.5 29.5q123 0 123 -124q0 -37 -10 -58.5t-34 -30.5
q29 -13 37.5 -37.5t8.5 -76.5q0 -73 -31 -110t-100 -37q-63 0 -92 32.5zM252 -8l283 875h139l-332 -875h-90zM662 0v74h-148v73l91 313h158v-302h19v-84h-19v-74h-101zM608 158h54v217z" />
    <glyph glyph-name="asterisk" unicode="*" horiz-adv-x="452" 
d="M169 362l22 147l-117 -92l-56 98l133 57l-133 53l56 98l116 -88l-21 143h114l-17 -140l112 85l57 -98l-135 -53l135 -57l-57 -98l-113 89l18 -144h-114z" />
    <glyph glyph-name="backslash" unicode="\" horiz-adv-x="405" 
d="M214 0l-201 863h178l200 -863h-177z" />
    <glyph glyph-name="periodcentered" unicode="&#xb7;" horiz-adv-x="234" 
d="M40 353v146h155v-146h-155z" />
    <glyph glyph-name="bullet" unicode="&#x2022;" horiz-adv-x="352" 
d="M63.5 242q-40.5 45 -40.5 120t40.5 120t112.5 45t112.5 -45t40.5 -120t-40.5 -120t-112.5 -45t-112.5 45z" />
    <glyph glyph-name="colon" unicode=":" horiz-adv-x="242" 
d="M33 477v145h175v-145h-175zM33 116v145h175v-145h-175z" />
    <glyph glyph-name="comma" unicode="," horiz-adv-x="236" 
d="M57 -115l32 115h-62v146h182v-141l-49 -120h-103z" />
    <glyph glyph-name="ellipsis" unicode="&#x2026;" horiz-adv-x="708" 
d="M27 0v146h175v-146h-175zM267 0v146h174v-146h-174zM506 0v146h175v-146h-175z" />
    <glyph glyph-name="exclam" unicode="!" horiz-adv-x="229" 
d="M61 234l-34 625h175l-35 -625h-106zM27 0v146h175v-146h-175z" />
    <glyph glyph-name="exclamdown" unicode="&#xa1;" horiz-adv-x="227" 
d="M27 661v145h175v-145h-175zM27 -53l34 626h106l35 -626h-175z" />
    <glyph glyph-name="numbersign" unicode="#" horiz-adv-x="546" 
d="M19 0l48 249h-46v113h68l14 71h-54v113h76l45 232h139l-46 -232h81l46 232h138l-45 -232h45v-113h-67l-14 -71h53v-113h-75l-49 -249h-138l49 249h-82l-48 -249h-138zM228 362h81l13 71h-81z" />
    <glyph glyph-name="period" unicode="." horiz-adv-x="229" 
d="M27 0v146h175v-146h-175z" />
    <glyph glyph-name="question" unicode="?" horiz-adv-x="492" 
d="M62 425q90 0 137.5 13.5t70.5 57.5t23 136q0 37 -9 58t-36 21q-28 0 -37 -24t-9 -66v-72h-179v124q0 96 61 145t164 49q125 0 177.5 -66.5t52.5 -201.5q0 -132 -64.5 -213t-188.5 -81v-83h-163v203zM57 0v146h174v-146h-174z" />
    <glyph glyph-name="questiondown" unicode="&#xbf;" horiz-adv-x="493" 
d="M439 804v-146h-174v146h174zM434 379q-90 0 -137.5 -13.5t-70.5 -57.5t-23 -136q0 -37 9 -58t36 -21q28 0 37 24t9 66v72h179v-124q0 -96 -61 -145t-164 -49q-125 0 -177.5 66.5t-52.5 201.5q0 132 64.5 213t188.5 81v83h163v-203z" />
    <glyph glyph-name="quotedbl" unicode="&#x22;" horiz-adv-x="429" 
d="M69 549l-49 310h172l-37 -310h-86zM284 549l-49 310h172l-37 -310h-86z" />
    <glyph glyph-name="quotesingle" unicode="'" horiz-adv-x="214" 
d="M69 549l-49 310h172l-37 -310h-86z" />
    <glyph glyph-name="semicolon" unicode=";" horiz-adv-x="245" 
d="M32 477v145h175v-145h-175zM62 0l32 115h-62v146h183v-141l-50 -120h-103z" />
    <glyph glyph-name="slash" unicode="/" horiz-adv-x="405" 
d="M14 0l200 863h178l-201 -863h-177z" />
    <glyph glyph-name="underscore" unicode="_" horiz-adv-x="365" 
d="M24 -177v114h318v-114h-318z" />
    <glyph glyph-name="periodcentered.loclCAT.case" 
d="M-80 343v165h160v-165h-160z" />
    <glyph glyph-name="periodcentered.loclCAT" 
d="M-78 348v155h156v-155h-156z" />
    <glyph glyph-name="braceleft" unicode="{" horiz-adv-x="340" 
d="M177 -73.5q-51 16.5 -72.5 54.5t-21.5 107v163q0 36 -5 55.5t-19 30.5t-44 14v96q30 3 44 14t19 30.5t5 55.5v163q0 70 21.5 107.5t72.5 54t146 18.5v-130q-34 -3 -51 -10.5t-17 -30.5v-183q0 -65 -28.5 -95t-77.5 -42q49 -12 77.5 -42t28.5 -94v-183q0 -24 17.5 -31.5
t50.5 -9.5v-131q-95 2 -146 18.5z" />
    <glyph glyph-name="braceright" unicode="}" horiz-adv-x="340" 
d="M20 39q33 2 50 9.5t17 31.5v183q0 64 29 94.5t78 41.5q-50 11 -78.5 41.5t-28.5 95.5v183q0 23 -17 30.5t-50 10.5v130q95 -2 145.5 -18.5t72 -54t21.5 -107.5v-163q0 -52 13 -73.5t55 -26.5v-96q-42 -5 -55 -26.5t-13 -73.5v-163q0 -69 -21.5 -107t-72 -54.5
t-145.5 -18.5v131z" />
    <glyph glyph-name="bracketleft" unicode="[" horiz-adv-x="318" 
d="M30 0v860h271v-137h-99v-586h99v-137h-271z" />
    <glyph glyph-name="bracketright" unicode="]" horiz-adv-x="318" 
d="M17 0v137h99v586h-99v137h271v-860h-271z" />
    <glyph glyph-name="parenleft" unicode="(" horiz-adv-x="291" 
d="M140.5 31q-56.5 36 -86.5 99t-30 144v304q0 134 62 206t187 76v-131q-36 -6 -51.5 -29t-15.5 -67v-413q0 -35 18.5 -58t48.5 -31v-139q-76 3 -132.5 39z" />
    <glyph glyph-name="parenright" unicode=")" horiz-adv-x="291" 
d="M18 131q30 8 48.5 31t18.5 58v413q0 44 -15.5 67t-51.5 29v131q125 -4 187 -76t62 -206v-304q0 -82 -30 -144.5t-86.5 -98.5t-132.5 -39v139z" />
    <glyph glyph-name="emdash" unicode="&#x2014;" horiz-adv-x="563" 
d="M29 249v113h504v-113h-504z" />
    <glyph glyph-name="endash" unicode="&#x2013;" horiz-adv-x="311" 
d="M29 249v113h252v-113h-252z" />
    <glyph glyph-name="hyphen" unicode="-" horiz-adv-x="311" 
d="M29 249v113h252v-113h-252z" />
    <glyph glyph-name="uni00AD" unicode="&#xad;" horiz-adv-x="293" 
d="M29 249v113h252v-113h-252z" />
    <glyph glyph-name="guillemotleft" unicode="&#xab;" horiz-adv-x="578" 
d="M268 127l-249 139v202l249 133v-176l-153 -59l153 -64v-175zM550 127l-249 139v202l249 133v-176l-153 -59l153 -64v-175z" />
    <glyph glyph-name="guillemotright" unicode="&#xbb;" horiz-adv-x="578" 
d="M28 127v175l153 64l-153 59v176l249 -133v-202zM310 127v175l152 64l-152 59v176l249 -133v-202z" />
    <glyph glyph-name="guilsinglleft" unicode="&#x2039;" horiz-adv-x="296" 
d="M268 127l-249 139v202l249 133v-176l-153 -59l153 -64v-175z" />
    <glyph glyph-name="guilsinglright" unicode="&#x203a;" horiz-adv-x="296" 
d="M28 127v175l153 64l-153 59v176l249 -133v-202z" />
    <glyph glyph-name="quotedblbase" unicode="&#x201e;" horiz-adv-x="467" 
d="M57 -115l32 115h-62v146h182v-142l-49 -119h-103zM288 -115l32 115h-62v146h182v-142l-49 -119h-103z" />
    <glyph glyph-name="quotedblleft" unicode="&#x201c;" horiz-adv-x="464" 
d="M26 599v141l50 119h103l-32 -115h62v-145h-183zM255 599v141l50 119h103l-32 -115h62v-145h-183z" />
    <glyph glyph-name="quotedblright" unicode="&#x201d;" horiz-adv-x="463" 
d="M54 599l32 115h-62v145h183v-141l-50 -119h-103zM285 599l32 115h-62v145h183v-141l-50 -119h-103z" />
    <glyph glyph-name="quoteleft" unicode="&#x2018;" horiz-adv-x="235" 
d="M26 599v141l50 119h103l-32 -115h62v-145h-183z" />
    <glyph glyph-name="quoteright" unicode="&#x2019;" horiz-adv-x="232" 
d="M54 607l32 116h-62v145h183v-141l-50 -120h-103z" />
    <glyph glyph-name="quotesinglbase" unicode="&#x201a;" horiz-adv-x="236" 
d="M57 -115l32 115h-62v146h182v-142l-49 -119h-103z" />
    <glyph glyph-name="uni00A0" unicode="&#xa0;" horiz-adv-x="234" 
 />
    <glyph glyph-name="uni20B5" unicode="&#x20b5;" horiz-adv-x="481" 
d="M206 -6q-97 11 -140 71.5t-43 174.5v226q0 131 40 197t143 76v80h85v-81q75 -11 121.5 -59t46.5 -125v-125h-178v116q0 29 -8 44.5t-31 15.5q-43 0 -43 -61v-355q0 -25 10.5 -42.5t31.5 -17.5t31 17t10 44l-1 110h178v-115q0 -80 -46.5 -130t-121.5 -61v-74h-85v74z" />
    <glyph glyph-name="cent" unicode="&#xa2;" horiz-adv-x="481" 
d="M206 -6q-97 11 -140 71.5t-43 174.5v226q0 131 40 197t143 76v80h85v-81q75 -11 121.5 -59t46.5 -125v-125h-178v116q0 29 -8 44.5t-31 15.5q-43 0 -43 -61v-355q0 -25 10.5 -42.5t31.5 -17.5t31 17t10 44l-1 110h178v-115q0 -80 -46.5 -130t-121.5 -61v-74h-85v74z" />
    <glyph glyph-name="colonmonetary" unicode="&#x20a1;" horiz-adv-x="509" 
d="M447 333v-147q0 -100 -50 -148t-143 -48q-14 0 -21 1l-9 -46h-52l12 56q-18 6 -33 15l-15 -71h-52l22 108q-43 54 -43 138v360q0 115 46.5 172.5t147.5 57.5l8 39h51l-9 -43q24 -6 35 -10l11 53h51l-16 -80q55 -47 55 -138v-137h-112l-73 -354q31 2 46 25.5t15 62.5v134
h128zM188 448l42 203q-25 -6 -33.5 -26.5t-8.5 -57.5v-119zM209 126l102 491q-9 25 -30 33l-93 -452q0 -52 21 -72z" />
    <glyph glyph-name="currency" unicode="&#xa4;" horiz-adv-x="488" 
d="M22 322l44 44q-25 47 -25 105q0 57 25 104l-44 44l73 73l42 -43q48 27 107 27q57 0 106 -26l43 42l73 -72l-44 -44q26 -49 26 -105q0 -57 -26 -106l44 -44l-73 -72l-44 43q-43 -26 -105 -26q-60 0 -106 26l-43 -43zM318 393.5q28 31.5 28 78.5t-28 77t-74 30t-74 -31
t-28 -77q0 -47 28 -78t74 -31t74 31.5z" />
    <glyph glyph-name="dollar" unicode="$" horiz-adv-x="462" 
d="M188 18q-91 10 -131 63t-40 157v27h170v-20q0 -76 45 -76q20 0 30.5 15.5t10.5 38.5q0 17 -30 50l-140 142q-78 76 -78 167q0 71 46.5 118.5t116.5 60.5v59h84v-58q83 -10 126.5 -68t43.5 -154h-174l-1 41q-1 13 -13 23.5t-27 10.5q-17 0 -29 -10.5t-12 -27.5
q0 -24 48 -72l137 -135q33 -32 53.5 -75t20.5 -93q0 -79 -48 -127.5t-125 -57.5v-72h-84v73z" />
    <glyph glyph-name="dong" unicode="&#x20ab;" horiz-adv-x="509" 
d="M90.5 19q-29.5 28 -38.5 74t-9 117l1 240q0 71 35.5 116t101.5 45q63 0 96 -44v83h-163v81h163v48h158v-48h31v-81h-31v-651h-158v70q-15 -39 -37.5 -58.5t-61.5 -19.5q-58 0 -87.5 28zM267 133.5q8 17.5 9 35t1 60.5v189q0 70 -37 70q-23 0 -31 -19t-8 -51v-219
q0 -83 38 -83q20 0 28 17.5zM43 -166v114h392v-114h-392z" />
    <glyph glyph-name="Euro" unicode="&#x20ac;" horiz-adv-x="525" 
d="M128 57.5q-60 65.5 -60 178.5v82h-48v89h48v73h-48v90h48v54q0 119 57 181t171 62q106 0 158.5 -61t54.5 -175h-171v14q0 36 -8 54.5t-34 18.5q-27 0 -35 -19t-8 -54v-75h154v-90h-154v-73h154v-89h-154v-99q0 -23 12 -40t31 -17t30.5 17t11.5 40v11l171 3
q-1 -109 -56.5 -175t-156.5 -66q-108 0 -168 65.5z" />
    <glyph glyph-name="florin" unicode="&#x192;" horiz-adv-x="303" 
d="M20 -9v108l21 -2q17 0 22 9t5 30v9l-4 336h-41v136h41v50q0 118 119 118q60 0 99 -14v-108l-21 2q-17 0 -22 -9.5t-5 -30.5v-8h48v-136h-44v-386q0 -118 -118 -118q-61 0 -100 14z" />
    <glyph glyph-name="franc" unicode="&#x20a3;" horiz-adv-x="508" 
d="M434 626h-154v-124h146v-149h-146v-106h98v-88h-98v-159h-157v159h-49v88h49v530h311v-151z" />
    <glyph glyph-name="uni20B2" unicode="&#x20b2;" horiz-adv-x="508" 
d="M280 446h164v-447h-60l-26 65q-23 -42 -64 -61v-83h-85v71q-147 15 -147 239v337q0 188 147 212v82h85v-81q87 -11 119.5 -75t32.5 -191h-125v65q0 38 -14.5 57t-50.5 19q-41 0 -55 -24t-14 -83v-349q0 -39 12 -60.5t51 -21.5q32 0 47.5 11t19.5 28.5t4 46.5v119h-41v124
z" />
    <glyph glyph-name="uni20AD" unicode="&#x20ad;" horiz-adv-x="509" 
d="M325 0l-100 361h-4v-361h-135v361h-49v119h49v297h134v-297h4l88 297h142l-89 -297h65v-119h-65l107 -361h-147z" />
    <glyph glyph-name="lira" unicode="&#x20a4;" horiz-adv-x="474" 
d="M266 183.5q-18 -25.5 -44 -41.5h229v-142h-430v137q40 24 58.5 45.5t24.5 59.5h-90v88h90q-2 20 -8 58h-82v88h66q-2 9 -10 52t-8 70q0 95 53 141t151 46q101 0 145.5 -60.5t44.5 -175.5h-156q0 46 -5 69t-26 23q-14 0 -20 -8.5t-7 -23.5t-1 -30q0 -17 5 -45t12 -58h140
v-88h-120l9 -58h111v-88h-109q-5 -33 -23 -58.5z" />
    <glyph glyph-name="uni20BA" unicode="&#x20ba;" horiz-adv-x="507" 
d="M468 313v-112q0 -100 -40.5 -150.5t-134.5 -50.5h-204v297l-49 -16v93l49 16v63l-49 -16v93l49 16v231h125v-189l161 54v-93l-161 -54v-63l161 54v-93l-161 -54v-222h82q45 0 45 54v142h127z" />
    <glyph glyph-name="uni20BC" unicode="&#x20bc;" horiz-adv-x="509" 
d="M449 556.5q42 -51.5 42 -158.5v-398h-125v401q0 37 -9.5 60.5t-36.5 34.5v-496h-125v496q-28 -11 -40 -35t-12 -60v-401h-125v398q0 108 44 160t133 63v157h125v-158q87 -12 129 -63.5z" />
    <glyph glyph-name="uni20A6" unicode="&#x20a6;" horiz-adv-x="511" 
d="M495 447h-49v-98h49v-88h-49v-261h-128l-74 261h-60v-261h-119v261h-49v88h49v98h-49v88h49v243h128l70 -243h64v243h119v-243h49v-88zM184 349h35l-35 125v-125zM327 313v134h-39z" />
    <glyph glyph-name="peseta" unicode="&#x20a7;" horiz-adv-x="1096" 
d="M38 777h180q72 0 115 -26.5t63 -84.5t20 -154q0 -134 -49.5 -193.5t-161.5 -59.5h-42v-259h-125v777zM523.5 18q-20.5 26 -20.5 85v413h-44v121h44v140h125v-140h45v-121h-45v-372q0 -17 4 -25.5t21 -8.5q10 0 20 2v-108q-33 -12 -75 -12q-54 0 -74.5 26zM722 191v47h125
v-63q0 -33 11 -50.5t37 -17.5q43 0 43 52q0 27 -12.5 50.5t-42.5 51.5l-96 92q-64 61 -64 157q0 75 47 116.5t116 41.5q179 0 179 -191v-13h-125v25q0 28 -10 47.5t-34 19.5q-38 0 -38 -45t39 -81l87 -79q50 -46 71.5 -86.5t21.5 -94.5q0 -86 -45 -132t-125 -46
q-185 0 -185 199zM200 376q41 0 60.5 15t25 43t5.5 80q0 77 -16.5 111.5t-66.5 34.5h-45v-284h37z" />
    <glyph glyph-name="uni20B1" unicode="&#x20b1;" horiz-adv-x="509" 
d="M492 539h-50q1 -12 1 -37v-23h49v-68h-55q-14 -90 -63 -131t-142 -41h-42v-239h-125v411h-48v68h48v60h-48v68h48v170h180q87 0 132.5 -40t58.5 -130h56v-68zM190 607h118q-8 27 -25.5 40t-47.5 13h-45v-53zM317 539h-127v-60h128v25q0 24 -1 35zM283 369.5
q19 13.5 27 41.5h-120v-55h37q37 0 56 13.5z" />
    <glyph glyph-name="uni20BD" unicode="&#x20bd;" horiz-adv-x="293" 
d="M222 288v-78h141v-107h-141v-103h-125v103h-49v107h49v78h-49v117h49v372h180q67 0 107 -24.5t58 -78t18 -142.5q0 -129 -46 -186.5t-150 -57.5h-42zM222 405h34q33 0 50 12.5t23 40t6 76.5q0 68 -15 97t-55 29h-43v-255z" />
    <glyph glyph-name="uni20B9" unicode="&#x20b9;" horiz-adv-x="509" 
d="M385 667q11 -35 14 -74h48v-88h-48q-15 -181 -191 -181h-2l216 -324h-142l-217 324v108h126q43 0 61.5 17.5t23.5 55.5h-211v88h211q-4 39 -22.5 56.5t-62.5 17.5h-126v107h384v-107h-62z" />
    <glyph glyph-name="sterling" unicode="&#xa3;" horiz-adv-x="474" 
d="M21 137q33 20 50 36t26 40.5t9 63.5q0 35 -4 52h-79v113h66l-7 29q-7 28 -13.5 66.5t-6.5 60.5q0 95 53 141t151 46q101 0 145.5 -60.5t44.5 -175.5h-156q0 46 -5 69t-26 23q-14 0 -20 -8.5t-7 -23.5t-1 -30v-6q0 -25 28 -131h138v-113h-121l5 -65q-2 -42 -21 -73
t-48 -49h229v-142h-430v137z" />
    <glyph glyph-name="uni20A9" unicode="&#x20a9;" horiz-adv-x="600" 
d="M600 494h-49l-8 -68h57v-88h-68l-41 -338h-137l-33 338h-42l-33 -338h-137l-41 338h-68v88h57l-8 68h-49v88h39l-24 195h131l16 -195h71l20 195h96l22 -195h69l14 195h131l-24 -195h39v-88zM288 426h24l-12 124zM169 494l6 -68h41l7 68h-54zM429 426l5 68h-53l8 -68h40z
M193 204l14 134h-25zM414 204l9 134h-24z" />
    <glyph glyph-name="yen" unicode="&#xa5;" horiz-adv-x="463" 
d="M441 859l-121 -509h78v-85h-94v-48h94v-85h-94v-132h-162v132h-98v85h98v48h-98v85h82l-121 509h170l48 -291l48 291h170z" />
    <glyph glyph-name="uni2219" unicode="&#x2219;" horiz-adv-x="293" 
d="M74 353v146h155v-146h-155z" />
    <glyph glyph-name="uni2215" unicode="&#x2215;" horiz-adv-x="392" 
d="M14 0l200 863h178l-201 -863h-177z" />
    <glyph glyph-name="plus" unicode="+" horiz-adv-x="355" 
d="M121 147v102h-101v113h101v101h113v-101h102v-113h-102v-102h-113z" />
    <glyph glyph-name="minus" unicode="&#x2212;" horiz-adv-x="311" 
d="M29 249v113h252v-113h-252z" />
    <glyph glyph-name="multiply" unicode="&#xd7;" horiz-adv-x="347" 
d="M102 153l-81 80l72 72l-72 72l81 80l71 -72l72 72l80 -80l-72 -72l72 -72l-80 -80l-72 72z" />
    <glyph glyph-name="divide" unicode="&#xf7;" horiz-adv-x="334" 
d="M94 477v145h146v-145h-146zM17 312v113h300v-113h-300zM94 116v145h146v-145h-146z" />
    <glyph glyph-name="equal" unicode="=" horiz-adv-x="311" 
d="M30 436v109h251v-109h-251zM30 249v113h251v-113h-251z" />
    <glyph glyph-name="notequal" unicode="&#x2260;" horiz-adv-x="311" 
d="M30 436v109h251v-109h-251zM30 249v113h251v-113h-251z" />
    <glyph glyph-name="greater" unicode="&#x3e;" horiz-adv-x="321" 
d="M26 98v174l167 94l-167 93v176l278 -167v-202z" />
    <glyph glyph-name="less" unicode="&#x3c;" horiz-adv-x="321" 
d="M295 98l-278 168v202l278 167v-176l-167 -93l167 -94v-174z" />
    <glyph glyph-name="greaterequal" unicode="&#x2265;" horiz-adv-x="323" 
d="M25 143v174l167 94l-167 93v176l279 -167v-202zM39 0v113h252v-113h-252z" />
    <glyph glyph-name="lessequal" unicode="&#x2264;" horiz-adv-x="323" 
d="M297 143l-278 168v202l278 167v-176l-167 -93l167 -94v-174zM32 0v113h252v-113h-252z" />
    <glyph glyph-name="plusminus" unicode="&#xb1;" horiz-adv-x="358" 
d="M124 202v102h-102v113h102v102h113v-102h102v-113h-102v-102h-113zM42 0v113h252v-113h-252z" />
    <glyph glyph-name="approxequal" unicode="&#x2248;" horiz-adv-x="493" 
d="M297.5 403.5q-29.5 7.5 -71.5 21.5q-21 7 -41 13t-32 6q-30 0 -49 -36l-80 42q25 58 52.5 88t79.5 30q41 0 73 -8t67 -21q16 -6 30.5 -10.5t25.5 -4.5q30 0 49 40l89 -29q-17 -46 -31.5 -74t-39 -46.5t-62.5 -18.5q-30 0 -59.5 7.5zM296 174q-31 8 -70 22q-21 7 -41 13
t-32 6q-30 0 -49 -37l-80 42q25 59 52.5 89t79.5 30q41 0 72 -8t68 -22q16 -6 30.5 -10.5t25.5 -4.5q30 0 49 40l89 -29q-17 -46 -31.5 -74t-39 -46.5t-62.5 -18.5q-30 0 -61 8z" />
    <glyph glyph-name="asciitilde" unicode="~" horiz-adv-x="493" 
d="M297.5 403.5q-29.5 7.5 -71.5 21.5q-21 7 -41 13t-32 6q-30 0 -49 -36l-80 42q25 58 52.5 88t79.5 30q41 0 73 -8t67 -21q16 -6 30.5 -10.5t25.5 -4.5q30 0 49 40l89 -29q-17 -46 -31.5 -74t-39 -46.5t-62.5 -18.5q-30 0 -59.5 7.5z" />
    <glyph glyph-name="logicalnot" unicode="&#xac;" horiz-adv-x="404" 
d="M222 214v177h-204v87h356v-264h-152z" />
    <glyph glyph-name="emptyset" unicode="&#x2205;" horiz-adv-x="677" 
d="M229.5 117.5q-51.5 17.5 -92.5 49.5l-62 -63l-42 42l61 62q-37 42 -57 96.5t-20 116.5q0 90 42 163.5t115 115.5t163 42q61 0 115.5 -20.5t97.5 -57.5l68 68l42 -42l-69 -69q33 -41 50 -92t17 -108q0 -90 -42 -163.5t-115.5 -115.5t-163.5 -42q-56 0 -107.5 17.5z
M501 614q-70 65 -164 65q-69 0 -124.5 -34.5t-87 -94t-31.5 -129.5q0 -91 52 -162zM462 197.5q56 34.5 87.5 93.5t31.5 130q0 81 -42 147l-352 -352q64 -53 150 -53q69 0 125 34.5z" />
    <glyph glyph-name="infinity" unicode="&#x221e;" horiz-adv-x="572" 
d="M283 286q-24 -27 -59 -46t-73 -19q-63 0 -95.5 37.5t-32.5 104.5q0 65 33 102t95 37q69 0 132 -70q61 76 133 76q64 0 98 -38.5t34 -106.5q0 -69 -34 -109t-98 -40q-77 0 -133 72zM252 361q-35 35 -70 35q-43 0 -43 -35q0 -34 43 -34q36 0 70 34zM434 361q0 35 -47 35
q-36 0 -74 -35q34 -34 74 -34q47 0 47 34z" />
    <glyph glyph-name="integral" unicode="&#x222b;" horiz-adv-x="296" 
d="M17 -9v108l21 -2q16 0 20 9t4 30v531q0 60 28.5 89t89.5 29q60 0 99 -14v-108l-21 2q-17 0 -22 -9.5t-5 -30.5v-530q0 -59 -27.5 -88.5t-86.5 -29.5q-61 0 -100 14z" />
    <glyph glyph-name="uni2126" unicode="&#x2126;" horiz-adv-x="484" 
d="M23 120h60q-48 72 -48 227v234q0 100 52.5 152t154.5 52t154.5 -52t52.5 -152v-234q0 -156 -47 -227h59v-120h-203v121q16 8 22 29t6 55q0 24 -1 36l-1 43v307q0 29 -9 45t-33 16t-32.5 -16t-8.5 -45v-307v-58q0 -44 5 -70.5t20 -34.5v-121h-203v120z" />
    <glyph glyph-name="uni2206" unicode="&#x2206;" horiz-adv-x="450" 
d="M17 0l89 859h240l87 -859h-416zM184 112h81l-33 596h-16z" />
    <glyph glyph-name="product" unicode="&#x220f;" horiz-adv-x="483" 
d="M30 0v859h423v-859h-171v712h-81v-712h-171z" />
    <glyph glyph-name="summation" unicode="&#x2211;" horiz-adv-x="415" 
d="M21 0v133l103 302l-103 292v132h373v-147h-191l104 -277l-104 -288h191v-147h-373z" />
    <glyph glyph-name="radical" unicode="&#x221a;" horiz-adv-x="692" 
d="M121 0l-107 362h132l55 -197l67 567l1 1h406v-113h-256l-101 -620h-197z" />
    <glyph glyph-name="uni00B5" unicode="&#xb5;" horiz-adv-x="490" 
d="M464 732v-732h-175v78q-15 -38 -32.5 -57.5t-48.5 -25.5v-86h-175v823h176v-510v-37.5t9.5 -43t29.5 -12.5q27 0 34 22.5t7 64.5v6l1 510h174z" />
    <glyph glyph-name="partialdiff" unicode="&#x2202;" horiz-adv-x="523" 
d="M66 42.5q-48 52.5 -48 159.5q0 139 45.5 233.5t153.5 94.5q48 0 102 -19q6 35 6 57q0 123 -77 123q-27 0 -59 -5.5t-51 -13.5l-26 113q113 36 190 36q108 0 154.5 -65.5t46.5 -189.5q0 -193 -18.5 -313t-80.5 -191.5t-186 -71.5q-104 0 -152 52.5zM274.5 160
q12.5 17 14.5 45l15 166q-25 17 -43 17q-38 0 -46 -73l-8 -83q-3 -27 -3 -41q0 -24 7.5 -36t27.5 -12q23 0 35.5 17z" />
    <glyph glyph-name="percent" unicode="%" horiz-adv-x="1057" 
d="M322 0l264 863h158l-264 -863h-158zM71 313q-50 55 -50 150v177q0 99 47.5 151.5t142.5 52.5q96 0 144 -52.5t48 -151.5v-177q0 -95 -50.5 -150t-141.5 -55q-90 0 -140 55zM243.5 400q13.5 14 13.5 34v237q0 32 -9.5 47t-36.5 15t-36 -15t-9 -47v-237q0 -20 13 -34
t32 -14t32.5 14zM704.5 46.5q-50.5 55.5 -50.5 149.5v178q0 100 47.5 152t143.5 52q95 0 143 -52.5t48 -151.5v-178q0 -94 -50.5 -149.5t-140.5 -55.5t-140.5 55.5zM877 133q13 14 13 34v238q0 32 -9 47t-36 15t-36.5 -15.5t-9.5 -46.5v-238q0 -20 13.5 -34t32.5 -14t32 14z
" />
    <glyph glyph-name="perthousand" unicode="&#x2030;" horiz-adv-x="1480" 
d="M322 0l264 863h158l-264 -863h-158zM71 313q-50 55 -50 150v177q0 99 47.5 151.5t142.5 52.5q96 0 144 -52.5t48 -151.5v-177q0 -95 -50.5 -150t-141.5 -55q-90 0 -140 55zM243.5 400q13.5 14 13.5 34v237q0 32 -9.5 47t-36.5 15t-36 -15t-9 -47v-237q0 -20 13 -34
t32 -14t32.5 14zM704.5 46.5q-50.5 55.5 -50.5 149.5v178q0 100 47.5 152t143.5 52q95 0 143 -52.5t48 -151.5v-178q0 -94 -50.5 -149.5t-140.5 -55.5t-140.5 55.5zM1127.5 46.5q-50.5 55.5 -50.5 149.5v178q0 99 48 151.5t143 52.5t143 -52.5t48 -151.5v-178
q0 -94 -50.5 -149.5t-140.5 -55.5t-140.5 55.5zM877 133q13 14 13 34v238q0 32 -9 47t-36 15t-36.5 -15.5t-9.5 -46.5v-238q0 -20 13.5 -34t32.5 -14t32 14zM1300 133q13 14 13 34v238q0 32 -9 47t-36 15t-36 -15.5t-9 -46.5v-238q0 -20 13 -34t32 -14t32 14z" />
    <glyph glyph-name="lozenge" unicode="&#x25ca;" horiz-adv-x="450" 
d="M106 0l-89 348l89 353h240l87 -353l-87 -348h-240zM216 87h16l65 261l-65 261h-16l-65 -261z" />
    <glyph glyph-name="at" unicode="@" horiz-adv-x="864" 
d="M235 -30q-94 47 -149 149t-55 260q0 153 50 262.5t145 167.5t227 58q187 0 285 -114.5t98 -321.5q0 -146 -45 -221t-142 -75q-67 0 -103 27t-54 78q-9 -47 -33.5 -74t-62.5 -27q-69 0 -108 69.5t-39 169.5q0 116 33 186t108 70q33 0 56 -17.5t43 -50.5l19 64h111v-313
q0 -70 43 -70q31 0 42.5 43.5t11.5 137.5q0 158 -58.5 240t-193.5 82q-143 0 -218 -95.5t-75 -276.5q0 -166 76 -253t209 -87q43 0 130 10l15 -110q-88 -15 -152 -15q-120 0 -214 47zM470.5 281q8.5 21 8.5 52v191q-31 0 -47.5 -12.5t-24 -42.5t-7.5 -87q0 -51 9.5 -86.5
t31.5 -35.5q21 0 29.5 21z" />
    <glyph glyph-name="ampersand" unicode="&#x26;" horiz-adv-x="505" 
d="M57 45q-40 55 -40 143q0 98 28 157.5t88 104.5q-49 96 -49 166q0 73 47.5 114.5t122.5 41.5q74 0 121.5 -39.5t47.5 -110.5q0 -104 -115 -195l31 -73q28 74 84 115l68 -106q-59 -46 -96 -152l87 -211h-166l-18 47q-21 -25 -53.5 -41t-70.5 -16q-77 0 -117 55zM272 551
q10 11 18 31.5t8 39.5q0 30 -29 30q-12 0 -19 -8.5t-7 -21.5q0 -26 21 -80zM233 129.5q13 14.5 17 33.5l-59 142l-6 -9q-8 -12 -13 -38t-5 -51v-5q0 -39 6 -63t28 -24q19 0 32 14.5z" />
    <glyph glyph-name="paragraph" unicode="&#xb6;" horiz-adv-x="498" 
d="M185 389q-88 10 -129 58t-41 144q0 104 71.5 145.5t197.5 41.5h183v-778h-116v628h-46v-628h-120v389z" />
    <glyph glyph-name="section" unicode="&#xa7;" horiz-adv-x="449" 
d="M73 36.5q-53 45.5 -53 142.5h163q3 -61 46 -61q18 0 30 11t12 29q0 21 -25.5 41.5t-77.5 50.5q-67 37 -103 68t-36 70q0 65 68 115q-68 50 -68 120q0 48 27 85t72.5 57t99.5 20q98 0 148.5 -46t50.5 -143h-149q-1 61 -45 61q-20 0 -33.5 -10.5t-13.5 -29.5
q0 -21 25 -40.5t77 -49.5q46 -28 73 -46.5t46.5 -42.5t19.5 -51q0 -64 -68 -115q68 -50 68 -119q0 -49 -26.5 -86t-72 -56.5t-99.5 -19.5q-103 0 -156 45.5zM292 381q0 34 -98 67q-25 -30 -25 -51q0 -23 27.5 -36.5t75.5 -27.5q20 24 20 48z" />
    <glyph glyph-name="copyright" unicode="&#xa9;" horiz-adv-x="675" 
d="M174 142q-73 42 -115 115.5t-42 163.5t42 163.5t115 115.5t163 42t163.5 -42t115.5 -115.5t42 -163.5t-42 -163.5t-115.5 -115.5t-163.5 -42t-163 42zM462 197.5q56 34.5 87.5 93.5t31.5 130t-31.5 130t-87.5 93.5t-125 34.5t-124.5 -34.5t-87 -94t-31.5 -129.5
t31.5 -129.5t87 -94t124.5 -34.5t125 34.5zM252.5 236q-30.5 29 -30.5 80v196q0 63 27.5 94t86.5 31q52 0 83.5 -25t31.5 -72v-75h-92v49q0 38 -23 38q-12 0 -16.5 -8t-4.5 -23v-200q0 -12 6 -22t15 -10q23 0 23 32v73h94v-80q0 -107 -119 -107q-51 0 -81.5 29z" />
    <glyph glyph-name="registered" unicode="&#xae;" horiz-adv-x="675" 
d="M174 142q-73 42 -115 115.5t-42 163.5t42 163.5t115 115.5t163 42t163.5 -42t115.5 -115.5t42 -163.5t-42 -163.5t-115.5 -115.5t-163.5 -42t-163 42zM462 197.5q56 34.5 87.5 93.5t31.5 130t-31.5 130t-87.5 93.5t-125 34.5t-124.5 -34.5t-87 -94t-31.5 -129.5
t31.5 -129.5t87 -94t124.5 -34.5t125 34.5zM229 626h141q50 0 67 -29t17 -88q0 -35 -10.5 -54.5t-35.5 -28.5q39 -7 39 -59v-157h-90v162q0 17 -7.5 22t-27.5 5v-189h-93v416zM346 471q18 0 18 38q0 26 -8 33t-34 7v-78h24z" />
    <glyph glyph-name="trademark" unicode="&#x2122;" horiz-adv-x="925" 
d="M102 270v476h-78v113h286v-113h-78v-476h-130zM363 270v589h198l55 -307l55 307h200v-589h-127v425l-67 -425h-117l-72 425v-425h-125z" />
    <glyph glyph-name="degree" unicode="&#xb0;" horiz-adv-x="389" 
d="M68 499q-47 44 -47 121t47 121t126 44t126 -44t47 -121t-47 -121t-126 -44t-126 44zM245 565q19 22 19 55t-19 54.5t-51 21.5q-31 0 -50 -22t-19 -54q0 -33 19 -55t50 -22q32 0 51 22z" />
    <glyph glyph-name="bar" unicode="|" horiz-adv-x="216" 
d="M30 -41v995h156v-995h-156z" />
    <glyph glyph-name="brokenbar" unicode="&#xa6;" horiz-adv-x="222" 
d="M33 509v445h156v-445h-156zM33 -41v430h156v-430h-156z" />
    <glyph glyph-name="dagger" unicode="&#x2020;" horiz-adv-x="385" 
d="M104 0v486h-89v145h89v146h178v-146h88v-145h-88v-486h-178z" />
    <glyph glyph-name="uni2113" unicode="&#x2113;" horiz-adv-x="248" 
d="M35 0v864h178v-864h-178z" />
    <glyph glyph-name="daggerdbl" unicode="&#x2021;" horiz-adv-x="394" 
d="M109 0v171h-89v144h89v144h-89v145h89v173h178v-173h88v-145h-88v-144h88v-144h-88v-171h-178z" />
    <glyph glyph-name="uni2116" unicode="&#x2116;" horiz-adv-x="944" 
d="M557.5 382q-52.5 53 -52.5 155v123q0 100 52 153.5t146 53.5q93 0 145 -53t52 -154v-123q0 -101 -52 -154.5t-145 -53.5t-145.5 53zM38 0v859h160l96 -411v411h151v-859h-153l-103 430v-430h-151zM734 470.5q10 14.5 10 39.5v168q0 62 -41 62t-41 -62v-168q0 -54 41 -54
q21 0 31 14.5zM525 155v122h355v-122h-355z" />
    <glyph glyph-name="estimated" unicode="&#x212e;" horiz-adv-x="488" 
d="M82.5 55q-53.5 63 -53.5 184v294q0 102 55.5 154.5t164.5 52.5q105 0 158.5 -52.5t52.5 -154.5l-2 -173h-273v-244q0 -82 61 -82q74 0 74 86v163h140v-42q0 -131 -52.5 -190t-167.5 -59q-104 0 -157.5 63zM320 408v216q0 38 -18.5 58.5t-54.5 20.5q-31 0 -47 -20.5
t-16 -58.5v-216h136z" />
    <glyph glyph-name="asciicircum" unicode="^" horiz-adv-x="474" 
d="M20 211l117 451h199l118 -451h-175l-42 290l-42 -290h-175z" />
    <glyph glyph-name="uni0308" unicode="&#x308;" 
d="M-206 781v145h175v-145h-175zM31 781v145h174v-145h-174z" />
    <glyph glyph-name="uni0307" unicode="&#x307;" 
d="M-87 777v146h175v-146h-175z" />
    <glyph glyph-name="gravecomb" unicode="&#x300;" 
d="M116 758l-232 46v170l232 -107v-109z" />
    <glyph glyph-name="acutecomb" unicode="&#x301;" 
d="M-117 758v109l232 107v-170z" />
    <glyph glyph-name="uni030B" unicode="&#x30b;" 
d="M-104 784l-81 29l89 233l113 -52zM43 784l-81 29l108 233l114 -52z" />
    <glyph glyph-name="caroncomb.alt" 
d="M29 606l32 116h-62v145h183v-141l-50 -120h-103z" />
    <glyph glyph-name="uni0302" unicode="&#x302;" 
d="M-217 777l117 197h199l118 -197h-175l-42 139l-42 -139h-175z" />
    <glyph glyph-name="uni030C" unicode="&#x30c;" 
d="M-100 777l-117 197h175l42 -140l42 140h175l-118 -197h-199z" />
    <glyph glyph-name="uni0306" unicode="&#x306;" 
d="M-141 814.5q-51 37.5 -51 114.5q0 7 2 21l125 -1q0 -28 14.5 -42t51.5 -14q36 0 51 14t15 42l125 1l1 -17q0 -79 -51 -117.5t-142 -38.5q-90 0 -141 37.5z" />
    <glyph glyph-name="uni030A" unicode="&#x30a;" 
d="M-126 815.5q-47 44.5 -47 121.5t47 121t126 44t126 -44t47 -121t-47 -121.5t-126 -44.5t-126 44.5zM51 882q19 22 19 55t-19 54.5t-51 21.5q-31 0 -50 -22t-19 -54q0 -33 19 -55t50 -22q32 0 51 22z" />
    <glyph glyph-name="tildecomb" unicode="&#x303;" 
d="M29.5 794q-23.5 7 -56.5 20q-16 7 -31 12t-26 5q-29 0 -45 -33l-73 38q22 54 47.5 81.5t73.5 27.5q26 0 47 -6t55 -19q36 -16 54 -16q28 0 46 36l81 -26q-15 -42 -28.5 -67.5t-36 -42.5t-56.5 -17q-28 0 -51.5 7z" />
    <glyph glyph-name="uni0304" unicode="&#x304;" 
d="M-159 791v74h318v-74h-318z" />
    <glyph glyph-name="hookabovecomb" unicode="&#x309;" 
d="M-52 840q29 12 44 26.5t15 37.5q0 46 -49 46q-23 0 -44 -8v88q39 16 89 16q61 0 95.5 -30.5t34.5 -85.5q0 -109 -133 -150z" />
    <glyph glyph-name="uni030F" unicode="&#x30f;" 
d="M-106 774l-141 210l114 53l108 -234zM42 774l-122 210l113 53l90 -234z" />
    <glyph glyph-name="uni0311" unicode="&#x311;" 
d="M-183 805q0 78 47 115t135 37q90 0 136.5 -37.5t46.5 -117.5q0 -10 -1 -17h-115q0 32 -18 49t-48 17t-48 -17t-18 -49h-115q-2 14 -2 20z" />
    <glyph glyph-name="uni031B" unicode="&#x31b;" 
d="M0 768v92h38q56 0 56 61v62h135v-58q0 -86 -45 -127t-118 -41q-35 0 -66 11z" />
    <glyph glyph-name="dotbelowcomb" unicode="&#x323;" 
d="M-87 -204v146h175v-146h-175z" />
    <glyph glyph-name="uni0324" unicode="&#x324;" 
d="M-206 -203v145h175v-145h-175zM31 -203v145h174v-145h-174z" />
    <glyph glyph-name="uni0326" unicode="&#x326;" 
d="M-67 -314l32 115h-62v146h182v-141l-49 -120h-103z" />
    <glyph glyph-name="uni0327" unicode="&#x327;" 
d="M-110 -289v109q31 -11 58 -11q57 0 57 58q0 27 -13.5 62t-37.5 71h79q47 -42 73.5 -92.5t26.5 -96.5q0 -53 -36.5 -86t-109.5 -33q-50 0 -97 19z" />
    <glyph glyph-name="uni0328" unicode="&#x328;" 
d="M-88 -290q-39 18 -62 51t-23 78q0 89 129 161h103l-18 -21q-31 -37 -45.5 -61t-14.5 -54q0 -27 14.5 -41t41.5 -14q24 0 57 11v-109q-45 -19 -97 -19q-46 0 -85 18z" />
    <glyph glyph-name="uni032E" unicode="&#x32e;" 
d="M-141 -165.5q-51 37.5 -51 114.5q0 7 2 21l125 -1q0 -28 14.5 -42t51.5 -14q36 0 51 14t15 42l125 1l1 -17q0 -79 -51 -117.5t-142 -38.5q-90 0 -141 37.5z" />
    <glyph glyph-name="uni0331" unicode="&#x331;" 
d="M-159 -132v74h318v-74h-318z" />
    <glyph glyph-name="uni0335" unicode="&#x335;" 
d="M-161 317v113h322v-113h-322z" />
    <glyph glyph-name="uni0326.alt" 
d="M-231 842v141l49 120h103l-32 -115h62v-146h-182z" />
    <glyph glyph-name="uni0308.case" 
d="M-206 781v121h175v-121h-175zM31 781v121h175v-121h-175z" />
    <glyph glyph-name="uni0307.case" 
d="M-87 777v126h174v-126h-174z" />
    <glyph glyph-name="gravecomb.case" 
d="M116 750l-232 37v140l232 -82v-95z" />
    <glyph glyph-name="acutecomb.case" 
d="M-116 750v95l232 82v-140z" />
    <glyph glyph-name="uni030B.case" 
d="M-104 784l-81 29l89 233l113 -52zM43 784l-81 29l108 233l114 -52z" />
    <glyph glyph-name="uni0302.case" 
d="M-217 782l117 162h200l117 -162h-175l-42 105l-42 -105h-175z" />
    <glyph glyph-name="uni030C.case" 
d="M-100 777l-117 197h175l42 -140l42 140h175l-118 -197h-199z" />
    <glyph glyph-name="uni0306.case" 
d="M-141 811q-51 34 -51 104q0 6 2 20h125q0 -31 14.5 -46t50.5 -15q37 0 51.5 15t14.5 46h125q1 -8 1 -17q0 -72 -50.5 -106.5t-141.5 -34.5q-90 0 -141 34z" />
    <glyph glyph-name="uni030A.case" 
d="M-125.5 812.5q-46.5 41.5 -46.5 114.5q0 72 47 113.5t125 41.5q79 0 126 -42t47 -113q0 -72 -47 -114t-126 -42t-125.5 41.5zM51 879q19 19 19 48t-19 48t-51 19q-31 0 -50 -19t-19 -48t19 -48t50 -19q32 0 51 19z" />
    <glyph glyph-name="tildecomb.case" 
d="M29.5 779q-23.5 7 -56.5 20q-16 7 -31 12t-26 5q-29 0 -45 -33l-73 38q22 49 47.5 74t73.5 25q26 0 47 -6t55 -19q36 -16 54 -16q14 0 25 8.5t21 28.5l81 -26q-15 -39 -28.5 -63t-36 -39.5t-56.5 -15.5q-28 0 -51.5 7z" />
    <glyph glyph-name="hookabovecomb.case" 
d="M-66 831q29 11 44 25.5t15 37.5q0 46 -50 46q-24 0 -44 -7v88q45 16 90 16q61 0 95.5 -31t34.5 -86q0 -109 -133 -150z" />
    <glyph glyph-name="uni030F.case" 
d="M-106 774l-141 210l114 53l108 -234zM42 774l-122 210l113 53l90 -234z" />
    <glyph glyph-name="uni0311.case" 
d="M-183 805q0 78 47 115t135 37q90 0 136.5 -37.5t46.5 -117.5q0 -10 -1 -17h-115q0 32 -18 49t-48 17t-48 -17t-18 -49h-115q-2 14 -2 20z" />
    <glyph glyph-name="uni031B.case" 
d="M0 768v92h38q56 0 56 61v11h136v-7q0 -87 -45 -127.5t-119 -40.5q-35 0 -66 11z" />
    <glyph glyph-name="uni02BC" unicode="&#x2bc;" horiz-adv-x="293" 
d="M89 472l33 115h-62v145h182v-141l-50 -119h-103z" />
    <glyph glyph-name="uni02C9" unicode="&#x2c9;" horiz-adv-x="293" 
d="M-13 774v74h318v-74h-318z" />
    <glyph glyph-name="acute" unicode="&#xb4;" horiz-adv-x="317" 
d="M44 758v109l232 107v-170z" />
    <glyph glyph-name="breve" unicode="&#x2d8;" horiz-adv-x="496" 
d="M104 814.5q-51 37.5 -51 114.5q0 7 2 21l125 -1q0 -28 14.5 -42t51.5 -14q36 0 51 14t15 42l125 1l1 -17q0 -79 -51 -117.5t-142 -38.5q-90 0 -141 37.5z" />
    <glyph glyph-name="caron" unicode="&#x2c7;" horiz-adv-x="474" 
d="M137 777l-117 197h175l42 -140l42 140h175l-118 -197h-199z" />
    <glyph glyph-name="cedilla" unicode="&#xb8;" horiz-adv-x="496" 
d="M129 -289v109q31 -11 58 -11q57 0 57 58q0 27 -13.5 62t-37.5 71h79q47 -42 73.5 -92.5t26.5 -96.5q0 -53 -36.5 -86t-109.5 -33q-50 0 -97 19z" />
    <glyph glyph-name="circumflex" unicode="&#x2c6;" horiz-adv-x="474" 
d="M20 777l117 197h199l118 -197h-175l-42 139l-42 -139h-175z" />
    <glyph glyph-name="dieresis" unicode="&#xa8;" horiz-adv-x="477" 
d="M32 781v145h175v-145h-175zM269 781v145h174v-145h-174z" />
    <glyph glyph-name="dotaccent" unicode="&#x2d9;" horiz-adv-x="240" 
d="M33 777v146h175v-146h-175z" />
    <glyph glyph-name="grave" unicode="`" horiz-adv-x="317" 
d="M262 758l-232 46v170l232 -107v-109z" />
    <glyph glyph-name="hungarumlaut" unicode="&#x2dd;" horiz-adv-x="635" 
d="M206 784l-81 29l89 233l113 -52zM353 784l-81 29l108 233l114 -52z" />
    <glyph glyph-name="macron" unicode="&#xaf;" horiz-adv-x="833" 
d="M256 791v74h318v-74h-318z" />
    <glyph glyph-name="ogonek" unicode="&#x2db;" horiz-adv-x="496" 
d="M234 -290q-39 18 -62 51t-23 78q0 89 129 161h103l-18 -21q-31 -37 -45.5 -61t-14.5 -54q0 -27 14.5 -41t41.5 -14q24 0 57 11v-109q-45 -19 -97 -19q-46 0 -85 18z" />
    <glyph glyph-name="ring" unicode="&#x2da;" horiz-adv-x="393" 
d="M73 815.5q-47 44.5 -47 121.5t47 121t126 44t126 -44t47 -121t-47 -121.5t-126 -44.5t-126 44.5zM250 882q19 22 19 55t-19 54.5t-51 21.5q-31 0 -50 -22t-19 -54q0 -33 19 -55t50 -22q32 0 51 22z" />
    <glyph glyph-name="tilde" unicode="&#x2dc;" horiz-adv-x="496" 
d="M274.5 794q-23.5 7 -56.5 20q-16 7 -31 12t-26 5q-29 0 -45 -33l-73 38q22 54 47.5 81.5t73.5 27.5q26 0 47 -6t55 -19q36 -16 54 -16q28 0 46 36l81 -26q-15 -42 -28.5 -67.5t-36 -42.5t-56.5 -17q-28 0 -51.5 7z" />
    <glyph glyph-name="uni03060301" 
d="M-116 958v80l232 92v-140zM-141 806q-51 34 -51 104q0 6 2 20h125q0 -31 14.5 -46t50.5 -15t50.5 15t14.5 46h125q1 -8 1 -17q0 -72 -50.5 -106.5t-140.5 -34.5t-141 34z" />
    <glyph glyph-name="uni03060300" 
d="M116 958l-232 32v140l232 -92v-80zM-141 806q-51 34 -51 104q0 6 2 20h125q0 -31 14.5 -46t50.5 -15t50.5 15t14.5 46h125q1 -8 1 -17q0 -72 -50.5 -106.5t-140.5 -34.5t-141 34z" />
    <glyph glyph-name="uni03060309" 
d="M-67 995q29 11 44 25.5t15 37.5q0 46 -50 46q-24 0 -44 -7v88q45 16 90 16q61 0 95.5 -31t34.5 -86q0 -107 -133 -150zM-141 806q-51 34 -51 104q0 6 2 20h125q0 -31 14.5 -46t50.5 -15t50.5 15t14.5 46h125q1 -8 1 -17q0 -72 -50.5 -106.5t-140.5 -34.5t-141 34z" />
    <glyph glyph-name="uni03060303" 
d="M42 967q-19 6 -44 18q-27 11 -42 16t-31 5q-34 0 -54 -33l-73 38q21 50 45 76t68 26q21 0 39 -6t44 -17q23 -10 39 -15.5t33 -5.5q18 0 30 8t25 28l81 -26q-15 -39 -28.5 -63t-36 -39.5t-56.5 -15.5q-20 0 -39 6zM-141 806q-51 34 -51 104q0 6 2 20h125q0 -31 14.5 -46
t50.5 -15t50.5 15t14.5 46h125q1 -8 1 -17q0 -72 -50.5 -106.5t-140.5 -34.5t-141 34z" />
    <glyph glyph-name="uni03020301" 
d="M153 895l80 144h150l-116 -144h-114zM-217 777l117 148h200l117 -148h-173l-44 95l-44 -95h-173z" />
    <glyph glyph-name="uni03020300" 
d="M182 895l-117 144h150l80 -144h-113zM-217 777l117 148h200l117 -148h-173l-44 95l-44 -95h-173z" />
    <glyph glyph-name="uni03020309" 
d="M125 938q28 10 43 25t15 38t-13 35t-36 12t-44 -8v88q43 16 89 16q61 0 95.5 -30.5t34.5 -85.5q0 -108 -133 -151zM-193 777l108 153h170l108 -153h-149l-44 95l-44 -95h-149z" />
    <glyph glyph-name="uni03020303" 
d="M42 967q-19 6 -44 18q-27 11 -42 16t-31 5q-34 0 -54 -33l-73 38q21 50 45 76t68 26q21 0 39 -6t44 -17q23 -10 39 -15.5t33 -5.5q18 0 30 8t25 28l81 -26q-15 -39 -28.5 -63t-36 -39.5t-56.5 -15.5q-20 0 -39 6zM-217 777l117 148h200l117 -148h-173l-44 95l-44 -95
h-173z" />
    <glyph glyph-name="uni03060301.case" 
d="M-81 1055v51l183 92v-112zM-85.5 910.5q-36.5 16.5 -56.5 43.5t-20 56q0 14 1 21l93 -1q0 -31 15 -46t51 -15t50.5 15t14.5 46l98 1q1 -8 1 -17q0 -31 -20 -58.5t-57.5 -44.5t-86.5 -17q-47 0 -83.5 16.5z" />
    <glyph glyph-name="uni03060300.case" 
d="M102 1055l-183 31v112l183 -92v-51zM-85.5 910.5q-36.5 16.5 -56.5 43.5t-20 56q0 14 1 21l93 -1q0 -31 15 -46t51 -15t50.5 15t14.5 46l98 1q1 -8 1 -17q0 -31 -20 -58.5t-57.5 -44.5t-86.5 -17q-47 0 -83.5 16.5z" />
    <glyph glyph-name="uni03060309.case" 
d="M7 1117q0 29 -30 29q-13 0 -28 -5v54q27 11 56 11q38 0 59 -19.5t21 -53.5q0 -69 -82 -93l-32 37q36 13 36 40zM-85.5 910.5q-36.5 16.5 -56.5 43.5t-20 56q0 14 1 21l93 -1q0 -31 15 -46t51 -15t50.5 15t14.5 46l98 1q1 -8 1 -17q0 -31 -20 -58.5t-57.5 -44.5t-86.5 -17
q-47 0 -83.5 16.5z" />
    <glyph glyph-name="uni03060303.case" 
d="M39 1066q-13 4 -34 13q-18 8 -30 12t-24 4q-26 0 -41 -25l-55 28q17 39 34.5 58t50.5 19q15 0 27.5 -4t35.5 -13q19 -8 30 -12t24 -4t22 6t19 21l61 -19q-17 -44 -35.5 -66t-56.5 -22q-15 0 -28 4zM-85.5 910.5q-36.5 16.5 -56.5 43.5t-20 56q0 14 1 21l93 -1
q0 -31 15 -46t51 -15t50.5 15t14.5 46l98 1q1 -8 1 -17q0 -31 -20 -58.5t-57.5 -44.5t-86.5 -17q-47 0 -83.5 16.5z" />
    <glyph glyph-name="uni03020301.case" 
d="M141 977l56 99h150l-92 -99h-114zM-188 897l116 125h144l116 -125l-140 1l-48 66l-48 -66z" />
    <glyph glyph-name="uni03020300.case" 
d="M288 977h-114l-92 99h150zM-188 897l116 125h144l116 -125l-140 1l-48 66l-48 -66z" />
    <glyph glyph-name="uni03020309.case" 
d="M185 1034q0 29 -31 29q-14 0 -27 -5v54q27 11 56 11q38 0 59 -19.5t21 -53.5q0 -69 -82 -93l-33 37q37 13 37 40zM-188 897l116 125h144l116 -125l-140 1l-48 66l-48 -66z" />
    <glyph glyph-name="uni03020303.case" 
d="M31.5 1050q-12.5 4 -35.5 13q-18 8 -30 12t-24 4q-25 0 -41 -25l-54 29q16 38 33.5 57.5t50.5 19.5q16 0 30.5 -4.5t32.5 -13.5q19 -8 30 -12t24 -4t22.5 6.5t18.5 21.5l61 -20q-17 -44 -35.5 -66t-55.5 -22q-15 0 -27.5 4zM-188 897l116 125h144l116 -125l-140 1l-48 66
l-48 -66z" />
    <glyph glyph-name="foundryicon" horiz-adv-x="658" 
d="M137 99l70 224l-190 143h236l74 225l77 -225h237l-191 -143l71 -224l-194 134zM237 295h52v72l83 -72h51v131h-51v-73l-83 73h-52v-131z" />
    <glyph glyph-name="uni0002" horiz-adv-x="293" 
 />
    <glyph glyph-name="uni0009" unicode="&#x9;" horiz-adv-x="293" 
 />
    <glyph glyph-name="uni000A" unicode="&#xa;" horiz-adv-x="293" 
 />
    </font>
</defs>
</svg>
